<svg width="44" height="30" viewBox="0 0 44 30" fill="none" xmlns="http://www.w3.org/2000/svg">
<path fill-rule="evenodd" clip-rule="evenodd" d="M43.2 0H0V30H43.2V20.1" fill="url(#paint0_radial)"/>
<path d="M3.89998 10.6L3.09998 8.6L2.29998 10.6H3.89998ZM22 9.8C21.8 9.9 21.6 9.9 21.4 9.9H20V8.8H21.5C21.7 8.8 21.9 8.8 22.1 8.9C22.3 9 22.4 9.1 22.4 9.3C22.3 9.5 22.2 9.7 22 9.8ZM32.4 10.6L31.6 8.6L30.8 10.6H32.4ZM13 12.8H11.8V8.8L10.1 12.8H8.99998L7.29998 8.8V12.8H4.79998L4.39998 11.7H1.89998L1.39998 12.8H0.0999756L2.19998 7.7H3.99998L5.99998 12.5V7.7H7.99998L9.59998 11.1L11 7.7H13V12.8ZM17.9 12.8H13.9V7.7H17.9V8.8H15.1V9.7H17.8V10.7H15.1V11.7H17.9V12.8ZM23.6 9.1C23.6 9.9 23.1 10.3 22.8 10.4C23.1 10.5 23.3 10.7 23.4 10.8C23.6 11.1 23.6 11.3 23.6 11.7V12.7H22.4V12.1C22.4 11.8 22.4 11.4 22.2 11.1C22 10.9 21.8 10.9 21.3 10.9H20V12.7H18.8V7.7H21.6C22.2 7.7 22.7 7.7 23.1 7.9C23.4 8.2 23.6 8.5 23.6 9.1ZM25.5 12.8H24.3V7.7H25.5V12.8ZM39.7 12.8H38L35.7 9V12.8H33.3L32.8 11.7H30.3L29.8 12.8H28.4C27.8 12.8 27.1 12.7 26.7 12.2C26.3 11.8 26.1 11.2 26.1 10.3C26.1 9.5 26.2 8.9 26.7 8.3C27.1 7.9 27.7 7.7 28.5 7.7H29.7V8.8H28.6C28.2 8.8 27.9 8.9 27.7 9.1C27.5 9.3 27.4 9.7 27.4 10.2C27.4 10.7 27.5 11.1 27.7 11.4C27.9 11.6 28.2 11.7 28.5 11.7H29L30.7 7.7H32.5L34.5 12.5V7.7H36.3L38.4 11.2V7.7H39.6L39.7 12.8ZM0.0999756 13.8H2.09998L2.59998 12.7H3.59998L4.09998 13.8H8.09998V12.9L8.49998 13.8H10.6L11 12.9V13.8H21V12H21.2C21.3 12 21.4 12 21.4 12.2V13.8H26.6V13.4C27 13.6 27.7 13.8 28.5 13.8H30.7L31.2 12.7H32.2L32.7 13.8H36.9V12.7L37.5 13.8H40.9V6.7H37.6V7.6L37 6.7H33.6V7.6L33.2 6.8H28.6C27.8 6.8 27.1 6.9 26.6 7.2V6.7H23.4V7.1C23 6.8 22.5 6.7 22 6.7H10.3L9.59998 8.5L8.79998 6.7H5.09998V7.6L4.69998 6.7H1.59998L0.0999756 10.1V13.8Z" fill="white"/>
<path d="M42.8 17.5H40.6C40.4 17.5 40.2 17.5 40.1 17.6C40 17.7 39.9 17.8 39.9 18C39.9 18.2 40 18.3 40.2 18.4C40.3 18.4 40.5 18.5 40.7 18.5H41.3C42 18.5 42.4 18.6 42.7 18.9L42.8 19V17.5ZM42.8 20.9C42.5 21.3 41.9 21.5 41.2 21.5H38.9V20.4H41.2C41.4 20.4 41.6 20.4 41.7 20.3C41.8 20.2 41.8 20.1 41.8 20C41.8 19.9 41.7 19.7 41.7 19.7C41.6 19.6 41.5 19.6 41.3 19.6C40.2 19.6 38.8 19.6 38.8 18C38.8 17.3 39.3 16.5 40.5 16.5H42.9V15.5H40.7C40 15.5 39.5 15.7 39.2 15.9V15.4H35.9C35.4 15.4 34.8 15.5 34.5 15.8V15.4H28.6V15.8C28.1 15.5 27.3 15.4 27 15.4H23V15.8C22.6 15.4 21.8 15.4 21.3 15.4H17L16 16.5L15.1 15.4H8.59998V22.5H14.9L15.9 21.4L16.9 22.5H20.8V20.8H21.2C21.7 20.8 22.3 20.8 22.9 20.6V22.5H26.1V20.7H26.3C26.5 20.7 26.5 20.7 26.5 20.9V22.5H36.3C36.9 22.5 37.6 22.3 37.9 22V22.5H41C41.6 22.5 42.3 22.4 42.8 22.2V20.9ZM38 18.8C38.2 19 38.4 19.4 38.4 19.9C38.4 21 37.7 21.5 36.5 21.5H34.2V20.4H36.5C36.7 20.4 36.9 20.4 37 20.3C37.1 20.2 37.1 20.1 37.1 20C37.1 19.9 37 19.7 37 19.7C36.9 19.6 36.8 19.6 36.6 19.6C35.5 19.6 34.1 19.6 34.1 18C34.1 17.3 34.6 16.5 35.8 16.5H38.2V17.6H36C35.8 17.6 35.6 17.6 35.5 17.7C35.4 17.8 35.3 17.9 35.3 18.1C35.3 18.3 35.4 18.4 35.6 18.5C35.7 18.5 35.9 18.6 36.1 18.6H36.7C37.3 18.4 37.7 18.6 38 18.8ZM27.2 18.5C27 18.6 26.8 18.6 26.6 18.6H25.1V17.5H26.6C26.8 17.5 27 17.5 27.2 17.6C27.4 17.7 27.4 17.8 27.4 18.1C27.4 18.3 27.3 18.4 27.2 18.5ZM27.9 19.1C28.2 19.2 28.4 19.4 28.5 19.5C28.7 19.7 28.7 20 28.7 20.4V21.4H27.5V20.8C27.5 20.5 27.5 20 27.3 19.8C27.1 19.6 26.9 19.6 26.4 19.6H25.1V21.4H23.9V16.4H26.7C27.3 16.4 27.7 16.4 28.1 16.6C28.5 16.8 28.7 17.1 28.7 17.7C28.7 18.6 28.2 19 27.9 19.1ZM29.4 16.4H33.4V17.4H30.6V18.3H33.3V19.3H30.6V20.3H33.4V21.4H29.4V16.4ZM21.3 18.8H19.8V17.5H21.4C21.8 17.5 22.1 17.7 22.1 18.1C22.1 18.5 21.8 18.8 21.3 18.8ZM18.6 21L16.8 18.9L18.6 16.9V21ZM13.8 20.4H10.9V19.4H13.5V18.4H10.9V17.5H13.9L15.2 19L13.8 20.4ZM23.3 18.1C23.3 19.5 22.3 19.8 21.2 19.8H19.7V21.5H17.4L16 19.8L14.5 21.5H9.69998V16.4H14.5L16 18.1L17.5 16.4H21.3C22.3 16.4 23.3 16.7 23.3 18.1Z" fill="white"/>
<defs>
<radialGradient id="paint0_radial" cx="0" cy="0" r="1" gradientUnits="userSpaceOnUse" gradientTransform="translate(5.32263 5.25082) scale(40.3067)">
<stop stop-color="#9DD5F6"/>
<stop offset="0.0711" stop-color="#98D3F5"/>
<stop offset="0.1575" stop-color="#89CEF3"/>
<stop offset="0.2516" stop-color="#70C6EF"/>
<stop offset="0.3514" stop-color="#4EBBEA"/>
<stop offset="0.4546" stop-color="#23ADE3"/>
<stop offset="0.5" stop-color="#0DA6E0"/>
<stop offset="1" stop-color="#2E77BC"/>
</radialGradient>
</defs>
</svg>
