<svg width="36" height="36" viewBox="0 0 36 36" fill="none" xmlns="http://www.w3.org/2000/svg">
<g filter="url(#filter0_d)">
<path d="M32 14C32 6.26801 25.732 0 18 0C10.268 0 4 6.26801 4 14C4 21.732 10.268 28 18 28C25.732 28 32 21.732 32 14Z" fill="#D3D6FF"/>
<ellipse cx="18.5625" cy="12.3125" rx="2.8125" ry="3.9375" fill="#FF6F6F"/>
<path d="M17.9996 6.12479C16.3591 6.12674 14.7865 6.77926 13.6265 7.93922C12.4665 9.09918 11.814 10.6719 11.8121 12.3123C11.8121 17.6066 17.4371 21.6056 17.6766 21.7732C17.7713 21.8393 17.884 21.8748 17.9996 21.8748C18.1151 21.8748 18.2279 21.8393 18.3226 21.7732C18.5621 21.6056 24.1871 17.6066 24.1871 12.3123C24.1851 10.6719 23.5326 9.09918 22.3726 7.93922C21.2127 6.77926 19.64 6.12674 17.9996 6.12479V6.12479ZM18 10.0625C18.445 10.0625 18.88 10.1945 19.25 10.4417C19.62 10.6889 19.9084 11.0403 20.0787 11.4515C20.249 11.8626 20.2936 12.315 20.2068 12.7515C20.1199 13.1879 19.9057 13.5888 19.591 13.9035C19.2763 14.2182 18.8754 14.4324 18.4389 14.5193C18.0025 14.6061 17.5501 14.5615 17.139 14.3912C16.7278 14.2209 16.3764 13.9325 16.1292 13.5625C15.882 13.1925 15.75 12.7575 15.75 12.3125C15.75 11.7158 15.987 11.1435 16.409 10.7215C16.831 10.2996 17.4033 10.0625 18 10.0625V10.0625Z" fill="#746BD8"/>
</g>
<defs>
<filter id="filter0_d" x="0" y="0" width="36" height="36" filterUnits="userSpaceOnUse" color-interpolation-filters="sRGB">
<feFlood flood-opacity="0" result="BackgroundImageFix"/>
<feColorMatrix in="SourceAlpha" type="matrix" values="0 0 0 0 0 0 0 0 0 0 0 0 0 0 0 0 0 0 127 0"/>
<feOffset dy="4"/>
<feGaussianBlur stdDeviation="2"/>
<feColorMatrix type="matrix" values="0 0 0 0 0 0 0 0 0 0 0 0 0 0 0 0 0 0 0.08 0"/>
<feBlend mode="normal" in2="BackgroundImageFix" result="effect1_dropShadow"/>
<feBlend mode="normal" in="SourceGraphic" in2="effect1_dropShadow" result="shape"/>
</filter>
</defs>
</svg>
