<svg width="30" height="30" viewBox="0 0 30 30" fill="none" xmlns="http://www.w3.org/2000/svg">
<circle cx="15" cy="15" r="15" fill="#D2DAEF"/>
<path d="M15 5.25C12.4141 5.25 9.93419 6.27723 8.10571 8.10571C6.27723 9.93419 5.25 12.4141 5.25 15C5.25 17.5859 6.27723 20.0658 8.10571 21.8943C9.93419 23.7228 12.4141 24.75 15 24.75C17.5859 24.75 20.0658 23.7228 21.8943 21.8943C23.7228 20.0658 24.75 17.5859 24.75 15C24.75 14.4583 24.7067 13.9167 24.6092 13.375C24.3167 12.8333 23.6667 12.8333 23.6667 12.8333H21.5V11.75C21.5 10.6667 20.4167 10.6667 20.4167 10.6667H18.25V9.58333C18.25 8.5 17.1667 8.5 17.1667 8.5H16.0833V6.33333C16.0833 5.25 15 5.25 15 5.25ZM12.2917 8.5C12.7226 8.5 13.136 8.6712 13.4407 8.97595C13.7455 9.2807 13.9167 9.69402 13.9167 10.125C13.9167 10.556 13.7455 10.9693 13.4407 11.274C13.136 11.5788 12.7226 11.75 12.2917 11.75C11.8607 11.75 11.4474 11.5788 11.1426 11.274C10.8379 10.9693 10.6667 10.556 10.6667 10.125C10.6667 9.69402 10.8379 9.2807 11.1426 8.97595C11.4474 8.6712 11.8607 8.5 12.2917 8.5ZM9.04167 12.8333C9.47264 12.8333 9.88597 13.0045 10.1907 13.3093C10.4955 13.614 10.6667 14.0274 10.6667 14.4583C10.6667 14.8893 10.4955 15.3026 10.1907 15.6074C9.88597 15.9121 9.47264 16.0833 9.04167 16.0833C8.61069 16.0833 8.19736 15.9121 7.89262 15.6074C7.58787 15.3026 7.41667 14.8893 7.41667 14.4583C7.41667 14.0274 7.58787 13.614 7.89262 13.3093C8.19736 13.0045 8.61069 12.8333 9.04167 12.8333V12.8333ZM14.4583 13.9167C14.8893 13.9167 15.3026 14.0879 15.6074 14.3926C15.9121 14.6974 16.0833 15.1107 16.0833 15.5417C16.0833 15.9726 15.9121 16.386 15.6074 16.6907C15.3026 16.9955 14.8893 17.1667 14.4583 17.1667C14.0274 17.1667 13.614 16.9955 13.3093 16.6907C13.0045 16.386 12.8333 15.9726 12.8333 15.5417C12.8333 15.1107 13.0045 14.6974 13.3093 14.3926C13.614 14.0879 14.0274 13.9167 14.4583 13.9167V13.9167ZM19.875 16.0833C20.306 16.0833 20.7193 16.2545 21.024 16.5593C21.3288 16.864 21.5 17.2774 21.5 17.7083C21.5 18.1393 21.3288 18.5526 21.024 18.8574C20.7193 19.1621 20.306 19.3333 19.875 19.3333C19.444 19.3333 19.0307 19.1621 18.726 18.8574C18.4212 18.5526 18.25 18.1393 18.25 17.7083C18.25 17.2774 18.4212 16.864 18.726 16.5593C19.0307 16.2545 19.444 16.0833 19.875 16.0833ZM13.9167 19.3333C14.3476 19.3333 14.761 19.5045 15.0657 19.8093C15.3705 20.114 15.5417 20.5274 15.5417 20.9583C15.5417 21.3893 15.3705 21.8026 15.0657 22.1074C14.761 22.4121 14.3476 22.5833 13.9167 22.5833C13.4857 22.5833 13.0724 22.4121 12.7676 22.1074C12.4629 21.8026 12.2917 21.3893 12.2917 20.9583C12.2917 20.5274 12.4629 20.114 12.7676 19.8093C13.0724 19.5045 13.4857 19.3333 13.9167 19.3333V19.3333Z" fill="#5B6C99"/>
</svg>
