<svg width="36" height="36" viewBox="0 0 36 36" fill="none" xmlns="http://www.w3.org/2000/svg">
<g filter="url(#filter0_d)">
<rect x="4" width="28" height="28" rx="14" fill="#9DEEE9" fill-opacity="0.65"/>
<path d="M12.9313 10.5812C12.7844 10.6156 12.8781 10.6094 12.7562 10.625C12.2344 10.7375 12.6219 10.8375 12.9313 10.5812ZM22.1094 10.7906C22.1469 10.7656 22.2781 10.6375 21.8687 10.5125C21.8937 10.6406 21.7844 10.6281 21.7844 10.7C22.0875 10.975 22.2125 11.4531 22.6 11.5531C22.675 11.2094 22.2563 11.0406 22.1094 10.7906ZM12.6531 10.4813C12.7 10.7594 12.9094 10.1875 12.9125 9.98438C12.8312 10.0312 12.75 10.0781 12.6656 10.1156C12.8625 10.2156 12.6906 10.3219 12.4781 10.4813C12.0469 11.0188 12.8813 10.0625 12.6531 10.4813ZM18 7C13.5813 7 10 10.5813 10 15C10 19.4156 13.5813 23 18 23C22.4187 23 26 19.4156 26 15C26 10.5813 22.4187 7 18 7ZM18.2125 9.68125L18.25 9.69375C18.1 9.8875 19.0312 10.4531 18.3625 10.5C17.7375 10.6781 18.625 10.3375 18.1406 10.3969C18.3969 10.0406 17.9375 10.0344 18.2125 9.68125ZM14.4187 10.1937C14.1937 10.0062 13.4875 10.45 13.7344 10.3438C14.3469 10.1031 13.775 10.3688 13.9188 10.6562C13.7875 10.9281 13.875 10.3875 13.55 10.7094C13.3156 10.7625 12.7406 11.2937 12.8125 11.1312C12.7938 11.3844 12.1281 11.6844 12.0375 12.1062C11.8187 12.6906 11.9844 12.0844 11.9438 11.8562C11.6313 11.4594 11.0625 12.5281 11.2313 12.95C11.5156 12.45 11.4937 12.8969 11.2875 13.1188C11.4969 13.5031 11.0969 14.0031 11.4937 14.2875C11.6687 14.3281 12.0187 13.7 11.8656 14.3531C11.9719 13.7875 12.1594 14.4875 12.4625 14.3313C12.4813 14.6281 12.6656 14.4906 12.7062 14.85C13.2125 14.8125 13.675 15.6687 13.0719 15.8313C13.1625 15.8063 13.3406 15.9656 13.5469 15.8438C13.8969 16.1219 14.8187 16.1562 14.8438 16.8438C14.2094 17.1469 14.6875 17.9781 14.1375 18.275C13.5062 18.1812 13.9219 19.0531 13.6562 18.9531C13.7625 19.5813 13.0188 18.8719 13.3063 19.2188C13.8344 19.5437 13.075 19.4781 13.3125 19.7156C13.0469 19.6594 13.4781 20.2094 13.55 20.4125C13.9312 21.0312 13.2219 20.275 13.0125 20.0688C12.8125 19.6688 12.3406 18.9031 12.2094 18.275C12.1344 17.3625 11.4281 16.75 11.2656 15.8594C11.1031 15.3625 11.7125 14.5656 11.3844 14.2875C11.1 14.0656 11.2156 13.3063 11.0469 12.9062C11.4688 11.0781 12.8094 9.5375 14.4187 8.625C14.2531 8.74688 15.3656 8.30937 15.2375 8.41562C15.2031 8.49375 15.8875 8.11875 16.3 8.0625C16.2563 8.06875 15.2281 8.4375 15.5125 8.3875C15.0719 8.60313 15.4688 8.48125 15.6875 8.37188C15.25 8.69375 14.9125 8.60313 14.4156 8.8875C13.9156 9.01875 14.0187 9.5375 13.6625 9.79688C13.8719 9.83437 14.3969 9.25625 14.7031 9.05312C15.4062 8.7125 14.3469 9.67188 15.0156 9.25938C14.7906 9.46875 14.8375 9.80312 14.7 9.89687C14.6312 9.87812 14.9719 10.0594 14.4187 10.1937ZM15.5125 8.75625C15.4406 8.85312 15.3406 9.0625 15.2812 8.93438C15.2 8.975 15.1687 9.15 15.0156 9.00938C15.1062 8.94375 15.2 8.7875 15.0219 8.88437C15.1031 8.79688 15.8281 8.55 15.7875 8.45625C15.9156 8.375 15.9031 8.33438 15.7562 8.38437C15.6813 8.35938 15.9344 8.14688 16.2719 8.11875C16.3187 8.11875 16.3375 8.15 16.2531 8.14062C15.7438 8.29688 15.9625 8.25312 16.3063 8.14062C16.175 8.21563 16.0844 8.2375 16.0625 8.27188C16.4062 8.14688 16.0437 8.3625 16.1219 8.34687C16.025 8.39687 16.1375 8.4125 15.95 8.48438C15.9844 8.45625 15.6438 8.6875 15.8469 8.61875C15.65 8.80625 15.5625 8.80938 15.5125 8.75625ZM15.8125 9.20312C15.8187 8.90313 16.25 8.7125 16.1969 8.69687C16.7281 8.44687 16.0125 8.70625 16.4313 8.48125C16.5875 8.46563 16.9188 7.96562 17.3781 7.93437C17.8844 7.78125 17.65 7.94375 18.025 7.8L17.95 7.8625C17.8844 7.87187 17.9656 7.9875 17.7281 8.1625C17.7031 8.43438 17.275 8.30938 17.4875 8.6C17.35 8.40313 17.1437 8.59375 17.4031 8.6125C17.125 8.825 16.4781 8.8625 16.1687 9.21563C15.9688 9.50312 15.7844 9.4125 15.8125 9.20312ZM18.0344 10.2031C17.8219 10.7156 17.6156 10.1281 17.9906 10.0344C18.0844 10.0844 18.1219 10.1 18.0344 10.2031ZM17.2344 9.17812C17.1719 8.94687 17.2219 9.06875 17.5938 8.95938C17.85 9.14375 17.3656 9.26562 17.2344 9.17812ZM23.0531 18.35C22.7594 17.8438 23.4094 17.375 23.6281 16.95C23.6 17.4469 23.5375 17.9375 23.0531 18.35ZM24.1594 12.5656C23.8406 12.5906 23.5531 12.6656 23.2656 12.4844C22.6031 11.7594 23.3875 13.3031 23.6062 12.6719C24.3938 12.9719 23.5938 14.2656 23.0969 14.1312C22.8188 13.5312 22.475 12.8719 21.8687 12.5781C22.3344 13.0938 22.5656 13.7281 23.0656 14.1937C23.1 14.8438 23.7594 13.9562 23.7188 14.4594C23.7812 15.325 22.7406 15.8438 22.9219 16.7125C23.3094 17.5031 22.175 17.6469 22.3031 18.3562C21.8469 18.8656 21.3594 19.5531 20.5406 19.4438C20.5406 19.0125 20.3219 18.6469 20.2719 18.2031C19.8281 17.6406 20.7406 17.0375 20.175 16.45C19.5219 16.3031 20.3094 15.4031 19.6375 15.4875C19.2344 15.0844 18.6438 15.475 18.0656 15.4781C17.3406 15.5469 16.5938 14.5875 16.9156 13.9094C16.6594 13.2031 17.7281 12.9969 17.7562 12.375C18.2688 11.9469 18.9969 12 19.6906 11.9C19.6406 12.3969 20.1656 12.4 20.5625 12.5656C20.7844 12.0281 21.475 12.6531 21.9469 12.3125C22.1094 11.5188 21.4875 11.9969 21.1313 11.7438C20.7 11.1125 22.0531 11.4188 21.9125 11.0875C21.3875 11.0844 21.6844 10.4406 21.3125 10.8C21.6469 10.8594 21.2531 11.1219 21.2625 10.8219C20.7562 10.675 21.2438 11.3969 20.9875 11.4656C20.5969 11.3031 20.7812 11.65 20.8219 11.7031C20.6531 12.0687 20.4469 11.1656 19.9688 11.1906C19.4937 10.7563 19.7812 11.3875 20.1938 11.4906C20.1063 11.5156 20.2437 11.875 20.1344 11.7219C19.7937 11.2531 19.1469 10.9406 18.7625 11.5156C18.7219 12.0531 17.6281 12.2063 17.8031 11.5781C17.5469 10.9281 18.5969 11.5594 18.5 11.0406C17.825 10.5938 18.6844 10.7375 18.9125 10.3187C19.4313 10.3344 18.9344 9.89375 19.1781 9.76562C19.1531 10.2438 19.575 10.1531 19.9094 10.0625C19.8281 9.7875 20.1094 9.79688 19.9375 9.56875C20.7125 9.25937 19.3469 9.7125 19.6219 9.03437C19.2875 8.80312 19.4812 9.54375 19.6219 9.62188C19.6312 9.85 19.4375 10.1313 19.1719 9.65313C18.7844 9.90625 18.825 9.39688 18.8 9.45C18.7563 9.25312 19.0938 9.24375 19.0969 8.9C19.0688 8.68125 19.075 8.56563 19.2312 8.55313C19.2437 8.58438 19.8719 8.59375 20.0938 8.85312C19.4875 8.73125 20.0031 8.95312 20.275 9.07812C19.9844 8.85 20.3906 9.07812 20.1531 8.81875C20.2469 8.8375 19.8938 8.4625 20.2563 8.79062C20.0594 8.55625 20.6406 8.625 20.2969 8.45C20.8 8.59063 20.5031 8.4625 20.2063 8.33438C19.3875 7.84688 21.6531 8.99375 20.7281 8.48438C21.3187 8.6125 19.4656 8.02812 20.3094 8.28437C19.9875 8.14375 20.3 8.22187 20.5906 8.3125C20.0687 8.15 19.2875 7.84688 19.3188 7.83438C19.5 7.84688 19.6781 7.8875 19.85 7.9375C20.3844 8.09687 19.6969 7.9 19.8438 7.90312C21.6812 8.375 23.2906 9.60625 24.2688 11.2156C24.4969 11.4562 25.1187 13.0469 24.7937 12.3406C24.9406 12.9031 24.9625 13.5094 25.0406 14.0844C24.8781 13.9031 24.6969 13.2344 24.5406 12.8625C24.475 13.0063 24.4 12.6594 24.1594 12.5656Z" fill="#31A0D6"/>
</g>
<defs>
<filter id="filter0_d" x="0" y="0" width="36" height="36" filterUnits="userSpaceOnUse" color-interpolation-filters="sRGB">
<feFlood flood-opacity="0" result="BackgroundImageFix"/>
<feColorMatrix in="SourceAlpha" type="matrix" values="0 0 0 0 0 0 0 0 0 0 0 0 0 0 0 0 0 0 127 0"/>
<feOffset dy="4"/>
<feGaussianBlur stdDeviation="2"/>
<feColorMatrix type="matrix" values="0 0 0 0 0 0 0 0 0 0 0 0 0 0 0 0 0 0 0.08 0"/>
<feBlend mode="normal" in2="BackgroundImageFix" result="effect1_dropShadow"/>
<feBlend mode="normal" in="SourceGraphic" in2="effect1_dropShadow" result="shape"/>
</filter>
</defs>
</svg>
