<svg width="36" height="36" viewBox="0 0 36 36" fill="none" xmlns="http://www.w3.org/2000/svg">
<g filter="url(#filter0_d)">
<path d="M32 14C32 6.26801 25.732 0 18 0C10.268 0 4 6.26801 4 14C4 21.732 10.268 28 18 28C25.732 28 32 21.732 32 14Z" fill="#D3D6FF"/>
</g>
<path d="M24.1875 10.0977C24.1206 10.0977 24.0538 10.1 23.9873 10.1048C23.7869 9.46576 23.4103 8.88923 22.8967 8.44577C22.2062 7.84962 21.3122 7.53508 20.3976 7.5689C19.5011 5.99703 17.8253 5 16.0312 5C13.7777 5 11.7835 6.54888 11.1849 8.72175C9.88784 9.29831 9.03516 10.5935 9.03516 12.0312C9.03516 13.4331 9.83584 14.6513 11.0039 15.2528V13.9297C11.0039 13.0574 11.7136 12.3477 12.5859 12.3477H23.4141C24.2864 12.3477 24.9961 13.0574 24.9961 13.9297V15.5317C26.1343 15.1846 26.9648 14.1253 26.9648 12.875C26.9648 11.3436 25.7189 10.0977 24.1875 10.0977V10.0977Z" fill="#4EBBEA"/>
<path d="M23.4141 13.4023H12.5859C12.2947 13.4023 12.0586 13.6385 12.0586 13.9297V17.6543H23.9414V13.9297C23.9414 13.6385 23.7053 13.4023 23.4141 13.4023ZM16.5802 16.1094H13.7812C13.49 16.1094 13.2539 15.8733 13.2539 15.582C13.2539 15.2908 13.49 15.0547 13.7812 15.0547H16.5802C16.8714 15.0547 17.1076 15.2908 17.1076 15.582C17.1076 15.8733 16.8714 16.1094 16.5802 16.1094ZM19.9688 16.1043C19.6775 16.1043 19.4414 15.8682 19.4414 15.577C19.4414 15.2857 19.6775 15.0496 19.9688 15.0496C20.2599 15.0496 20.4961 15.2857 20.4961 15.577C20.4961 15.8682 20.2599 16.1043 19.9688 16.1043ZM22.2188 16.1043C21.9275 16.1043 21.6914 15.8682 21.6914 15.577C21.6914 15.2857 21.9275 15.0496 22.2188 15.0496C22.5099 15.0496 22.7461 15.2857 22.7461 15.577C22.7461 15.8682 22.5099 16.1043 22.2188 16.1043Z" fill="#746BD8"/>
<path d="M12.0586 22.4727C12.0586 22.7639 12.2947 23 12.5859 23H23.4141C23.7053 23 23.9414 22.7639 23.9414 22.4727V18.709H12.0586V22.4727ZM22.2188 20.1875C22.5099 20.1875 22.7461 20.4236 22.7461 20.7148C22.7461 21.0061 22.5099 21.2422 22.2188 21.2422C21.9275 21.2422 21.6914 21.0061 21.6914 20.7148C21.6914 20.4236 21.9275 20.1875 22.2188 20.1875ZM19.9688 20.1875C20.2599 20.1875 20.4961 20.4236 20.4961 20.7148C20.4961 21.0061 20.2599 21.2422 19.9688 21.2422C19.6775 21.2422 19.4414 21.0061 19.4414 20.7148C19.4414 20.4236 19.6775 20.1875 19.9688 20.1875ZM13.7812 20.1875H16.5802C16.8714 20.1875 17.1076 20.4236 17.1076 20.7148C17.1076 21.0061 16.8714 21.2422 16.5802 21.2422H13.7812C13.49 21.2422 13.2539 21.0061 13.2539 20.7148C13.2539 20.4236 13.49 20.1875 13.7812 20.1875Z" fill="#746BD8"/>
<defs>
<filter id="filter0_d" x="0" y="0" width="36" height="36" filterUnits="userSpaceOnUse" color-interpolation-filters="sRGB">
<feFlood flood-opacity="0" result="BackgroundImageFix"/>
<feColorMatrix in="SourceAlpha" type="matrix" values="0 0 0 0 0 0 0 0 0 0 0 0 0 0 0 0 0 0 127 0"/>
<feOffset dy="4"/>
<feGaussianBlur stdDeviation="2"/>
<feColorMatrix type="matrix" values="0 0 0 0 0 0 0 0 0 0 0 0 0 0 0 0 0 0 0.08 0"/>
<feBlend mode="normal" in2="BackgroundImageFix" result="effect1_dropShadow"/>
<feBlend mode="normal" in="SourceGraphic" in2="effect1_dropShadow" result="shape"/>
</filter>
</defs>
</svg>
