<svg width="36" height="36" viewBox="0 0 36 36" fill="none" xmlns="http://www.w3.org/2000/svg">
<g filter="url(#filter0_d)">
<path d="M32 14C32 6.26801 25.732 0 18 0C10.268 0 4 6.26801 4 14C4 21.732 10.268 28 18 28C25.732 28 32 21.732 32 14Z" fill="#9DEEE9" fill-opacity="0.65"/>
</g>
<path d="M13.7812 12.3828C12.9089 12.3828 12.1992 13.0925 12.1992 13.9648V18.2539C12.1992 19.1263 12.9089 19.8359 13.7812 19.8359C14.6536 19.8359 15.3633 19.1263 15.3633 18.2539V13.9648C15.3633 13.0925 14.6536 12.3828 13.7812 12.3828Z" fill="#31A0D6"/>
<path d="M11.1445 13.9648C11.1445 13.8127 11.1646 13.6658 11.1895 13.5207C10.5539 13.7261 10.0898 14.3164 10.0898 15.0195V17.1992C10.0898 17.9023 10.5539 18.4927 11.1895 18.6981C11.1646 18.553 11.1445 18.406 11.1445 18.2539V13.9648Z" fill="#F79E1B"/>
<path d="M22.2188 12.3828C21.3464 12.3828 20.6367 13.0925 20.6367 13.9648V18.2539C20.6367 19.1263 21.3464 19.8359 22.2188 19.8359C22.3773 19.8359 22.5275 19.8054 22.672 19.7618C22.4757 20.4125 21.8779 20.8906 21.1641 20.8906H19.4849C19.2665 20.2781 18.6866 19.8359 18 19.8359C17.1276 19.8359 16.418 20.5456 16.418 21.418C16.418 22.2903 17.1276 23 18 23C18.6866 23 19.2665 22.5578 19.4849 21.9453H21.1641C22.6179 21.9453 23.8008 20.7624 23.8008 19.3086V18.2539V13.9648C23.8008 13.0925 23.0911 12.3828 22.2188 12.3828Z" fill="#31A0D6"/>
<path d="M24.8105 13.5207C24.8354 13.6658 24.8555 13.8127 24.8555 13.9648V18.2539C24.8555 18.406 24.8354 18.553 24.8105 18.6981C25.4461 18.4927 25.9102 17.9023 25.9102 17.1992V15.0195C25.9102 14.3164 25.4461 13.7261 24.8105 13.5207Z" fill="#F79E1B"/>
<path d="M18 5C13.6381 5 10.0898 8.54825 10.0898 12.9102V12.9236C10.404 12.6858 10.7676 12.5117 11.1687 12.4338C11.4152 8.87601 14.3808 6.05469 18 6.05469C21.6192 6.05469 24.5848 8.87601 24.8313 12.4337C25.2324 12.5117 25.5959 12.6858 25.9102 12.9236V12.9102C25.9102 8.54825 22.3619 5 18 5Z" fill="#746BD8"/>
<defs>
<filter id="filter0_d" x="0" y="0" width="36" height="36" filterUnits="userSpaceOnUse" color-interpolation-filters="sRGB">
<feFlood flood-opacity="0" result="BackgroundImageFix"/>
<feColorMatrix in="SourceAlpha" type="matrix" values="0 0 0 0 0 0 0 0 0 0 0 0 0 0 0 0 0 0 127 0"/>
<feOffset dy="4"/>
<feGaussianBlur stdDeviation="2"/>
<feColorMatrix type="matrix" values="0 0 0 0 0 0 0 0 0 0 0 0 0 0 0 0 0 0 0.08 0"/>
<feBlend mode="normal" in2="BackgroundImageFix" result="effect1_dropShadow"/>
<feBlend mode="normal" in="SourceGraphic" in2="effect1_dropShadow" result="shape"/>
</filter>
</defs>
</svg>
