<svg width="36" height="36" viewBox="0 0 36 36" fill="none" xmlns="http://www.w3.org/2000/svg">
<g filter="url(#filter0_d)">
<path d="M32 14C32 6.26801 25.732 0 18 0C10.268 0 4 6.26801 4 14C4 21.732 10.268 28 18 28C25.732 28 32 21.732 32 14Z" fill="#D3D6FF"/>
</g>
<path d="M18 20.0469C16.1596 20.0469 14.0839 19.6387 12.4478 18.957C11.8477 18.7043 11.3337 18.2954 10.9136 17.9727C10.8927 17.9567 10.8678 17.9469 10.8417 17.9444C10.8156 17.9419 10.7893 17.9467 10.7658 17.9583C10.7423 17.9699 10.7225 17.9879 10.7086 18.0102C10.6948 18.0325 10.6875 18.0582 10.6875 18.0845V18.5267C10.6875 19.5136 11.5133 20.3977 13.0127 21.0165C14.3539 21.5702 16.1251 21.875 18 21.875C19.8749 21.875 21.6457 21.5702 22.9873 21.0165C24.4867 20.3984 25.3125 19.5136 25.3125 18.5267V18.0845C25.3125 18.0582 25.3052 18.0325 25.2914 18.0102C25.2775 17.9879 25.2577 17.9699 25.2342 17.9583C25.2107 17.9467 25.1844 17.9419 25.1583 17.9444C25.1322 17.9469 25.1073 17.9567 25.0864 17.9727C24.6663 18.295 24.1523 18.7043 23.5519 18.957C21.9157 19.6387 19.8404 20.0469 18 20.0469Z" fill="#746BD8"/>
<path d="M25.3125 9.44762C25.284 8.47555 24.4624 7.60543 22.9922 6.99195C21.6471 6.43297 19.8752 6.125 18 6.125C16.1248 6.125 14.3529 6.43297 13.011 6.99195C11.5421 7.60402 10.7205 8.47238 10.6907 9.44199L10.6875 10.0625C10.6875 10.2879 10.8703 10.6419 11.2018 10.9319C11.5931 11.274 12.1739 11.6115 12.8816 11.9068C14.3873 12.5361 16.3009 12.9102 18 12.9102C19.6991 12.9102 21.6127 12.5347 23.1184 11.9054C23.8261 11.6101 24.4069 11.2726 24.7982 10.9305C25.1297 10.6422 25.3125 10.2882 25.3125 10.0625V9.44762Z" fill="#746BD8"/>
<path d="M23.5519 12.9453C21.9161 13.6284 19.8404 14.0352 18 14.0352C16.1596 14.0352 14.084 13.6284 12.4478 12.9453C11.8477 12.6939 11.3337 12.2847 10.9136 11.9609C10.8926 11.9449 10.8676 11.9351 10.8414 11.9326C10.8151 11.9301 10.7887 11.9351 10.7652 11.9469C10.7416 11.9587 10.7218 11.9769 10.7081 11.9994C10.6944 12.0219 10.6872 12.0478 10.6875 12.0741V13.1562C10.6875 13.3816 10.8703 13.6653 11.2018 13.9554C11.5931 14.2978 12.1739 14.6349 12.8816 14.9306C14.3874 15.5588 16.3009 15.9336 18 15.9336C19.6991 15.9336 21.6127 15.5581 23.1184 14.9292C23.8261 14.6335 24.4069 14.2964 24.7982 13.9539C25.1297 13.665 25.3125 13.3816 25.3125 13.1562V12.0741C25.3125 12.0479 25.3052 12.0222 25.2914 11.9999C25.2775 11.9776 25.2577 11.9596 25.2342 11.948C25.2107 11.9364 25.1844 11.9315 25.1583 11.9341C25.1322 11.9366 25.1073 11.9464 25.0865 11.9623C24.6663 12.2847 24.1524 12.6939 23.5519 12.9453Z" fill="#746BD8"/>
<path d="M23.5519 15.9688C21.9157 16.6511 19.8404 17.0586 18 17.0586C16.1596 17.0586 14.0839 16.6511 12.4478 15.9688C11.8477 15.7167 11.3337 15.3075 10.9136 14.9844C10.8927 14.9684 10.8677 14.9586 10.8415 14.9561C10.8154 14.9536 10.789 14.9585 10.7655 14.9702C10.7419 14.9819 10.7221 15 10.7084 15.0224C10.6946 15.0448 10.6874 15.0706 10.6875 15.0969V16.1445C10.6875 16.3699 10.8703 16.6532 11.2015 16.9429C11.5928 17.2854 12.1739 17.6225 12.8816 17.9182C14.3873 18.5464 16.3005 18.9219 18 18.9219C19.6995 18.9219 21.6127 18.5464 23.1184 17.9175C23.8261 17.6218 24.4069 17.2847 24.7982 16.9422C25.1297 16.6522 25.3125 16.3685 25.3125 16.1445V15.0969C25.3125 15.0706 25.3052 15.0449 25.2914 15.0226C25.2775 15.0003 25.2577 14.9824 25.2342 14.9707C25.2107 14.9591 25.1844 14.9543 25.1583 14.9568C25.1322 14.9594 25.1073 14.9691 25.0864 14.9851C24.6663 15.3075 24.1523 15.7167 23.5519 15.9688Z" fill="#746BD8"/>
<defs>
<filter id="filter0_d" x="0" y="0" width="36" height="36" filterUnits="userSpaceOnUse" color-interpolation-filters="sRGB">
<feFlood flood-opacity="0" result="BackgroundImageFix"/>
<feColorMatrix in="SourceAlpha" type="matrix" values="0 0 0 0 0 0 0 0 0 0 0 0 0 0 0 0 0 0 127 0"/>
<feOffset dy="4"/>
<feGaussianBlur stdDeviation="2"/>
<feColorMatrix type="matrix" values="0 0 0 0 0 0 0 0 0 0 0 0 0 0 0 0 0 0 0.08 0"/>
<feBlend mode="normal" in2="BackgroundImageFix" result="effect1_dropShadow"/>
<feBlend mode="normal" in="SourceGraphic" in2="effect1_dropShadow" result="shape"/>
</filter>
</defs>
</svg>
