<svg width="36" height="36" viewBox="0 0 36 36" fill="none" xmlns="http://www.w3.org/2000/svg">
<g filter="url(#filter0_d)">
<path d="M32 14C32 6.26801 25.732 0 18 0C10.268 0 4 6.26801 4 14C4 21.732 10.268 28 18 28C25.732 28 32 21.732 32 14Z" fill="#D3D6FF"/>
</g>
<path d="M23.8058 7.25526C23.8058 6.01177 22.7944 5 21.5509 5C20.3078 5 19.2959 6.01177 19.2959 7.25526C19.2959 7.98545 19.6464 8.63389 20.1862 9.04616C19.6731 10.0112 18.6771 10.4272 17.4464 10.937C16.7915 11.2082 16.0776 11.5044 15.4369 11.9285V9.27936C16.186 8.91232 16.7043 8.14413 16.7043 7.25545C16.7043 6.01196 15.6924 5.00019 14.4491 5.00019C13.2058 5.00019 12.1942 6.01177 12.1942 7.25526C12.1942 8.14394 12.7125 8.91213 13.4612 9.27917V18.7208C12.7125 19.0877 12.1942 19.8561 12.1942 20.7447C12.1942 21.9882 13.2058 23 14.4491 23C15.6924 23 16.7043 21.9884 16.7043 20.7449C16.7043 19.8562 16.186 19.0881 15.4369 18.721V15.7509C15.4369 13.9899 16.3855 13.515 18.2025 12.7624C19.611 12.1792 21.4158 11.426 22.1749 9.42061C23.1153 9.14923 23.8058 8.28205 23.8058 7.25526ZM14.4491 5.98804C15.1479 5.98804 15.7163 6.55659 15.7163 7.25526C15.7163 7.95393 15.1479 8.52248 14.4491 8.52248C13.7506 8.52248 13.182 7.95412 13.182 7.25526C13.1819 6.5564 13.7504 5.98804 14.4491 5.98804ZM14.4491 22.012C13.7506 22.012 13.182 21.4436 13.182 20.7447C13.182 20.0461 13.7506 19.4775 14.4491 19.4775C15.1479 19.4775 15.7163 20.0459 15.7163 20.7447C15.7161 21.4438 15.1476 22.012 14.4491 22.012ZM21.5509 8.52248C20.8521 8.52248 20.2837 7.95412 20.2837 7.25526C20.2837 6.55621 20.8521 5.98804 21.5509 5.98804C22.2496 5.98804 22.818 6.55659 22.818 7.25526C22.818 7.95393 22.2496 8.52248 21.5509 8.52248Z" fill="#746BD8"/>
<defs>
<filter id="filter0_d" x="0" y="0" width="36" height="36" filterUnits="userSpaceOnUse" color-interpolation-filters="sRGB">
<feFlood flood-opacity="0" result="BackgroundImageFix"/>
<feColorMatrix in="SourceAlpha" type="matrix" values="0 0 0 0 0 0 0 0 0 0 0 0 0 0 0 0 0 0 127 0"/>
<feOffset dy="4"/>
<feGaussianBlur stdDeviation="2"/>
<feColorMatrix type="matrix" values="0 0 0 0 0 0 0 0 0 0 0 0 0 0 0 0 0 0 0.08 0"/>
<feBlend mode="normal" in2="BackgroundImageFix" result="effect1_dropShadow"/>
<feBlend mode="normal" in="SourceGraphic" in2="effect1_dropShadow" result="shape"/>
</filter>
</defs>
</svg>
