<svg width="36" height="36" viewBox="0 0 36 36" fill="none" xmlns="http://www.w3.org/2000/svg">
<g filter="url(#filter0_d)">
<path d="M32 14C32 6.26801 25.732 0 18 0C10.268 0 4 6.26801 4 14C4 21.732 10.268 28 18 28C25.732 28 32 21.732 32 14Z" fill="#9DEEE9" fill-opacity="0.65"/>
</g>
<g clip-path="url(#clip0)">
<path d="M21.4272 18.1727L24.1887 20.9342L20.5403 21.8463L17.7788 19.0848L21.4272 18.1727Z" fill="#23ADE3"/>
<path d="M26.1445 15.3474L23.3831 12.5859L24.2952 8.93757L26.8456 11.488C26.9766 11.619 27.0292 11.809 26.9843 11.9886L26.1445 15.3474Z" fill="#FF6F6F"/>
<path d="M24.9342 20.1887L22.1727 17.4272L23.0848 13.7788L25.8463 16.5403L24.9342 20.1887Z" fill="#4FD986"/>
<path d="M18.5418 13.7963L19.4539 10.1479L22.2154 12.9094L21.3033 16.5578L18.5418 13.7963Z" fill="#FF6F6F"/>
<path d="M22.5136 11.7165L19.7521 8.95501L20.6642 5.30663L23.4257 8.06812L22.5136 11.7165Z" fill="#4FD986"/>
<path d="M18.7336 8.68198L15.0516 9.60248L15.9721 5.9205L19.6541 5L18.7336 8.68198Z" fill="#FF6F6F"/>
<path d="M14.7617 10.7618L18.4438 9.84126L17.5233 13.5232L13.8412 14.4437L14.7617 10.7618Z" fill="#4FD986"/>
<path d="M9.92052 11.9721L13.6025 11.0516L12.682 14.7336L9.00006 15.6541L9.92052 11.9721Z" fill="#4FD986"/>
<path d="M11.4377 7.05411L14.8128 6.21032L13.8923 9.89231L10.2103 10.8128L11.0541 7.43766C11.1013 7.2488 11.2488 7.10132 11.4377 7.05411V7.05411Z" fill="#FF6F6F"/>
<path d="M12.955 15.7521L15.7165 18.5136L12.0681 19.4257L9.30664 16.6642L12.955 15.7521Z" fill="#23ADE3"/>
<path d="M16.9094 18.2154L14.1478 15.4539L17.7962 14.5418L20.5577 17.3033L16.9094 18.2154Z" fill="#23ADE3"/>
<path d="M12.9376 20.2951L16.586 19.3831L19.3475 22.1445L15.9887 22.9842C15.8091 23.0291 15.619 22.9765 15.4881 22.8456L12.9376 20.2951Z" fill="#FF6F6F"/>
</g>
<defs>
<filter id="filter0_d" x="0" y="0" width="36" height="36" filterUnits="userSpaceOnUse" color-interpolation-filters="sRGB">
<feFlood flood-opacity="0" result="BackgroundImageFix"/>
<feColorMatrix in="SourceAlpha" type="matrix" values="0 0 0 0 0 0 0 0 0 0 0 0 0 0 0 0 0 0 127 0"/>
<feOffset dy="4"/>
<feGaussianBlur stdDeviation="2"/>
<feColorMatrix type="matrix" values="0 0 0 0 0 0 0 0 0 0 0 0 0 0 0 0 0 0 0.08 0"/>
<feBlend mode="normal" in2="BackgroundImageFix" result="effect1_dropShadow"/>
<feBlend mode="normal" in="SourceGraphic" in2="effect1_dropShadow" result="shape"/>
</filter>
<clipPath id="clip0">
<rect width="18" height="18" fill="white" transform="translate(9 5)"/>
</clipPath>
</defs>
</svg>
