<svg width="36" height="36" viewBox="0 0 36 36" fill="none" xmlns="http://www.w3.org/2000/svg">
<g filter="url(#filter0_d)">
<path d="M32 14C32 6.26801 25.732 0 18 0C10.268 0 4 6.26801 4 14C4 21.732 10.268 28 18 28C25.732 28 32 21.732 32 14Z" fill="#D3D6FF"/>
</g>
<path d="M18.5273 6.65234C18.5273 6.36107 18.2913 6.125 18 6.125C17.7087 6.125 17.4727 6.36107 17.4727 6.65234V8.91168C17.4727 9.20296 17.7087 9.43903 18 9.43903C18.2913 9.43903 18.5273 9.20296 18.5273 8.91168V6.65234Z" fill="#F4F83B"/>
<path d="M15.3678 9.8495C15.4707 9.95236 15.6057 10.004 15.7406 10.004C15.8755 10.004 16.0105 9.9525 16.1135 9.8495C16.3194 9.64351 16.3194 9.30966 16.1135 9.10367L14.9837 7.974C14.7778 7.76801 14.444 7.76801 14.238 7.974C14.032 8.17999 14.032 8.51384 14.238 8.71983L15.3678 9.8495Z" fill="#F4F83B"/>
<path d="M20.2593 10.0039C20.3943 10.0039 20.5293 9.95236 20.6322 9.84937L21.762 8.7197C21.9678 8.51384 21.9678 8.17986 21.762 7.974C21.556 7.76801 21.2222 7.76801 21.0162 7.974L19.8865 9.10367C19.6805 9.30966 19.6805 9.64351 19.8865 9.84937C19.9895 9.95236 20.1245 10.0039 20.2593 10.0039Z" fill="#F4F83B"/>
<path d="M16.4744 11.2196C16.4689 11.2242 16.4637 11.2286 16.4588 11.2327L14.1788 13.1871C13.9676 13.3681 13.6976 13.468 13.4191 13.468H11.7861C10.2474 13.468 9 14.7132 9 16.2541V21.3385C9 21.6296 9.23607 21.8658 9.52734 21.8658H14.046C14.3374 21.8658 14.5734 21.6295 14.5734 21.3385V16.4973L17.2568 14.1972C17.3938 14.0798 17.4727 13.9083 17.4727 13.7278V11.7032C17.4727 11.1882 16.8745 10.8953 16.4744 11.2196V11.2196Z" fill="#23ADE3"/>
<path d="M24.2139 13.468H22.5809C22.3024 13.468 22.0324 13.3681 21.8212 13.187L19.5412 11.2327C19.5363 11.2286 19.5311 11.2242 19.5256 11.2196C19.1255 10.8953 18.5273 11.1882 18.5273 11.7032V13.7278C18.5273 13.9083 18.6062 14.0798 18.7432 14.1972L21.4266 16.4973V21.3383C21.4266 21.6295 21.6626 21.8657 21.954 21.8657H26.4727C26.7639 21.8657 27 21.6296 27 21.3383V16.2541C27 14.7132 25.7526 13.468 24.2139 13.468Z" fill="#746BD8"/>
<path d="M14.0085 11.246C14.0085 10.0209 13.0118 9.02415 11.7867 9.02415C10.5616 9.02415 9.56482 10.0209 9.56482 11.246C9.56482 12.4713 10.5616 13.468 11.7867 13.468C13.0118 13.468 14.0085 12.4713 14.0085 11.246Z" fill="#23ADE3"/>
<path d="M26.4352 11.246C26.4352 10.0209 25.4384 9.02415 24.2133 9.02415C22.9882 9.02415 21.9915 10.0209 21.9915 11.246C21.9915 12.4713 22.9882 13.468 24.2133 13.468C25.4384 13.468 26.4352 12.4713 26.4352 11.246V11.246Z" fill="#746BD8"/>
<defs>
<filter id="filter0_d" x="0" y="0" width="36" height="36" filterUnits="userSpaceOnUse" color-interpolation-filters="sRGB">
<feFlood flood-opacity="0" result="BackgroundImageFix"/>
<feColorMatrix in="SourceAlpha" type="matrix" values="0 0 0 0 0 0 0 0 0 0 0 0 0 0 0 0 0 0 127 0"/>
<feOffset dy="4"/>
<feGaussianBlur stdDeviation="2"/>
<feColorMatrix type="matrix" values="0 0 0 0 0 0 0 0 0 0 0 0 0 0 0 0 0 0 0.08 0"/>
<feBlend mode="normal" in2="BackgroundImageFix" result="effect1_dropShadow"/>
<feBlend mode="normal" in="SourceGraphic" in2="effect1_dropShadow" result="shape"/>
</filter>
</defs>
</svg>
