<svg width="36" height="36" viewBox="0 0 36 36" fill="none" xmlns="http://www.w3.org/2000/svg">
<g filter="url(#filter0_d)">
<path d="M32 14C32 6.26801 25.732 0 18 0C10.268 0 4 6.26801 4 14C4 21.732 10.268 28 18 28C25.732 28 32 21.732 32 14Z" fill="#9DEEE9" fill-opacity="0.65"/>
</g>
<g clip-path="url(#clip0)">
<path d="M26.8945 11.5391L25.9505 10.2804L25.4256 13.9546C25.3776 14.2912 25.2186 14.609 24.9781 14.8495L18.5148 21.3129C17.951 21.8768 17.2006 22.1873 16.4017 22.1873C16.163 22.1873 15.9287 22.159 15.7023 22.105C16.0462 22.6426 16.6479 23 17.332 23H25.0664C26.1326 23 27 22.1326 27 21.0664V11.8555C27 11.7414 26.963 11.6304 26.8945 11.5391Z" fill="#31A0D6"/>
<path d="M19.882 13.761C20.1733 13.761 20.4094 13.5249 20.4094 13.2337C20.4094 12.9425 20.1733 12.7064 19.882 12.7064C19.5908 12.7064 19.3547 12.9425 19.3547 13.2337C19.3547 13.5249 19.5908 13.761 19.882 13.761Z" fill="#F79E1B"/>
<path d="M13.9158 13.761C14.207 13.761 14.4431 13.5249 14.4431 13.2337C14.4431 12.9425 14.207 12.7064 13.9158 12.7064C13.6245 12.7064 13.3884 12.9425 13.3884 13.2337C13.3884 13.5249 13.6245 13.761 13.9158 13.761Z" fill="#F79E1B"/>
<path d="M17.7692 20.5671L24.2326 14.1037C24.3133 14.023 24.3657 13.9183 24.3818 13.8054L25.1276 8.58494C25.1511 8.42062 25.0958 8.25482 24.9784 8.13747L23.8598 7.0188L22.3682 8.51037L22.7411 8.88327C22.9471 9.08918 22.9471 9.4231 22.7411 9.62904C22.6382 9.73202 22.5032 9.78352 22.3683 9.78352C22.2333 9.78352 22.0983 9.73202 21.9954 9.62904L20.5038 8.13747C20.2979 7.93156 20.2979 7.59765 20.5038 7.3917C20.7097 7.18579 21.0436 7.18579 21.2496 7.3917L21.6225 7.7646L23.114 6.27303L21.9954 5.15436C21.878 5.03697 21.7122 4.98192 21.5479 5.00519L16.3274 5.75099C16.2144 5.76713 16.1098 5.81948 16.0291 5.90016L9.56569 12.3636C8.81176 13.1175 8.81176 14.3442 9.56569 15.0981L15.0347 20.5671C15.4116 20.9441 15.9068 21.1325 16.402 21.1325C16.8971 21.1325 17.3923 20.9441 17.7692 20.5671V20.5671ZM19.8823 11.6516C20.7546 11.6516 21.4643 12.3613 21.4643 13.2336C21.4643 14.106 20.7546 14.8157 19.8823 14.8157C19.0099 14.8157 18.3002 14.106 18.3002 13.2336C18.3002 12.3613 19.0099 11.6516 19.8823 11.6516ZM13.916 14.8157C13.0437 14.8157 12.334 14.106 12.334 13.2336C12.334 12.3613 13.0437 11.6516 13.916 11.6516C14.7884 11.6516 15.4981 12.3613 15.4981 13.2336C15.4981 14.106 14.7884 14.8157 13.916 14.8157ZM15.6563 17.49C15.601 17.49 15.5447 17.4813 15.4894 17.4628C15.2132 17.3707 15.0638 17.0721 15.1559 16.7958L17.6418 9.33798C17.7339 9.06169 18.0326 8.91238 18.3089 9.00446C18.5852 9.09657 18.7345 9.39518 18.6424 9.67151L16.1565 17.1293C16.0828 17.3502 15.877 17.49 15.6563 17.49V17.49Z" fill="#F79E1B"/>
<path d="M24.9781 5.90021C25.1841 5.6943 25.1841 5.36038 24.9781 5.15444C24.7722 4.94853 24.4383 4.94853 24.2323 5.15444L23.1137 6.27311L23.8595 7.01888L24.9781 5.90021Z" fill="#F79E1B"/>
</g>
<defs>
<filter id="filter0_d" x="0" y="0" width="36" height="36" filterUnits="userSpaceOnUse" color-interpolation-filters="sRGB">
<feFlood flood-opacity="0" result="BackgroundImageFix"/>
<feColorMatrix in="SourceAlpha" type="matrix" values="0 0 0 0 0 0 0 0 0 0 0 0 0 0 0 0 0 0 127 0"/>
<feOffset dy="4"/>
<feGaussianBlur stdDeviation="2"/>
<feColorMatrix type="matrix" values="0 0 0 0 0 0 0 0 0 0 0 0 0 0 0 0 0 0 0.08 0"/>
<feBlend mode="normal" in2="BackgroundImageFix" result="effect1_dropShadow"/>
<feBlend mode="normal" in="SourceGraphic" in2="effect1_dropShadow" result="shape"/>
</filter>
<clipPath id="clip0">
<rect width="18" height="18" fill="white" transform="translate(9 5)"/>
</clipPath>
</defs>
</svg>
