<svg width="36" height="36" viewBox="0 0 36 36" fill="none" xmlns="http://www.w3.org/2000/svg">
<g filter="url(#filter0_d)">
<path d="M32 14C32 6.26801 25.732 0 18 0C10.268 0 4 6.26801 4 14C4 21.732 10.268 28 18 28C25.732 28 32 21.732 32 14Z" fill="#9DEEE9" fill-opacity="0.65"/>
</g>
<g clip-path="url(#clip0)">
<path d="M16.0227 8.31178C16.314 8.31178 16.5501 8.07563 16.5501 7.78435V5.52465C16.5223 4.82486 15.5229 4.82539 15.4953 5.52465V7.78439C15.4953 8.07567 15.7314 8.31178 16.0227 8.31178V8.31178Z" fill="#F4F83B"/>
<path d="M13.39 8.15732C13.596 8.36326 13.93 8.36333 14.1359 8.15732C14.3419 7.95134 14.3419 7.61741 14.1359 7.41143L13.571 6.84652C13.3651 6.64055 13.0311 6.64055 12.8251 6.84652C12.6192 7.0525 12.6192 7.38643 12.8251 7.59241L13.39 8.15732Z" fill="#F4F83B"/>
<path d="M18.6554 8.15732L19.2203 7.59241C19.4263 7.38643 19.4263 7.0525 19.2203 6.84652C19.0143 6.64055 18.6804 6.64055 18.4744 6.84652L17.9095 7.41143C17.7035 7.61741 17.7035 7.95134 17.9095 8.15732C18.1154 8.36326 18.4494 8.36333 18.6554 8.15732V8.15732Z" fill="#F4F83B"/>
<path d="M22.3898 13.0533C22.691 12.7522 22.6915 12.2642 22.3898 11.9627C22.0886 11.6614 21.6007 11.6611 21.2991 11.9627L19.4625 13.7993C19.1618 14.1 19.1618 14.5893 19.4625 14.89C19.7633 15.1905 20.2527 15.1906 20.5533 14.89L22.3897 13.0535C22.3898 13.0534 22.3898 13.0534 22.3898 13.0533V13.0533Z" fill="#31A0D6"/>
<path d="M22.3898 16.7265L23.7673 15.349H23.7674C24.0686 15.0478 24.069 14.5599 23.7674 14.2583C23.4662 13.9571 22.9783 13.9567 22.6767 14.2583L21.2991 15.6358C20.9985 15.9365 20.9985 16.4258 21.2992 16.7267C21.6003 17.0277 22.0882 17.0281 22.3898 16.7265V16.7265Z" fill="#31A0D6"/>
<path d="M25.1448 16.5542C24.8463 16.2557 24.3582 16.25 24.0542 16.554L23.1359 17.4722C22.8343 17.7739 22.8347 18.2618 23.1358 18.5629C23.4406 18.8681 23.9296 18.8601 24.2262 18.5631L25.1446 17.6447L25.1449 17.6444C25.442 17.3477 25.4496 16.8586 25.1448 16.5542Z" fill="#31A0D6"/>
<path d="M21.8552 18.0176C21.8552 18.0141 21.8554 18.0106 21.8554 18.007C21.3641 18.0107 20.9005 17.8197 20.5532 17.4724C20.1944 17.1134 20.0167 16.6409 20.0197 16.1694C19.5476 16.173 19.0759 15.9945 18.7167 15.636C18.0046 14.9239 18.0046 13.7654 18.7166 13.0534L23.7674 8.00295C24.0553 7.71463 24.0794 7.22384 23.7694 6.91385C23.5113 6.65584 23.0217 6.56716 22.6767 6.91224L16.1626 13.4263L16.2487 13.5124C17.7202 14.9839 17.7202 17.3782 16.2487 18.8497C16.0428 19.0557 15.7088 19.0556 15.5029 18.8497C15.2969 18.6437 15.2969 18.3098 15.5029 18.1038C16.563 17.0436 16.563 15.3185 15.5029 14.2583C15.5029 14.2583 15.0436 13.7988 15.0435 13.7986C14.975 13.73 14.9254 13.6428 14.9028 13.545L14.2993 10.9297C14.1134 10.1244 13.2609 9.65752 12.479 9.94447C12.271 10.0208 12.133 10.2189 12.1332 10.4404L12.1404 17.9027L10.7839 19.2586C10.5779 19.4646 10.5779 19.7985 10.7839 20.0045L13.6249 22.8455C13.7239 22.9444 13.858 23 13.9979 23H19.2013C19.5804 23 19.9371 22.8521 20.2056 22.5837L23.0554 19.734C22.808 19.644 22.5811 19.5003 22.3896 19.3085C22.045 18.9639 21.8552 18.5054 21.8552 18.0176V18.0176Z" fill="#31A0D6"/>
</g>
<defs>
<filter id="filter0_d" x="0" y="0" width="36" height="36" filterUnits="userSpaceOnUse" color-interpolation-filters="sRGB">
<feFlood flood-opacity="0" result="BackgroundImageFix"/>
<feColorMatrix in="SourceAlpha" type="matrix" values="0 0 0 0 0 0 0 0 0 0 0 0 0 0 0 0 0 0 127 0"/>
<feOffset dy="4"/>
<feGaussianBlur stdDeviation="2"/>
<feColorMatrix type="matrix" values="0 0 0 0 0 0 0 0 0 0 0 0 0 0 0 0 0 0 0.08 0"/>
<feBlend mode="normal" in2="BackgroundImageFix" result="effect1_dropShadow"/>
<feBlend mode="normal" in="SourceGraphic" in2="effect1_dropShadow" result="shape"/>
</filter>
<clipPath id="clip0">
<rect width="18" height="18" fill="white" transform="translate(9 5)"/>
</clipPath>
</defs>
</svg>
