<svg width="36" height="36" viewBox="0 0 36 36" fill="none" xmlns="http://www.w3.org/2000/svg">
<g filter="url(#filter0_d)">
<path d="M32 14C32 6.26801 25.732 0 18 0C10.268 0 4 6.26801 4 14C4 21.732 10.268 28 18 28C25.732 28 32 21.732 32 14Z" fill="#9DEEE9" fill-opacity="0.65"/>
</g>
<g clip-path="url(#clip0)">
<path d="M10.7244 8.92243C10.9192 9.17661 11.2915 9.19982 11.5162 8.97517L11.8716 8.61939L15.9016 12.6493L16.6472 11.9037L12.6173 7.87372L12.9748 7.51618C13.2009 7.28978 13.1748 6.91677 12.9221 6.72482L10.8095 5.10868C10.5996 4.94802 10.3029 4.96771 10.1162 5.15439L9.15472 6.11626C8.96769 6.30294 8.94765 6.59931 9.10867 6.80954L10.7244 8.92243Z" fill="#FF6F6F"/>
<path d="M18.9323 18.1685C18.933 18.1572 18.9334 18.1456 18.9334 18.1337C18.9334 17.7944 18.6131 17.2896 18.4247 17.0097L21.0097 14.4247C21.2955 14.617 21.8292 14.9552 22.1692 14.9313L18.9323 18.1685Z" fill="#FF6F6F"/>
<path d="M26.0159 10.7378C25.0523 11.7014 23.6496 11.9577 22.4518 11.5063L20.2717 13.6867L17.6867 16.2718L15.5063 18.4518C15.9577 19.6496 15.7014 21.0523 14.7378 22.0159C13.8097 22.9441 12.4741 23.2158 11.3072 22.8312C11.1163 22.7683 11.0608 22.5239 11.2032 22.3819L12.9367 20.648L12.6523 19.3476L11.3522 19.0639L9.61869 20.7974C9.47666 20.9398 9.23233 20.8843 9.1694 20.6934C8.78479 19.5265 9.05619 18.1906 9.98467 17.2628C10.9483 16.2992 12.3514 16.0432 13.5488 16.4943C13.5488 16.4943 20.219 9.8241 20.4943 9.54883C20.0432 8.35141 20.2992 6.94832 21.2628 5.98469C22.1906 5.05621 23.5265 4.78481 24.6933 5.16941C24.8842 5.23234 24.9398 5.47668 24.7974 5.61871L23.0638 7.35227L23.3476 8.65234L24.648 8.93676L26.3819 7.2032C26.5239 7.06082 26.7683 7.11637 26.8312 7.30727C27.2158 8.4741 26.944 9.80969 26.0159 10.7378V10.7378Z" fill="#31A0D6"/>
<path d="M26.6604 19.1374L23.0576 15.5342L19.536 19.0565L23.1385 22.6593C23.5923 23.1135 24.3275 23.1135 24.7817 22.6593C26.0963 21.3447 25.3463 22.0951 26.6604 20.7809C27.1132 20.3274 27.1132 19.5909 26.6604 19.1374Z" fill="#FF6F6F"/>
</g>
<defs>
<filter id="filter0_d" x="0" y="0" width="36" height="36" filterUnits="userSpaceOnUse" color-interpolation-filters="sRGB">
<feFlood flood-opacity="0" result="BackgroundImageFix"/>
<feColorMatrix in="SourceAlpha" type="matrix" values="0 0 0 0 0 0 0 0 0 0 0 0 0 0 0 0 0 0 127 0"/>
<feOffset dy="4"/>
<feGaussianBlur stdDeviation="2"/>
<feColorMatrix type="matrix" values="0 0 0 0 0 0 0 0 0 0 0 0 0 0 0 0 0 0 0.08 0"/>
<feBlend mode="normal" in2="BackgroundImageFix" result="effect1_dropShadow"/>
<feBlend mode="normal" in="SourceGraphic" in2="effect1_dropShadow" result="shape"/>
</filter>
<clipPath id="clip0">
<rect width="18" height="18" fill="white" transform="translate(9 5)"/>
</clipPath>
</defs>
</svg>
