<svg width="39" height="31" viewBox="0 0 39 31" fill="none" xmlns="http://www.w3.org/2000/svg">
<path d="M7.1 29.9V27.9C7.1 27.1 6.6 26.6 5.8 26.6C5.4 26.6 5 26.7 4.7 27.2C4.5 26.8 4.1 26.6 3.6 26.6C3.3 26.6 2.9 26.7 2.7 27.1V26.7H2V29.9H2.7V28.1C2.7 27.5 3 27.3 3.5 27.3C4 27.3 4.2 27.6 4.2 28.1V29.9H4.9V28.1C4.9 27.5 5.2 27.3 5.7 27.3C6.2 27.3 6.4 27.6 6.4 28.1V29.9H7.1ZM17.5 26.7H16.4V25.7H15.7V26.7H15V27.3H15.6V28.8C15.6 29.5 15.9 30 16.7 30C17 30 17.3 29.9 17.6 29.8L17.4 29.2C17.2 29.3 17 29.4 16.8 29.4C16.5 29.4 16.3 29.2 16.3 28.9V27.5H17.4V26.7H17.5ZM23.4 26.6C23 26.6 22.7 26.8 22.6 27.1V26.7H21.9V29.9H22.6V28.1C22.6 27.6 22.8 27.3 23.3 27.3C23.4 27.3 23.6 27.3 23.7 27.4L23.9 26.7C23.8 26.6 23.6 26.6 23.4 26.6ZM14.4 26.9C14.1 26.7 13.6 26.6 13.1 26.6C12.3 26.6 11.8 27 11.8 27.6C11.8 28.1 12.2 28.4 12.9 28.5H13.2C13.6 28.6 13.8 28.7 13.8 28.8C13.8 29 13.5 29.2 13.1 29.2C12.6 29.2 12.3 29 12 28.9L11.7 29.4C12.1 29.7 12.6 29.8 13.1 29.8C14 29.8 14.6 29.4 14.6 28.8C14.6 28.2 14.2 27.9 13.5 27.8H13.2C12.9 27.8 12.7 27.7 12.7 27.5C12.7 27.3 12.9 27.1 13.3 27.1C13.7 27.1 14.1 27.3 14.3 27.4L14.4 26.9ZM33.1 26.6C32.7 26.6 32.4 26.8 32.3 27.1V26.7H31.6V29.9H32.3V28.1C32.3 27.6 32.5 27.3 33 27.3C33.1 27.3 33.3 27.3 33.4 27.4L33.6 26.7C33.4 26.6 33.2 26.6 33.1 26.6ZM24.1 28.3C24.1 29.3 24.8 30 25.8 30C26.3 30 26.6 29.9 26.9 29.6L26.7 29C26.4 29.2 26.2 29.3 25.9 29.3C25.3 29.3 24.9 28.9 24.9 28.3C24.9 27.7 25.3 27.3 25.9 27.3C26.2 27.3 26.5 27.4 26.7 27.6L27 27C26.7 26.7 26.3 26.6 25.9 26.6C24.8 26.6 24.1 27.3 24.1 28.3ZM30.6 28.3V26.7H29.9V27.1C29.7 26.8 29.3 26.6 28.9 26.6C28 26.6 27.3 27.3 27.3 28.3C27.3 29.3 28 30 28.9 30C29.4 30 29.7 29.8 29.9 29.5V29.9H30.6V28.3ZM28.1 28.3C28.1 27.7 28.5 27.3 29.1 27.3C29.7 27.3 30.1 27.7 30.1 28.3C30.1 28.9 29.7 29.3 29.1 29.3C28.4 29.3 28.1 28.8 28.1 28.3ZM19.7 26.6C18.8 26.6 18.1 27.3 18.1 28.3C18.1 29.3 18.8 30 19.7 30C20.2 30 20.6 29.9 21 29.6L20.7 29C20.4 29.2 20.1 29.3 19.8 29.3C19.4 29.3 18.9 29.1 18.8 28.5H21.2V28.2C21.2 27.3 20.6 26.6 19.7 26.6ZM19.7 27.2C20.1 27.2 20.4 27.5 20.5 28H18.8C18.9 27.5 19.2 27.2 19.7 27.2ZM37.1 28.3V25.5H36.4V27.2C36.2 26.9 35.8 26.7 35.4 26.7C34.5 26.7 33.8 27.4 33.8 28.4C33.8 29.4 34.5 30.1 35.4 30.1C35.9 30.1 36.2 29.9 36.4 29.6V30H37.1V28.3ZM34.5 28.3C34.5 27.7 34.9 27.3 35.5 27.3C36.1 27.3 36.5 27.7 36.5 28.3C36.5 28.9 36.1 29.3 35.5 29.3C34.9 29.3 34.5 28.8 34.5 28.3ZM11 28.3V26.7H10.3V27.1C10.1 26.8 9.7 26.6 9.3 26.6C8.4 26.6 7.7 27.3 7.7 28.3C7.7 29.3 8.4 30 9.3 30C9.8 30 10.1 29.8 10.3 29.5V29.9H11V28.3ZM8.4 28.3C8.4 27.7 8.8 27.3 9.4 27.3C10 27.3 10.4 27.7 10.4 28.3C10.4 28.9 10 29.3 9.4 29.3C8.8 29.3 8.4 28.8 8.4 28.3Z" fill="black"/>
<path d="M24.7 2.5H14.2V21.2H24.7V2.5Z" fill="#FF5F00"/>
<path fill-rule="evenodd" clip-rule="evenodd" d="M14.9 11.9C14.9 8.1 16.7 4.7 19.5 2.5C17.4 1 14.8 0 12 0C5.4 0 0 5.3 0 11.9C0 18.5 5.4 23.8 12 23.8C14.8 23.8 17.4 22.8 19.4 21.3C16.7 19.1 14.9 15.7 14.9 11.9Z" fill="#EB001B"/>
<path fill-rule="evenodd" clip-rule="evenodd" d="M39 11.9C39 18.5 33.6 23.8 27 23.8C24.2 23.8 21.6 22.8 19.6 21.3C22.4 19.1 24.2 15.7 24.2 11.9C24.2 8.1 22.4 4.7 19.6 2.5C21.5 1 24.1 0 26.9 0C33.6 0 39 5.4 39 11.9Z" fill="#F79E1B"/>
</svg>
