<svg width="85" height="85" viewBox="0 0 85 85" fill="none" xmlns="http://www.w3.org/2000/svg">
<path d="M28.7833 13.8883L14.3916 27.7765C6.44336 35.4467 6.21793 48.108 13.8881 56.0563L27.7763 70.4479C35.4465 78.3962 48.1078 78.6216 56.0561 70.9514L70.4477 57.0633C78.396 49.393 78.6214 36.7318 70.9512 28.7835L57.0631 14.3918C49.3929 6.44354 36.7316 6.21811 28.7833 13.8883Z" fill="#B8BEF4" fill-opacity="0.64"/>
<path d="M55.05 38.9114L49.9228 33.2769C48.9082 32.2623 47.2555 32.261 46.2314 33.2851C45.9069 33.6096 45.686 33.9982 45.5715 34.4128C44.5515 33.6314 43.0801 33.7092 42.1405 34.6487C41.8173 34.9733 41.5964 35.3619 41.4791 35.7751C40.4592 34.9965 38.9878 35.0728 38.0496 36.0123C37.7319 36.3301 37.5137 36.7091 37.3951 37.1128L34.9787 34.6964C33.9641 33.6819 32.3114 33.6805 31.2873 34.7046C30.2714 35.7191 30.2714 37.3719 31.2873 38.3878L40.571 47.6714L35.0646 48.5359C33.5768 48.7486 32.4546 50.0414 32.4546 51.5455C32.4546 52.6732 33.3723 53.5909 34.5 53.5909H47.3578C49.361 53.5909 51.2441 52.8109 52.6609 51.3941L54.8059 49.2491C56.2214 47.835 57 45.9532 57 43.9527C57 42.0845 56.3073 40.2941 55.05 38.9114ZM53.8418 48.285L51.6968 50.43C50.5378 51.5891 48.9968 52.2272 47.3577 52.2272H34.5C34.1236 52.2272 33.8181 51.9218 33.8181 51.5454C33.8181 50.7163 34.4372 50.0031 35.2677 49.8845L42.1063 48.8099C42.36 48.7704 42.5686 48.5918 42.6491 48.3477C42.7281 48.1049 42.6641 47.8363 42.4827 47.655L32.2514 37.4236C31.7673 36.9396 31.7673 36.1514 32.2582 35.6591C32.5009 35.4178 32.8187 35.2964 33.1364 35.2964C33.4542 35.2964 33.7719 35.4178 34.0146 35.6605L40.8369 42.4828C41.1028 42.7487 41.5351 42.7487 41.801 42.4828C41.9333 42.3491 42.0002 42.1746 42.0002 42C42.0002 41.8255 41.9334 41.651 41.7997 41.5173L39.0138 38.7314C38.5297 38.2473 38.5297 37.4605 39.022 36.9682C39.5047 36.4855 40.2942 36.4855 40.777 36.9682L43.5642 39.7555C43.8301 40.0214 44.2624 40.0214 44.5283 39.7555C44.6606 39.6218 44.7275 39.4473 44.7275 39.2727C44.7275 39.0982 44.6607 38.9237 44.527 38.79L43.1047 37.3677C42.6206 36.8836 42.6206 36.0968 43.1129 35.6045C43.5956 35.1218 44.3852 35.1218 44.8679 35.6045L46.297 37.0336C46.2997 37.0349 46.2983 37.0349 46.2983 37.0349L46.2996 37.0363C46.301 37.0376 46.301 37.0376 46.301 37.0376C46.3023 37.039 46.3023 37.039 46.3023 37.039H46.3037C46.305 37.039 46.305 37.0403 46.305 37.0403C46.5723 37.294 46.995 37.2885 47.2554 37.0267C47.5214 36.7608 47.5214 36.3285 47.2554 36.0626L47.1968 36.004C46.9623 35.7695 46.8327 35.4571 46.8327 35.1258C46.8327 34.7944 46.9609 34.4835 47.2037 34.2408C47.6891 33.7581 48.4746 33.7594 48.9369 34.2176L54.0423 39.829C55.0691 40.9595 55.6364 42.4241 55.6364 43.9527C55.6364 45.5891 54.9995 47.1273 53.8418 48.285Z" fill="#130F49"/>
<path d="M38.7218 34.0268C37.7291 31.83 35.5364 30.4091 33.1364 30.4091C29.7532 30.4091 27 33.1622 27 36.5454C27 38.9454 28.4209 41.1382 30.6177 42.1323C30.7091 42.1732 30.8045 42.1923 30.8986 42.1923C31.1577 42.1923 31.4059 42.0423 31.5205 41.7914C31.6746 41.4477 31.5218 41.0441 31.1796 40.8886C29.4696 40.1154 28.3637 38.4109 28.3637 36.5454C28.3637 33.9136 30.5046 31.7727 33.1364 31.7727C35.0019 31.7727 36.7065 32.8786 37.4796 34.5886C37.6337 34.9322 38.0388 35.0863 38.381 34.9294C38.7246 34.7741 38.8773 34.3705 38.7218 34.0268Z" fill="#130F49"/>
</svg>
