<svg width="59" height="27" viewBox="0 0 59 27" fill="none" xmlns="http://www.w3.org/2000/svg">
<path fill-rule="evenodd" clip-rule="evenodd" d="M2.23705 23.4243H1.83705C1.83705 23.4243 1.73705 23.4243 1.73705 23.5243V23.6243H1.53705V23.4243C1.53705 23.3243 1.63705 23.2243 1.73705 23.2243H3.03705C3.13705 23.2243 3.23705 23.2243 3.13705 23.4243V23.6243H2.93705V23.5243V23.4243H2.43705L2.03705 25.2243H1.83705L2.23705 23.4243Z" fill="#323E48"/>
<path d="M3.23704 24.0243C3.23704 24.0243 3.13704 23.9243 3.23704 24.0243L3.03704 23.9243V23.7243H3.23704C3.33704 23.7243 3.43704 23.7243 3.33704 23.9243L3.23704 24.6243C3.23704 24.8243 3.23704 25.0243 3.43704 25.0243C3.73704 25.0243 4.03704 24.7243 4.03704 24.4243L4.13704 23.7243H4.43704L4.13704 24.9243V25.0243H4.23704V25.2243H4.13704C4.03704 25.2243 3.93704 25.1243 4.03704 25.0243V24.9243C4.03704 24.8243 4.03704 24.8243 4.03704 24.8243C3.93704 25.0243 3.73704 25.2243 3.43704 25.2243C3.03704 25.2243 2.93704 25.0243 3.03704 24.7243L3.23704 24.0243ZM3.63704 23.2243H3.83704L3.73704 23.5243H3.63704V23.2243ZM4.03704 23.2243H4.23704V23.5243H4.03704V23.2243Z" fill="#323E48"/>
<path fill-rule="evenodd" clip-rule="evenodd" d="M4.83702 24.0243C4.83702 24.0243 4.83702 23.9243 4.83702 24.0243L4.73702 23.9243V23.7243H4.93702C5.03702 23.7243 5.13702 23.7243 5.03702 23.9243V24.0243C5.03702 24.1243 5.03702 24.1243 5.03702 24.1243C5.13702 23.9243 5.33702 23.7243 5.53702 23.7243H5.63702V23.9243C5.63702 23.9243 5.63702 23.9243 5.53702 23.9243C5.33702 23.9243 5.13702 24.1243 5.03702 24.3243C5.03702 24.4243 4.93702 24.5243 4.93702 24.6243L4.83702 25.2243H4.63702L4.83702 24.0243Z" fill="#323E48"/>
<path fill-rule="evenodd" clip-rule="evenodd" d="M5.93705 23.5243C5.93705 23.4243 5.93705 23.4243 5.93705 23.5243L5.73705 23.4243V23.2243H5.93705C6.03705 23.2243 6.13705 23.2243 6.03705 23.4243L5.93705 24.3243H6.03705C6.13705 24.3243 6.13705 24.3243 6.23705 24.2243L6.73705 23.7243H6.93705L6.43705 24.3243C6.33705 24.4243 6.33705 24.4243 6.33705 24.4243C6.33705 24.4243 6.33705 24.4243 6.43705 24.5243L6.53705 25.0243C6.53705 25.0243 6.53705 25.1243 6.63705 25.1243H6.73705V25.3243H6.53705C6.43705 25.3243 6.33705 25.3243 6.33705 25.2243L6.13705 24.5243C6.13705 24.4243 6.03705 24.4243 6.03705 24.4243H5.93705L5.73705 25.2243H5.53705L5.93705 23.5243Z" fill="#323E48"/>
<path d="M7.53707 24.0243C7.53707 24.0243 7.53707 23.9243 7.43707 23.9243H7.13707L7.23707 23.7243H7.73707C8.03707 23.7243 8.13707 23.7243 8.03707 23.9243L7.43707 24.9243C7.43707 24.9243 7.43707 25.0243 7.53707 25.0243H7.83707L7.73707 25.2243H7.33707C7.03707 25.2243 6.93707 25.1243 7.03707 25.0243L7.53707 24.0243ZM7.93707 23.2243H8.33707L8.23707 23.5243H7.83707L7.93707 23.2243Z" fill="#323E48"/>
<path fill-rule="evenodd" clip-rule="evenodd" d="M7.63704 25.6243C7.73704 25.6243 7.83704 25.5243 7.93704 25.4243L8.03704 25.2243L7.83704 24.0243C7.83704 24.0243 7.83704 23.9243 7.73704 23.9243V23.7243H7.83704C7.93704 23.7243 8.03704 23.7243 8.03704 23.8243L8.23704 24.7243C8.23704 24.8243 8.23704 24.9243 8.23704 24.9243C8.23704 24.9243 8.23704 24.8243 8.33704 24.7243L8.83704 23.8243C8.93704 23.7243 8.93704 23.7243 9.03704 23.7243H9.13704V23.9243C9.13704 23.9243 9.03704 23.9243 9.03704 24.0243L8.03704 25.5243C7.93704 25.6243 7.73704 25.7243 7.53704 25.7243C7.33704 25.7243 7.33704 25.6243 7.33704 25.6243L7.43704 25.5243C7.43704 25.5243 7.43704 25.6243 7.63704 25.6243Z" fill="#323E48"/>
<path d="M9.93706 23.7243C10.3371 23.7243 10.5371 24.0243 10.4371 24.4243V24.5243H9.33706C9.23706 24.8243 9.43706 25.0243 9.73706 25.0243C10.0371 25.0243 10.2371 24.8243 10.2371 24.8243L10.3371 24.9243C10.3371 24.9243 10.1371 25.1243 9.73706 25.1243C9.33706 25.1243 9.03706 24.8243 9.13706 24.4243C9.23706 24.0243 9.53706 23.7243 9.93706 23.7243ZM10.2371 24.3243C10.3371 24.0243 10.1371 23.9243 9.93706 23.9243C9.73706 23.9243 9.43706 24.1243 9.33706 24.3243H10.2371Z" fill="#323E48"/>
<path fill-rule="evenodd" clip-rule="evenodd" d="M10.9371 23.2243H11.1371L10.9371 23.7243H10.7371L10.9371 23.2243Z" fill="#323E48"/>
<path fill-rule="evenodd" clip-rule="evenodd" d="M11.337 24.0243C11.337 24.0243 11.337 23.9243 11.337 24.0243L11.237 23.9243V23.7243H11.437C11.537 23.7243 11.637 23.7243 11.537 23.9243V24.0243C11.537 24.1243 11.537 24.1243 11.537 24.1243C11.637 24.0243 11.837 23.7243 12.137 23.7243C12.537 23.7243 12.537 23.9243 12.537 24.2243L12.437 24.9243V25.0243H12.537V25.2243H12.337C12.237 25.2243 12.137 25.1243 12.237 25.0243L12.337 24.3243C12.337 24.1243 12.437 23.9243 12.137 23.9243C11.937 23.9243 11.637 24.1243 11.537 24.3243C11.537 24.4243 11.537 24.4243 11.437 24.5243L11.337 25.2243H11.137L11.337 24.0243Z" fill="#323E48"/>
<path d="M13.3371 24.0243C13.3371 24.0243 13.3371 23.9243 13.2371 23.9243H12.9371L13.0371 23.7243H13.5371C13.8371 23.7243 13.9371 23.7243 13.8371 23.9243L13.3371 24.9243C13.3371 24.9243 13.3371 25.0243 13.4371 25.0243H13.7371L13.6371 25.2243H13.1371C12.8371 25.2243 12.7371 25.1243 12.8371 25.0243L13.3371 24.0243ZM13.7371 23.2243H14.1371L14.0371 23.4243H13.6371L13.7371 23.2243Z" fill="#323E48"/>
<path fill-rule="evenodd" clip-rule="evenodd" d="M13.7371 24.0243C13.7371 24.0243 13.7371 23.9243 13.7371 24.0243L13.5371 23.9243V23.7243H13.7371C13.8371 23.7243 13.9371 23.7243 13.8371 23.9243V24.0243C13.8371 24.1243 13.8371 24.1243 13.8371 24.1243C13.9371 24.0243 14.2371 23.7243 14.5371 23.7243C14.8371 23.7243 14.9371 23.9243 14.8371 24.2243L14.7371 24.9243V25.0243H14.8371V25.2243H14.6371C14.5371 25.2243 14.4371 25.1243 14.5371 25.0243L14.6371 24.3243C14.6371 24.1243 14.7371 23.9243 14.4371 23.9243C14.2371 23.9243 13.9371 24.1243 13.8371 24.3243C13.8371 24.4243 13.8371 24.4243 13.7371 24.5243L13.5371 25.2243H13.4371L13.7371 24.0243Z" fill="#323E48"/>
<path d="M17.2371 23.2243C17.8371 23.2243 18.1371 23.6243 18.0371 24.2243C17.9371 24.8243 17.3371 25.2243 16.8371 25.2243C16.2371 25.2243 15.9371 24.8243 16.0371 24.2243C16.1371 23.6243 16.6371 23.2243 17.2371 23.2243ZM16.7371 25.0243C17.1371 25.0243 17.6371 24.6243 17.7371 24.2243C17.8371 23.7243 17.5371 23.4243 17.1371 23.4243C16.7371 23.4243 16.2371 23.8243 16.1371 24.2243C16.0371 24.7243 16.3371 25.0243 16.7371 25.0243ZM17.0371 22.8243H17.2371L17.1371 23.0243H16.9371L17.0371 22.8243ZM17.4371 22.8243H17.6371L17.5371 23.0243H17.3371L17.4371 22.8243Z" fill="#323E48"/>
<path d="M18.9371 23.7243C19.2371 23.7243 19.3371 24.0243 19.3371 24.0243C19.3371 24.0243 19.3371 24.0243 19.3371 23.9243L19.4371 23.4243V23.3243H19.3371V23.1243H19.5371C19.6371 23.1243 19.7371 23.1243 19.6371 23.3243L19.3371 24.8243V24.9243H19.4371V25.1243H19.2371C19.1371 25.1243 19.0371 25.0243 19.1371 24.9243C19.1371 24.8243 19.1371 24.8243 19.1371 24.8243C19.1371 24.8243 18.9371 25.1243 18.6371 25.1243C18.2371 25.1243 18.1371 24.8243 18.2371 24.4243C18.2371 24.0243 18.5371 23.7243 18.9371 23.7243ZM19.2371 24.5243C19.3371 24.2243 19.2371 23.9243 18.9371 23.9243C18.7371 23.9243 18.4371 24.1243 18.3371 24.5243C18.2371 24.8243 18.4371 25.1243 18.6371 25.1243C18.8371 25.0243 19.1371 24.9243 19.2371 24.5243Z" fill="#323E48"/>
<path d="M20.6371 23.7243C21.0371 23.7243 21.1371 24.0243 21.1371 24.3243V24.4243H20.0371C19.9371 24.7243 20.1371 25.0243 20.4371 25.0243C20.7371 25.0243 20.9371 24.8243 20.9371 24.8243L21.0371 24.9243C21.0371 24.9243 20.7371 25.1243 20.4371 25.1243C20.0371 25.1243 19.7371 24.8243 19.8371 24.4243C19.8371 24.0243 20.2371 23.7243 20.6371 23.7243ZM20.8371 24.3243C20.9371 24.0243 20.7371 23.9243 20.5371 23.9243C20.3371 23.9243 20.0371 24.0243 19.9371 24.3243H20.8371Z" fill="#323E48"/>
<path fill-rule="evenodd" clip-rule="evenodd" d="M21.4371 24.0243C21.5371 24.0243 21.4371 23.9243 21.4371 24.0243L21.2371 23.9243V23.7243H21.4371C21.5371 23.7243 21.6371 23.7243 21.5371 23.9243V24.0243C21.5371 24.1243 21.5371 24.1243 21.5371 24.1243C21.7371 23.9243 22.0371 23.7243 22.2371 23.7243C22.5371 23.7243 22.6371 23.8243 22.6371 24.0243C22.7371 23.9243 22.9371 23.7243 23.2371 23.7243C23.5371 23.7243 23.6371 23.9243 23.5371 24.2243L23.4371 24.9243V25.0243H23.5371V25.2243H23.3371C23.2371 25.2243 23.1371 25.1243 23.2371 25.0243L23.4371 24.3243C23.5371 24.1243 23.4371 23.9243 23.2371 23.9243C23.0371 23.9243 22.8371 24.1243 22.7371 24.3243C22.7371 24.4243 22.6371 24.4243 22.6371 24.5243L22.5371 25.2243H22.3371L22.5371 24.4243C22.5371 24.2243 22.6371 24.0243 22.3371 24.0243C22.1371 24.0243 21.9371 24.2243 21.8371 24.4243C21.8371 24.5243 21.7371 24.5243 21.7371 24.6243L21.4371 25.2243H21.2371L21.4371 24.0243Z" fill="#323E48"/>
<path d="M24.737 23.7243C25.137 23.7243 25.237 24.0243 25.237 24.3243V24.4243H24.137C24.037 24.7243 24.237 25.0243 24.537 25.0243C24.837 25.0243 25.037 24.8243 25.037 24.8243L25.137 24.9243C25.137 24.9243 24.837 25.1243 24.537 25.1243C24.137 25.1243 23.837 24.8243 23.937 24.4243C23.937 24.0243 24.337 23.7243 24.737 23.7243ZM24.937 24.3243C25.037 24.0243 24.837 23.9243 24.637 23.9243C24.437 23.9243 24.137 24.0243 24.037 24.3243H24.937Z" fill="#323E48"/>
<path fill-rule="evenodd" clip-rule="evenodd" d="M26.6371 24.3243L26.3371 23.4243C26.3371 23.3243 26.2371 23.3243 26.2371 23.3243V23.1243H26.3371C26.4371 23.1243 26.5371 23.1243 26.5371 23.3243L26.7371 23.8243C26.7371 23.9243 26.8371 24.0243 26.8371 24.0243C26.8371 24.0243 26.9371 23.9243 27.0371 23.8243L27.4371 23.4243C27.5371 23.3243 27.6371 23.2243 27.7371 23.2243H27.8371V23.4243C27.7371 23.4243 27.7371 23.4243 27.7371 23.5243L27.0371 24.4243L26.8371 25.2243H26.4371L26.6371 24.3243Z" fill="#323E48"/>
<path d="M28.337 23.7243C28.737 23.7243 29.037 24.0243 28.937 24.4243C28.837 24.8243 28.437 25.1243 28.037 25.1243C27.637 25.1243 27.337 24.8243 27.437 24.4243C27.537 24.1243 27.937 23.7243 28.337 23.7243ZM28.037 25.0243C28.337 25.0243 28.637 24.8243 28.737 24.4243C28.837 24.1243 28.637 23.9243 28.337 23.9243C28.037 23.9243 27.737 24.1243 27.637 24.4243C27.537 24.8243 27.737 25.0243 28.037 25.0243ZM28.137 23.2243H28.337L28.237 23.4243H28.037L28.137 23.2243ZM28.537 23.2243H28.737V23.4243H28.537V23.2243Z" fill="#323E48"/>
<path fill-rule="evenodd" clip-rule="evenodd" d="M29.337 24.0243C29.337 24.0243 29.337 23.9243 29.337 24.0243L29.137 23.9243V23.7243H29.437C29.537 23.7243 29.637 23.7243 29.537 23.9243V24.0243C29.537 24.1243 29.537 24.1243 29.537 24.1243C29.637 24.0243 29.837 23.7243 30.137 23.7243C30.437 23.7243 30.537 23.9243 30.437 24.2243L30.337 24.9243C30.337 24.9243 30.337 25.0243 30.437 25.0243H30.537V25.2243H30.337C30.237 25.2243 30.137 25.1243 30.237 25.0243L30.337 24.3243C30.337 24.1243 30.437 23.9243 30.137 23.9243C29.937 23.9243 29.637 24.1243 29.537 24.3243C29.437 24.4243 29.437 24.4243 29.437 24.5243L29.337 25.2243H29.137L29.337 24.0243Z" fill="#323E48"/>
<path fill-rule="evenodd" clip-rule="evenodd" d="M31.0371 23.9243H30.8371V23.7243H31.0371L31.1371 23.3243H31.3371L31.2371 23.7243H31.6371V23.9243H31.2371L31.0371 24.6243C30.9371 24.9243 31.1371 25.0243 31.2371 25.0243H31.3371V25.2243C31.3371 25.2243 31.3371 25.2243 31.2371 25.2243C31.0371 25.2243 30.7371 25.1243 30.8371 24.7243L31.0371 23.9243Z" fill="#323E48"/>
<path d="M32.537 23.7243C32.937 23.7243 33.037 24.0243 33.037 24.3243V24.4243H31.937C31.837 24.7243 32.037 25.0243 32.337 25.0243C32.637 25.0243 32.837 24.8243 32.837 24.8243L32.937 24.9243C32.937 24.9243 32.737 25.1243 32.337 25.1243C31.937 25.1243 31.637 24.8243 31.737 24.4243C31.737 24.0243 32.137 23.7243 32.537 23.7243ZM32.837 24.3243C32.937 24.0243 32.737 23.9243 32.537 23.9243C32.337 23.9243 32.037 24.0243 31.937 24.3243H32.837Z" fill="#323E48"/>
<path fill-rule="evenodd" clip-rule="evenodd" d="M33.4371 24.0243C33.4371 24.0243 33.4371 23.9243 33.4371 24.0243L33.2371 23.9243V23.7243H33.4371C33.5371 23.7243 33.6371 23.7243 33.5371 23.9243V24.0243C33.5371 24.1243 33.5371 24.1243 33.5371 24.1243C33.7371 23.9243 33.9371 23.7243 34.1371 23.7243C34.4371 23.7243 34.5371 23.8243 34.5371 24.0243C34.6371 23.9243 34.9371 23.7243 35.1371 23.7243C35.4371 23.7243 35.5371 23.9243 35.4371 24.3243L35.3371 25.0243V25.1243H35.4371V25.3243H35.2371C35.1371 25.3243 35.0371 25.2243 35.1371 25.1243L35.2371 24.4243C35.3371 24.2243 35.2371 24.0243 35.0371 24.0243C34.8371 24.0243 34.6371 24.2243 34.5371 24.4243C34.5371 24.5243 34.4371 24.5243 34.4371 24.6243L34.3371 25.3243H34.1371L34.3371 24.5243C34.3371 24.3243 34.4371 24.1243 34.1371 24.1243C33.9371 24.1243 33.7371 24.3243 33.6371 24.5243C33.6371 24.6243 33.6371 24.6243 33.5371 24.7243L33.4371 25.4243H33.2371L33.4371 24.0243Z" fill="#323E48"/>
<path d="M36.3371 24.0243C36.3371 24.0243 36.3371 23.9243 36.2371 23.9243H35.9371L36.0371 23.7243H36.5371C36.8371 23.7243 36.9371 23.7243 36.8371 23.9243L36.3371 24.9243C36.3371 24.9243 36.3371 25.0243 36.4371 25.0243H36.7371L36.6371 25.2243H36.1371C35.8371 25.2243 35.7371 25.1243 35.8371 25.0243L36.3371 24.0243ZM36.7371 23.2243H37.1371L37.0371 23.4243H36.6371L36.7371 23.2243Z" fill="#323E48"/>
<path fill-rule="evenodd" clip-rule="evenodd" d="M54 4.39999C53.2 4.39999 52.3 4.89999 51.9 5.69999L48.1 14.4L46.7 5.69999C46.5 4.89999 46 4.39999 45.1 4.39999H40.2L44.4 18.9C44.5 19.2 44.5 19.5 44.4 19.8C44.2 21 43.1 22 41.9 22H39.2C38.5 22 38.1 22.4 37.8 23.4L37.2 27H42C44.5 27 47.4 25.8 49.4 22.3L59 4.39999H54Z" fill="#323E48"/>
<path fill-rule="evenodd" clip-rule="evenodd" d="M6.8 0C8.2 0 8.9 0.6 8.7 2L8.3 4.3H11.6L10.9 8.4H7.5L6.6 13.5C6.3 15.3 8 15.5 9.1 15.5C9.3 15.5 9.5 15.5 9.6 15.5L8.8 20C8.6 20 8.3 20.1 7.8 20.1C5.3 20.1 0.6 19.4 1.5 14.2L2.5 8.4H0L0.7 4.3H3.1L3.9 0H6.8Z" fill="#323E48"/>
<path fill-rule="evenodd" clip-rule="evenodd" d="M34.5908 4.49649L33.6908 9.29649C34.6908 9.79649 35.4908 10.8965 35.4908 12.0965C35.4908 13.6965 34.2908 15.0965 32.6908 15.2965L31.8908 20.0965C31.9908 20.0965 32.1908 20.0965 32.3908 20.0965C36.7908 20.0965 40.3908 16.4965 40.3908 12.0965C40.2908 8.59649 37.8908 5.49649 34.5908 4.49649Z" fill="#00ADBB"/>
<path fill-rule="evenodd" clip-rule="evenodd" d="M30.7908 14.9965C29.7908 14.4965 28.9908 13.3965 28.9908 12.1965C28.9908 10.5965 30.1908 9.19649 31.7908 8.99649L32.6908 4.19649C32.5908 4.19649 32.3908 4.19649 32.1908 4.19649C27.7908 4.19649 24.1908 7.79649 24.1908 12.1965C24.1908 15.7965 26.5908 18.7965 29.8908 19.7965L30.7908 14.9965Z" fill="#00ADBB"/>
<path fill-rule="evenodd" clip-rule="evenodd" d="M13.5 4.4H16.3C17.7 4.4 18.4 5 18.2 6.4L17.9 8.1C19 6 21.2 4.2 23.6 4.2C23.9 4.2 24.2 4.3 24.2 4.3L23.3 9.5C23.3 9.5 22.9 9.4 22.2 9.4C20.9 9.4 18.8 9.8 17.6 12.1C17.3 12.7 17.1 13.4 17 14.2L16 20H10.7L13.5 4.4Z" fill="#323E48"/>
<path d="M59 20.7C59 21.2 58.8 21.6 58.5 21.9C58.2 22.2 57.8 22.4 57.3 22.4C56.8 22.4 56.4 22.2 56.1 21.9C55.8 21.6 55.6 21.2 55.6 20.7C55.6 20.2 55.8 19.8 56.1 19.5C56.4 19.2 56.8 19 57.3 19C57.8 19 58.2 19.2 58.5 19.5C58.8 19.8 59 20.2 59 20.7ZM58.7 20.7C58.7 20.3 58.6 20 58.3 19.7C58 19.4 57.7 19.3 57.3 19.3C56.9 19.3 56.6 19.4 56.3 19.7C56 20 55.9 20.3 55.9 20.7C55.9 21.1 56 21.4 56.3 21.7C56.6 22 56.9 22.1 57.3 22.1C57.7 22.1 58 22 58.3 21.7C58.6 21.4 58.7 21.1 58.7 20.7ZM58 21.6H57.7L57.3 20.8H57V21.6H56.7V19.8H57.3C57.5 19.8 57.6 19.9 57.7 20C57.8 20.1 57.9 20.2 57.9 20.4C57.9 20.7 57.8 20.8 57.5 20.9L58 21.6ZM57.7 20.3C57.7 20.2 57.7 20.1 57.6 20.1C57.5 20.1 57.4 20 57.3 20H57V20.6H57.3C57.4 20.6 57.5 20.6 57.6 20.5C57.6 20.5 57.7 20.4 57.7 20.3Z" fill="#323E48"/>
</svg>
