<svg width="62" height="20" viewBox="0 0 62 20" fill="none" xmlns="http://www.w3.org/2000/svg">
<path fill-rule="evenodd" clip-rule="evenodd" d="M30.7 0.4L26.6 19.7H21.6L25.7 0.4H30.7ZM51.8 12.8L54.4 5.5L55.9 12.8H51.8ZM57.4 19.7H62L58 0.4H53.7C52.7 0.4 51.9 1 51.6 1.8L44 19.7H49.3L50.3 16.8H56.7L57.4 19.7ZM44.3 13.4C44.3 8.3 37.2 8 37.3 5.7C37.3 5 38 4.3 39.4 4.1C40.1 4 42.1 3.9 44.3 5L45.2 0.9C44 0.4 42.5 0 40.5 0C35.5 0 32.1 2.6 32 6.4C32 9.2 34.5 10.7 36.4 11.7C38.4 12.6 39 13.3 39 14.1C39 15.4 37.4 16 36 16C33.5 16 32 15.3 30.9 14.8L30 19C31.2 19.5 33.3 20 35.6 20C40.8 20 44.3 17.4 44.3 13.4ZM23.5 0.4L15.4 19.7H10.1L6.1 4.3C5.9 3.3 5.6 3 4.9 2.6C3.7 1.9 1.7 1.3 0 1L0.1 0.4H8.6C9.7 0.4 10.7 1.1 10.9 2.4L13 13.6L18.2 0.4H23.5Z" fill="url(#paint0_linear)"/>
<defs>
<linearGradient id="paint0_linear" x1="-0.0002" y1="9.999" x2="61.9998" y2="9.999" gradientUnits="userSpaceOnUse">
<stop stop-color="#1D1C45"/>
<stop offset="1" stop-color="#174489"/>
</linearGradient>
</defs>
</svg>
