<svg width="16" height="16" viewBox="0 0 16 16" fill="none" xmlns="http://www.w3.org/2000/svg">
<path fill-rule="evenodd" clip-rule="evenodd" d="M10.9406 1.84576L10.9412 2.3455C12.7777 2.48943 13.9908 3.74081 13.9927 5.65984L14 11.277C14.0026 13.3693 12.6882 14.6567 10.5812 14.66L5.43459 14.6667C3.3408 14.6693 2.00988 13.3513 2.00724 11.253L2 5.70182C1.99737 3.77012 3.16768 2.52208 5.00411 2.3535L5.00346 1.85375C5.0028 1.56056 5.22001 1.34001 5.50963 1.34001C5.79924 1.33934 6.01645 1.55923 6.01711 1.85242L6.01777 2.31885L9.92759 2.31352L9.92693 1.84709C9.92627 1.5539 10.1435 1.33401 10.4331 1.33335C10.7161 1.33268 10.9399 1.55257 10.9406 1.84576ZM3.01431 5.90772L12.9797 5.8944V5.66118C12.9514 4.22857 12.2327 3.47694 10.9426 3.365L10.9432 3.87807C10.9432 4.1646 10.7201 4.39182 10.437 4.39182C10.1474 4.39248 9.92956 4.16593 9.92956 3.87941L9.9289 3.33968L6.01908 3.34501L6.01974 3.88407C6.01974 4.17126 5.80318 4.39781 5.51357 4.39781C5.22395 4.39848 5.00608 4.17259 5.00608 3.8854L5.00542 3.37233C3.7219 3.50093 3.01168 4.25522 3.01365 5.70049L3.01431 5.90772ZM10.1599 8.93621V8.94354C10.1665 9.25006 10.4166 9.48261 10.7201 9.47594C11.0163 9.46861 11.2526 9.21474 11.246 8.90823C11.2322 8.61504 10.9946 8.37583 10.699 8.3765C10.3962 8.38316 10.1593 8.6297 10.1599 8.93621ZM10.7036 11.928C10.4008 11.9214 10.1566 11.6688 10.156 11.3623C10.1494 11.0558 10.3923 10.8019 10.6951 10.7946H10.7016C11.011 10.7946 11.2618 11.0472 11.2618 11.3603C11.2624 11.6735 11.0123 11.9274 10.7036 11.928ZM7.44808 8.94688C7.46125 9.25339 7.71203 9.4926 8.01481 9.47928C8.31101 9.46528 8.54731 9.21208 8.53414 8.90556C8.5269 8.60571 8.28336 8.3725 7.98716 8.37316C7.68438 8.38649 7.44742 8.64036 7.44808 8.94688ZM8.01744 11.8981C7.71466 11.9114 7.46453 11.6722 7.45071 11.3657C7.45071 11.0591 7.68701 10.8059 7.98979 10.7919C8.28599 10.7913 8.53019 11.0245 8.53677 11.3237C8.55059 11.6309 8.31364 11.8841 8.01744 11.8981ZM4.7362 8.97019C4.74936 9.2767 5.00014 9.51658 5.30292 9.50259C5.59912 9.48926 5.83542 9.23539 5.8216 8.92887C5.81502 8.62902 5.57148 8.39581 5.27462 8.39647C4.97184 8.4098 4.73554 8.66367 4.7362 8.97019ZM5.30558 11.9014C5.0028 11.9154 4.75267 11.6755 4.73885 11.369C4.73819 11.0625 4.97515 10.8086 5.27793 10.7953C5.57413 10.7946 5.81833 11.0278 5.82491 11.3277C5.83873 11.6342 5.60243 11.8881 5.30558 11.9014Z" fill="#39A3F0"/>
</svg>
