<svg width="20" height="20" viewBox="0 0 20 20" fill="none" xmlns="http://www.w3.org/2000/svg">
<path d="M16.8742 9.8909C16.8157 6.15012 13.7545 3.125 10.0001 3.125C9.99408 3.125 9.9881 3.125 9.98216 3.12504C9.66759 3.12586 9.41412 3.38375 9.41412 3.69828V4.49848C9.41412 4.81746 9.67513 5.07832 9.99412 5.07812H10.0001C12.7268 5.07812 14.9427 7.30691 14.9218 10.0384C14.901 12.75 12.6608 14.9492 9.94923 14.9216C8.61416 14.9081 7.4047 14.3602 6.5249 13.4821C6.29466 13.2523 5.92384 13.2476 5.6938 13.4776L5.1415 14.0299C4.91279 14.2586 4.91232 14.6298 5.14099 14.8585C6.40345 16.1212 8.1531 16.8968 10.0805 16.8746C13.9024 16.8305 16.934 13.7126 16.8742 9.8909V9.8909Z" fill="#FE9A6B"/>
<path d="M9.96667 11.7969C9.66155 11.7969 9.41417 12.0442 9.41417 12.3494V13.0052C9.41417 13.4272 9.76624 13.7663 10.1877 13.7454C10.1987 13.7448 10.2097 13.7442 10.2207 13.7436C12.1552 13.6307 13.6974 12.0384 13.7487 10.1013C13.8048 7.98746 12.1016 6.25 10.0001 6.25C8.95186 6.25 8.00284 6.68246 7.32175 7.3782C7.10987 7.59465 7.11374 7.94227 7.32792 8.15641L7.92319 8.75168C8.13971 8.9682 8.49077 8.9682 8.70729 8.75168C9.03108 8.42789 9.46151 8.22516 9.91897 8.20492C10.9768 8.15813 11.847 9.03156 11.7948 10.0905C11.7473 11.0525 10.9298 11.7969 9.96667 11.7969V11.7969Z" fill="#FE9A6B"/>
<path d="M17.0711 2.92891C15.1823 1.0402 12.6711 0 10 0C7.32891 0 4.8177 1.0402 2.92891 2.92891C1.0402 4.8177 0 7.32891 0 10V10.0113C0 10.3287 0.257266 10.5859 0.574648 10.5859H1.37855C1.69469 10.5859 1.95324 10.3273 1.95312 10.0111V10C1.95312 5.55613 5.57402 1.94207 10.0204 1.95316C14.4323 1.96418 18.0358 5.56773 18.0468 9.97961C18.0579 14.426 14.4439 18.0469 10 18.0469C9.99805 18.0469 9.99605 18.0469 9.9941 18.0469C9.67461 18.0466 9.41406 18.302 9.41406 18.6214V19.4254C9.41406 19.7427 9.67133 20 9.98871 20H10C12.6711 20 15.1823 18.9598 17.0711 17.0711C18.9598 15.1823 20 12.6711 20 10C20 7.32891 18.9598 4.8177 17.0711 2.92891V2.92891Z" fill="#FE9A6B"/>
</svg>
