<svg width="40" height="40" viewBox="0 0 40 40" fill="none" xmlns="http://www.w3.org/2000/svg">
<path d="M29.6551 39.9997V29.31C29.6551 22.2638 23.9427 16.5514 16.8965 16.5514H16.2068C9.16066 16.5514 3.44824 22.2638 3.44824 29.31V39.9997" fill="#90E1B0"/>
<path d="M26.2068 9.65516C26.2068 14.9876 21.8841 19.3103 16.5516 19.3103C11.2192 19.3103 6.89648 14.9876 6.89648 9.65516C6.89648 4.32273 11.2192 0 16.5516 0C21.8841 0 26.2068 4.32273 26.2068 9.65516Z" fill="#B0F0CD"/>
<path d="M28.9656 37.2409C33.1553 37.2409 36.5517 33.8445 36.5517 29.6548C36.5517 25.465 33.1553 22.0686 28.9656 22.0686C24.7758 22.0686 21.3794 25.465 21.3794 29.6548C21.3794 33.8445 24.7758 37.2409 28.9656 37.2409Z" fill="#288070"/>
<path d="M32.3025 28.0252H30.6075V26.3303C30.6075 25.423 29.872 24.6875 28.9648 24.6875C28.0575 24.6875 27.322 25.423 27.322 26.3303V28.0252H25.6271C24.7199 28.0252 23.9844 28.7607 23.9844 29.668C23.9844 30.5752 24.7199 31.3107 25.6271 31.3107H27.322V33.0057C27.322 33.913 28.0575 34.6484 28.9648 34.6484C29.872 34.6484 30.6075 33.913 30.6075 33.0057V31.3107H32.3025C33.2097 31.3107 33.9452 30.5752 33.9452 29.668C33.9452 28.7607 33.2097 28.0252 32.3025 28.0252Z" fill="#E9EAEC"/>
</svg>
