<svg width="40" height="40" viewBox="0 0 40 40" fill="none" xmlns="http://www.w3.org/2000/svg">
<path d="M29.6551 39.9997V29.31C29.6551 22.2638 23.9427 16.5514 16.8965 16.5514H16.2068C9.16066 16.5514 3.44824 22.2638 3.44824 29.31V39.9997" fill="#E190B7"/>
<path d="M26.2068 9.65516C26.2068 14.9876 21.8841 19.3103 16.5516 19.3103C11.2192 19.3103 6.89648 14.9876 6.89648 9.65516C6.89648 4.32273 11.2192 0 16.5516 0C21.8841 0 26.2068 4.32273 26.2068 9.65516Z" fill="#F0B0CF"/>
<path d="M28.9656 37.2409C33.1553 37.2409 36.5517 33.8445 36.5517 29.6548C36.5517 25.465 33.1553 22.0686 28.9656 22.0686C24.7758 22.0686 21.3794 25.465 21.3794 29.6548C21.3794 33.8445 24.7758 37.2409 28.9656 37.2409Z" fill="#802858"/>
<path d="M30.1633 26.1462L28.9648 27.3447L27.7663 26.1462C27.1247 25.5046 26.0846 25.5046 25.4431 26.1462C24.8015 26.7877 24.8015 27.8279 25.4431 28.4694L26.6416 29.6679L25.4431 30.8664C24.8016 31.5079 24.8016 32.548 25.4431 33.1896C26.0847 33.8311 27.1248 33.8311 27.7663 33.1896L28.9648 31.9911L30.1633 33.1896C30.8048 33.8312 31.845 33.8312 32.4865 33.1896C33.128 32.5481 33.128 31.508 32.4865 30.8664L31.288 29.6679L32.4865 28.4694C33.128 27.8279 33.128 26.7877 32.4865 26.1462C31.845 25.5046 30.8048 25.5047 30.1633 26.1462Z" fill="#E9EAEC"/>
</svg>
