<svg width="22" height="22" viewBox="0 0 22 22" fill="none" xmlns="http://www.w3.org/2000/svg">
<circle cx="11" cy="11" r="10.8" fill="white" stroke="#DDDDDD" stroke-width="0.4"/>
<path fill-rule="evenodd" clip-rule="evenodd" d="M6.23419 10.9844C6.26903 10.9495 6.31041 10.9218 6.35597 10.9029C6.40153 10.884 6.45037 10.8743 6.49969 10.8743C6.54902 10.8743 6.59786 10.884 6.64342 10.9029C6.68898 10.9218 6.73036 10.9495 6.76519 10.9844L10.9997 15.2197L15.2342 10.9844C15.3046 10.914 15.4001 10.8745 15.4997 10.8745C15.5993 10.8745 15.6948 10.914 15.7652 10.9844C15.8356 11.0549 15.8752 11.1504 15.8752 11.2499C15.8752 11.3495 15.8356 11.445 15.7652 11.5154L11.2652 16.0154C11.2304 16.0504 11.189 16.0781 11.1434 16.097C11.0979 16.1159 11.049 16.1256 10.9997 16.1256C10.9504 16.1256 10.9015 16.1159 10.856 16.097C10.8104 16.0781 10.769 16.0504 10.7342 16.0154L6.23419 11.5154C6.19927 11.4806 6.17156 11.4392 6.15266 11.3937C6.13375 11.3481 6.12402 11.2993 6.12402 11.2499C6.12402 11.2006 6.13375 11.1518 6.15266 11.1062C6.17156 11.0607 6.19927 11.0193 6.23419 10.9844V10.9844Z" fill="#666EE8"/>
<path fill-rule="evenodd" clip-rule="evenodd" d="M6.23419 7.98444C6.26903 7.94952 6.31041 7.92181 6.35597 7.9029C6.40153 7.884 6.45037 7.87427 6.49969 7.87427C6.54902 7.87427 6.59786 7.884 6.64342 7.9029C6.68898 7.92181 6.73036 7.94952 6.76519 7.98444L10.9997 12.2197L15.2342 7.98444C15.2691 7.94957 15.3105 7.92191 15.356 7.90305C15.4016 7.88418 15.4504 7.87446 15.4997 7.87446C15.549 7.87446 15.5978 7.88418 15.6434 7.90305C15.6889 7.92191 15.7303 7.94957 15.7652 7.98444C15.8001 8.0193 15.8277 8.0607 15.8466 8.10625C15.8655 8.15181 15.8752 8.20063 15.8752 8.24994C15.8752 8.29925 15.8655 8.34807 15.8466 8.39363C15.8277 8.43918 15.8001 8.48057 15.7652 8.51544L11.2652 13.0154C11.2304 13.0504 11.189 13.0781 11.1434 13.097C11.0979 13.1159 11.049 13.1256 10.9997 13.1256C10.9504 13.1256 10.9015 13.1159 10.856 13.097C10.8104 13.0781 10.769 13.0504 10.7342 13.0154L6.23419 8.51544C6.19927 8.4806 6.17156 8.43922 6.15266 8.39366C6.13375 8.3481 6.12402 8.29926 6.12402 8.24994C6.12402 8.20061 6.13375 8.15177 6.15266 8.10621C6.17156 8.06065 6.19927 8.01927 6.23419 7.98444V7.98444Z" fill="#666EE8"/>
</svg>
