<svg width="20" height="20" viewBox="0 0 20 20" fill="none" xmlns="http://www.w3.org/2000/svg">
<path d="M14.7376 7.49011H13.1503V2.49835C13.1503 1.94926 12.701 1.5 12.1519 1.5H8.15851C7.60941 1.5 7.16015 1.94926 7.16015 2.49835V7.49011H5.57278C4.68424 7.49011 4.23498 8.56833 4.86395 9.19729L9.44638 13.7797C9.83574 14.1691 10.4647 14.1691 10.8541 13.7797L15.4365 9.19729C16.0655 8.56833 15.6262 7.49011 14.7376 7.49011ZM3.16675 17.4736C3.16675 18.0227 3.61601 18.472 4.1651 18.472H16.1453C16.6944 18.472 17.1437 18.0227 17.1437 17.4736C17.1437 16.9245 16.6944 16.4753 16.1453 16.4753H4.1651C3.61601 16.4753 3.16675 16.9245 3.16675 17.4736Z" fill="#666EE8"/>
</svg>
