<svg width="20" height="20" viewBox="0 0 20 20" fill="none" xmlns="http://www.w3.org/2000/svg">
<path d="M19.7583 13.8917C17.1259 11.3897 13.6318 9.99621 10 10.0001C6.21667 10.0001 2.78333 11.4834 0.241667 13.8917C0.0916667 14.0417 0 14.2501 0 14.4834C0 14.7167 0.0916667 14.9251 0.241667 15.0751L2.30833 17.1417C2.45833 17.2917 2.66667 17.3834 2.9 17.3834C3.125 17.3834 3.33333 17.2917 3.48333 17.1501C4.14167 16.5334 4.89167 16.0167 5.7 15.6084C5.975 15.4751 6.16667 15.1917 6.16667 14.8584V12.2751C7.375 11.8751 8.66667 11.6667 10 11.6667C11.3333 11.6667 12.625 11.8751 13.8333 12.2667V14.8501C13.8333 15.1751 14.025 15.4667 14.3 15.6001C15.1167 16.0084 15.8583 16.5334 16.5167 17.1417C16.6667 17.2917 16.875 17.3751 17.1 17.3751C17.3333 17.3751 17.5417 17.2834 17.6917 17.1334L19.7583 15.0667C19.9083 14.9167 20 14.7084 20 14.4751C20 14.2563 19.9131 14.0465 19.7583 13.8917V13.8917ZM17.6333 5.21675L16.4583 4.04175L13.4917 7.00008L14.6667 8.17508C14.6667 8.17508 17.5417 5.24175 17.6333 5.21675V5.21675ZM10.8333 1.66675H9.16667V5.83341H10.8333V1.66675ZM5.33333 8.17508L6.50833 7.00008L3.55 4.03341L2.36667 5.21675C2.45833 5.24175 5.33333 8.17508 5.33333 8.17508V8.17508Z" fill="#FE9A6B"/>
</svg>
