<svg width="26" height="26" viewBox="0 0 26 26" fill="none" xmlns="http://www.w3.org/2000/svg">
<path d="M9.75 2.23709H16.25C17.112 2.23709 17.9386 2.5795 18.5481 3.18899C19.1576 3.79849 19.5 4.62514 19.5 5.48709V20.6538C19.5 21.5157 19.1576 22.3424 18.5481 22.9519C17.9386 23.5613 17.112 23.9038 16.25 23.9038H9.75C8.88805 23.9038 8.0614 23.5613 7.4519 22.9519C6.84241 22.3424 6.5 21.5157 6.5 20.6538V5.48709C6.5 4.62514 6.84241 3.79849 7.4519 3.18899C8.0614 2.5795 8.88805 2.23709 9.75 2.23709V2.23709ZM13 20.6538C13.2873 20.6538 13.5629 20.5396 13.766 20.3365C13.9692 20.1333 14.0833 19.8577 14.0833 19.5704C14.0833 19.2831 13.9692 19.0076 13.766 18.8044C13.5629 18.6012 13.2873 18.4871 13 18.4871C12.7127 18.4871 12.4371 18.6012 12.234 18.8044C12.0308 19.0076 11.9167 19.2831 11.9167 19.5704C11.9167 19.8577 12.0308 20.1333 12.234 20.3365C12.4371 20.5396 12.7127 20.6538 13 20.6538V20.6538Z" fill="#FF9DC6"/>
</svg>
