<svg width="20" height="20" viewBox="0 0 20 20" fill="none" xmlns="http://www.w3.org/2000/svg">
<path d="M16.5624 3.12415H3.43744C2.85747 3.12477 2.30143 3.35543 1.89133 3.76553C1.48123 4.17564 1.25056 4.73167 1.24994 5.31165V14.6866C1.25056 15.2666 1.48123 15.8227 1.89133 16.2328C2.30143 16.6429 2.85747 16.8735 3.43744 16.8741H16.5624C17.1424 16.8735 17.6984 16.6429 18.1085 16.2328C18.5186 15.8227 18.7493 15.2666 18.7499 14.6866V5.31165C18.7493 4.73167 18.5186 4.17564 18.1085 3.76553C17.6984 3.35543 17.1424 3.12477 16.5624 3.12415V3.12415ZM16.0085 6.7425L10.3835 11.1175C10.2738 11.2028 10.1389 11.2491 9.99994 11.2491C9.861 11.2491 9.72603 11.2028 9.61634 11.1175L3.99134 6.7425C3.92526 6.6926 3.86975 6.63005 3.82804 6.5585C3.78633 6.48696 3.75926 6.40783 3.7484 6.32573C3.73753 6.24363 3.74309 6.16019 3.76476 6.08026C3.78642 6.00032 3.82375 5.92549 3.87459 5.86011C3.92542 5.79474 3.98874 5.74011 4.06087 5.69941C4.13299 5.65872 4.21249 5.63276 4.29474 5.62305C4.37698 5.61335 4.46034 5.62008 4.53996 5.64287C4.61958 5.66565 4.69387 5.70404 4.75853 5.75579L9.99994 9.83235L15.2413 5.75579C15.3724 5.65681 15.5372 5.6134 15.7 5.63494C15.8628 5.65649 16.0106 5.74125 16.1114 5.87091C16.2122 6.00057 16.2579 6.1647 16.2387 6.3278C16.2194 6.49091 16.1368 6.63988 16.0085 6.7425Z" fill="#88C6FF"/>
</svg>
