<svg width="20" height="20" viewBox="0 0 20 20" fill="none" xmlns="http://www.w3.org/2000/svg">
<g clip-path="url(#clip0)">
<path d="M9.96333 5.9781C11.2531 5.9781 12.2987 4.93251 12.2987 3.6427C12.2987 2.3529 11.2531 1.30731 9.96333 1.30731C8.67352 1.30731 7.62793 2.3529 7.62793 3.6427C7.62793 4.93251 8.67352 5.9781 9.96333 5.9781Z" fill="#0DCDA4"/>
<path d="M18.1383 10.0678L15.9617 9.6138C15.2202 9.45847 14.4881 9.79835 14.101 10.4026C13.7251 10.2095 13.3208 10.043 12.8908 9.90478V8.61048C12.8917 7.63118 12.09 6.83038 11.1142 6.83038H8.88863C7.90762 6.83038 7.10941 7.63118 7.10941 8.61048V9.91163C6.6837 10.0472 6.28374 10.2137 5.90523 10.4077C5.51816 9.80089 4.78516 9.45847 4.04273 9.6138L1.86439 10.0678C0.908251 10.2678 0.287698 11.2162 0.487679 12.1758L1.03442 14.7876C1.23269 15.7445 2.18195 16.3651 3.13896 16.1651L3.82815 16.0209C4.17316 16.5307 4.65039 16.9985 5.26148 17.3985C6.5343 18.2327 8.21571 18.6928 10.0001 18.6928C12.7303 18.6928 15.082 17.595 16.1651 16.0183L16.8655 16.1651C17.8216 16.3642 18.7709 15.7445 18.9692 14.7876L19.5167 12.1758C19.7158 11.2162 19.0953 10.2678 18.1383 10.0678ZM9.99919 17.801C8.38732 17.801 6.87672 17.395 5.74981 16.6526C5.36358 16.4003 5.04343 16.1196 4.78683 15.8192L5.31467 15.7085C6.27252 15.5094 6.89308 14.561 6.69309 13.6031L6.20301 11.2548C6.48882 11.1012 6.78923 10.9664 7.10849 10.8514V11.2797C7.10849 12.2573 7.90842 13.0581 8.88771 13.0581H11.1132C12.09 13.0581 12.8899 12.2565 12.8899 11.2797V10.8291C13.2152 10.945 13.5207 11.078 13.804 11.2291L13.307 13.604C13.1088 14.5618 13.7284 15.5103 14.6863 15.7094L15.2193 15.8209C14.2254 16.9977 12.2591 17.801 9.99919 17.801Z" fill="#0DCDA4"/>
<path d="M17.6645 9.04822C18.9543 9.04822 19.9999 8.00263 19.9999 6.71283C19.9999 5.42303 18.9543 4.37744 17.6645 4.37744C16.3747 4.37744 15.3291 5.42303 15.3291 6.71283C15.3291 8.00263 16.3747 9.04822 17.6645 9.04822Z" fill="#0DCDA4"/>
<path d="M2.81456 8.99929C4.07795 8.73493 4.88476 7.49645 4.62382 6.23389C4.35775 4.97222 3.12181 4.16199 1.85755 4.42635C0.595872 4.68983 -0.214357 5.92748 0.050003 7.19003C0.313527 8.45342 1.55117 9.26281 2.81456 8.99929Z" fill="#0DCDA4"/>
</g>
<defs>
<clipPath id="clip0">
<rect width="20" height="20" fill="white"/>
</clipPath>
</defs>
</svg>
