<svg width="16" height="16" viewBox="0 0 16 16" fill="none" xmlns="http://www.w3.org/2000/svg">
<path d="M8 10C9.10457 10 10 9.10457 10 8C10 6.89543 9.10457 6 8 6C6.89543 6 6 6.89543 6 8C6 9.10457 6.89543 10 8 10Z" fill="#9AB1C6"/>
<path d="M15.3387 7.45625C14.5119 6.1775 13.4391 5.09125 12.2366 4.31469C10.9062 3.45469 9.4375 3 7.98937 3C6.66062 3 5.35406 3.37969 4.10594 4.12844C2.83312 4.89188 1.68 6.00719 0.678435 7.44312C0.565368 7.60541 0.503097 7.79764 0.499536 7.9954C0.495975 8.19315 0.551284 8.3875 0.658435 8.55375C1.48375 9.84531 2.54594 10.9331 3.72969 11.6991C5.0625 12.5625 6.49687 13 7.98937 13C9.44906 13 10.9209 12.5491 12.2456 11.6962C13.4475 10.9222 14.5181 9.83187 15.3419 8.5425C15.4453 8.38012 15.5 8.19146 15.4995 7.99892C15.4989 7.80638 15.4431 7.61804 15.3387 7.45625V7.45625ZM8 11C7.40665 11 6.82663 10.8241 6.33329 10.4944C5.83994 10.1648 5.45542 9.69623 5.22836 9.14805C5.0013 8.59987 4.94189 7.99667 5.05764 7.41473C5.1734 6.83279 5.45912 6.29824 5.87868 5.87868C6.29823 5.45912 6.83278 5.1734 7.41473 5.05764C7.99667 4.94189 8.59987 5.0013 9.14805 5.22836C9.69623 5.45542 10.1648 5.83994 10.4944 6.33329C10.8241 6.82664 11 7.40666 11 8C10.9991 8.79537 10.6827 9.5579 10.1203 10.1203C9.5579 10.6827 8.79537 10.9991 8 11V11Z" fill="#9AB1C6"/>
</svg>
