<svg width="22" height="22" viewBox="0 0 22 22" fill="none" xmlns="http://www.w3.org/2000/svg">
<path d="M11 9.76251L5.82086 4.58334L11.9167 0.779175L17.5542 4.58334L11 9.76251Z" fill="#FF8A65"/>
<path d="M11 9.76251L5.82086 4.58334L7.7917 2.15417L17.5542 4.58334L11 9.76251Z" fill="#FFAB91"/>
<path d="M14.025 20.1666H7.975C7.05833 20.1666 6.27917 19.525 6.14167 18.6083L4.125 5.04163H17.875L15.8125 18.6083C15.675 19.525 14.8958 20.1666 14.025 20.1666Z" fill="#B39DDB"/>
<path d="M17.4167 5.95833H4.58335C4.07919 5.95833 3.66669 5.54583 3.66669 5.04167C3.66669 4.5375 4.07919 4.125 4.58335 4.125H17.4167C17.9209 4.125 18.3334 4.5375 18.3334 5.04167C18.3334 5.54583 17.9209 5.95833 17.4167 5.95833Z" fill="#7E57C2"/>
</svg>
