<svg width="20" height="20" viewBox="0 0 20 20" fill="none" xmlns="http://www.w3.org/2000/svg">
<path d="M19.375 10C19.375 10 16.2187 16.25 10 16.25C3.78125 16.25 0.625 10 0.625 10C0.625 10 3.78125 3.75 10 3.75C16.2187 3.75 19.375 10 19.375 10Z" fill="#6B6B6B"/>
<path d="M17.8125 10C17.8125 10 15.1875 15.2188 10 15.2188C4.8125 15.2188 2.1875 10 2.1875 10C2.1875 10 4.8125 4.78125 10 4.78125C15.1875 4.78125 17.8125 10 17.8125 10Z" fill="white"/>
<path d="M14.1875 10C14.1875 12.3438 12.3125 14.2188 9.96875 14.2188C7.625 14.2188 5.75 12.3438 5.75 10C5.75 7.65625 7.625 5.78125 9.96875 5.78125C12.3125 5.78125 14.1875 7.65625 14.1875 10Z" fill="#42ADE2"/>
<path d="M12.3125 10C12.3125 11.2812 11.25 12.3438 9.96875 12.3438C8.6875 12.3438 7.625 11.2812 7.625 10C7.625 8.71875 8.6875 7.65625 9.96875 7.65625C11.25 7.65625 12.3125 8.71875 12.3125 10Z" fill="#6B6B6B"/>
</svg>
