<svg width="30" height="30" viewBox="0 0 30 30" fill="none" xmlns="http://www.w3.org/2000/svg">
<path fill-rule="evenodd" clip-rule="evenodd" d="M0 15C0 6.71573 6.71573 0 15 0C23.2843 0 30 6.71573 30 15C30 23.2843 23.2843 30 15 30C6.71573 30 0 23.2843 0 15ZM8.49807 10.1351C8.80639 9.95617 9.18664 9.9549 9.49614 10.1318L16 13.8482V11C16 10.6435 16.1898 10.314 16.4981 10.1351C16.8064 9.95617 17.1866 9.9549 17.4961 10.1318L24.4961 14.1318C24.8077 14.3098 25 14.6411 25 15C25 15.3589 24.8077 15.6902 24.4961 15.8682L17.4961 19.8682C17.1866 20.0451 16.8064 20.0438 16.4981 19.8649C16.1898 19.686 16 19.3565 16 19V16.1518L9.49614 19.8682C9.18664 20.0451 8.80639 20.0438 8.49807 19.8649C8.18976 19.686 8 19.3565 8 19V11C8 10.6435 8.18976 10.314 8.49807 10.1351Z" fill="#0382F8"/>
</svg>
