<svg width="150" height="150" viewBox="0 0 150 150" fill="none" xmlns="http://www.w3.org/2000/svg">
<path d="M25 60C19.7535 60 14.8846 61.6161 10.8637 64.3776C15.934 33.532 42.7189 10 75 10C107.281 10 134.066 33.532 139.136 64.3777C135.115 61.6161 130.246 60 125 60C116.716 60 110 66.7157 110 75V115C110 121.333 113.925 126.749 119.475 128.95C117.741 135.318 111.917 140 105 140H80V150H105C117.242 150 127.429 141.2 129.581 129.581C141.2 127.429 150 117.242 150 105V75C150 33.5786 116.421 0 75 0C33.5786 0 0 33.5786 0 75V105C0 118.807 11.1929 130 25 130C33.2843 130 40 123.284 40 115V75C40 66.7157 33.2843 60 25 60Z" fill="#0382F8"/>
</svg>
