<svg width="20" height="20" viewBox="0 0 20 20" fill="none" xmlns="http://www.w3.org/2000/svg">
<g clip-path="url(#clip0)">
<path d="M19.7276 8.55009L18.0609 7.03511L10.561 0.216852C10.2435 -0.0723247 9.75683 -0.0723247 9.43933 0.216852L1.93941 7.03511L0.272781 8.55009C-0.0672158 8.85927 -0.0922156 9.38676 0.216961 9.72758C0.526958 10.0684 1.05527 10.0934 1.39445 9.78258L1.66695 9.53508V19.1667C1.66695 19.6267 2.03944 20 2.50026 20H6.6669V13.3334C6.6669 11.4951 8.16188 10.0001 10.0002 10.0001C11.8385 10.0001 13.3335 11.4951 13.3335 13.3334V20H17.5001C17.9609 20 18.3334 19.6267 18.3334 19.1667V9.53508L18.6059 9.78258C18.7659 9.9284 18.9667 10.0001 19.1667 10.0001C19.3934 10.0001 19.6192 9.90758 19.7834 9.72758C20.0926 9.38676 20.0676 8.85927 19.7276 8.55009Z" fill="#666EE8"/>
<path d="M10.0002 11.6665C9.08099 11.6665 8.3335 12.414 8.3335 13.3332V19.9998H11.6668V13.3331C11.6668 12.414 10.9193 11.6665 10.0002 11.6665Z" fill="#666EE8"/>
</g>
<defs>
<clipPath id="clip0">
<rect width="20" height="20" fill="white"/>
</clipPath>
</defs>
</svg>
