<svg width="10" height="10" viewBox="0 0 10 10" fill="none" xmlns="http://www.w3.org/2000/svg">
<g clip-path="url(#clip0)">
<path fill-rule="evenodd" clip-rule="evenodd" d="M1.41721 0.61257C1.51971 0.510058 1.64284 0.430513 1.77842 0.379212C1.91401 0.327911 2.05895 0.306026 2.20364 0.31501C2.34832 0.323994 2.48945 0.363641 2.61764 0.431321C2.74584 0.499 2.85818 0.593166 2.94721 0.70757L3.99784 2.05882C4.19096 2.30632 4.25909 2.62945 4.18284 2.93382L3.86221 4.21695C3.84554 4.28353 3.84639 4.35329 3.86468 4.41944C3.88297 4.4856 3.91808 4.54589 3.96659 4.59445L5.40659 6.03382C5.45514 6.08233 5.51544 6.11744 5.58159 6.13573C5.64774 6.15402 5.71751 6.15487 5.78409 6.1382L7.06659 5.81757C7.21701 5.78 7.37402 5.77713 7.52572 5.80918C7.67741 5.84123 7.81984 5.90736 7.94221 6.00257L9.29346 7.0532C9.77909 7.4307 9.82409 8.14882 9.38909 8.5832L8.78284 9.18945C8.34971 9.62257 7.70159 9.8132 7.09721 9.6007C5.55123 9.05652 4.14757 8.1713 2.99034 7.0107C1.82949 5.85354 0.944053 4.44987 0.399712 2.90382C0.187212 2.29945 0.377837 1.65132 0.810962 1.21757L1.41721 0.611945V0.61257ZM9.90909 0.0913203C9.93819 0.120349 9.96128 0.154834 9.97703 0.192799C9.99279 0.230765 10.0009 0.271466 10.0009 0.31257C10.0009 0.353675 9.99279 0.394376 9.97703 0.432341C9.96128 0.470307 9.93819 0.504792 9.90909 0.53382L7.31721 3.12507H9.06284C9.14572 3.12507 9.2252 3.15799 9.28381 3.2166C9.34241 3.2752 9.37534 3.35469 9.37534 3.43757C9.37534 3.52045 9.34241 3.59994 9.28381 3.65854C9.2252 3.71715 9.14572 3.75007 9.06284 3.75007H6.56284C6.47996 3.75007 6.40047 3.71715 6.34187 3.65854C6.28326 3.59994 6.25034 3.52045 6.25034 3.43757V0.93757C6.25034 0.85469 6.28326 0.775205 6.34187 0.7166C6.40047 0.657994 6.47996 0.62507 6.56284 0.62507C6.64572 0.62507 6.7252 0.657994 6.78381 0.7166C6.84241 0.775205 6.87534 0.85469 6.87534 0.93757V2.6832L9.46659 0.0913203C9.49562 0.0622183 9.5301 0.039129 9.56807 0.023375C9.60603 0.00762097 9.64673 -0.000488281 9.68784 -0.000488281C9.72894 -0.000488281 9.76964 0.00762097 9.80761 0.023375C9.84557 0.039129 9.88006 0.0622183 9.90909 0.0913203Z" fill="#9EA1E4"/>
</g>
<defs>
<clipPath id="clip0">
<rect width="10" height="10" fill="white"/>
</clipPath>
</defs>
</svg>
