<svg width="38" height="38" viewBox="0 0 38 38" fill="none" xmlns="http://www.w3.org/2000/svg">
<path d="M11.3276 9.40871C11.3276 6.95949 11.6876 4.4843 12.6064 2.375C6.49747 5.03426 2.37537 11.2731 2.37537 18.3602C2.37537 27.8951 10.1052 35.625 19.6401 35.625C26.7273 35.625 32.9661 31.5029 35.6254 25.3939C33.5161 26.3128 31.0386 26.6727 28.5916 26.6727C19.0568 26.6727 11.3276 18.9436 11.3276 9.40871Z" fill="#504998"/>
<path d="M20.3209 10.069L18.8332 9.85275L18.1682 8.50451C18.15 8.46759 18.1201 8.43771 18.0832 8.41955C17.9906 8.37384 17.8781 8.41193 17.8318 8.50451L17.1668 9.85275L15.6791 10.069C15.6381 10.0748 15.6006 10.0942 15.5719 10.1235C15.5372 10.1591 15.518 10.2071 15.5187 10.2569C15.5194 10.3067 15.5397 10.3541 15.5754 10.3889L16.6518 11.4383L16.3975 12.9201C16.3915 12.9546 16.3953 12.9901 16.4085 13.0225C16.4216 13.0549 16.4436 13.083 16.4719 13.1035C16.5002 13.1241 16.5337 13.1363 16.5686 13.1388C16.6035 13.1413 16.6384 13.1339 16.6693 13.1176L18 12.418L19.3307 13.1176C19.367 13.1369 19.4092 13.1434 19.4496 13.1363C19.5516 13.1188 19.6201 13.0221 19.6025 12.9201L19.3482 11.4383L20.4246 10.3889C20.4539 10.3602 20.4732 10.3227 20.4791 10.2817C20.4949 10.1791 20.4234 10.0842 20.3209 10.069V10.069Z" fill="#DFDBDB"/>
<path d="M12.3208 14.069L10.8331 13.8528L10.168 12.5046C10.1499 12.4677 10.12 12.4378 10.0831 12.4196C9.9905 12.3739 9.878 12.412 9.83171 12.5046L9.16667 13.8528L7.67898 14.069C7.63796 14.0749 7.60046 14.0942 7.57175 14.1235C7.53704 14.1592 7.51791 14.2072 7.51857 14.257C7.51923 14.3067 7.53962 14.3542 7.57526 14.3889L8.65163 15.4384L8.39733 16.9202C8.39137 16.9547 8.39519 16.9901 8.40835 17.0225C8.42151 17.0549 8.44348 17.083 8.47179 17.1036C8.50009 17.1241 8.53359 17.1364 8.56849 17.1388C8.60338 17.1413 8.63827 17.134 8.66921 17.1177L9.99987 16.418L11.3305 17.1177C11.3669 17.137 11.4091 17.1434 11.4495 17.1364C11.5514 17.1188 11.62 17.0221 11.6024 16.9202L11.3481 15.4384L12.4245 14.3889C12.4538 14.3602 12.4731 14.3227 12.479 14.2817C12.4948 14.1792 12.4233 14.0843 12.3208 14.069V14.069Z" fill="#DBD8D8"/>
<path d="M23.5472 26.3793L22.5554 26.2352L22.112 25.3364C22.0999 25.3118 22.08 25.2918 22.0554 25.2797C21.9937 25.2493 21.9187 25.2747 21.8878 25.3364L21.4444 26.2352L20.4527 26.3793C20.4253 26.3833 20.4003 26.3961 20.3812 26.4157C20.358 26.4395 20.3453 26.4715 20.3457 26.5046C20.3462 26.5378 20.3597 26.5695 20.3835 26.5926L21.1011 27.2922L20.9316 28.2801C20.9276 28.3031 20.9301 28.3267 20.9389 28.3484C20.9477 28.37 20.9623 28.3887 20.9812 28.4024C21.0001 28.4161 21.0224 28.4242 21.0457 28.4259C21.0689 28.4276 21.0922 28.4227 21.1128 28.4118L21.9999 27.9454L22.887 28.4118C22.9112 28.4247 22.9394 28.429 22.9663 28.4243C23.0343 28.4126 23.08 28.3481 23.0683 28.2801L22.8987 27.2922L23.6163 26.5926C23.6359 26.5735 23.6487 26.5485 23.6527 26.5211C23.6632 26.4528 23.6155 26.3895 23.5472 26.3793V26.3793Z" fill="#DBD8D8"/>
<path d="M31.2077 22.4138L29.472 22.1616L28.6962 20.5886C28.675 20.5455 28.6401 20.5107 28.597 20.4895C28.489 20.4362 28.3578 20.4806 28.3038 20.5886L27.5279 22.1616L25.7923 22.4138C25.7444 22.4206 25.7007 22.4432 25.6672 22.4774C25.6267 22.519 25.6044 22.575 25.6051 22.6331C25.6059 22.6911 25.6297 22.7465 25.6713 22.787L26.927 24.0114L26.6303 25.7402C26.6234 25.7804 26.6278 25.8217 26.6432 25.8596C26.6585 25.8974 26.6842 25.9301 26.7172 25.9541C26.7502 25.9781 26.7893 25.9923 26.83 25.9953C26.8707 25.9982 26.9114 25.9896 26.9475 25.9705L28.5 25.1543L30.0524 25.9705C30.0948 25.9931 30.144 26.0006 30.1912 25.9924C30.3101 25.9719 30.3901 25.8591 30.3696 25.7402L30.0729 24.0114L31.3287 22.787C31.3629 22.7535 31.3854 22.7098 31.3923 22.6619C31.4107 22.5423 31.3273 22.4316 31.2077 22.4138V22.4138Z" fill="#DFDBDB"/>
<path d="M21.434 17.7242L20.1942 17.544L19.64 16.4205C19.6249 16.3897 19.6 16.3648 19.5692 16.3497C19.4921 16.3116 19.3983 16.3433 19.3598 16.4205L18.8056 17.544L17.5658 17.7242C17.5316 17.7291 17.5004 17.7452 17.4765 17.7696C17.4475 17.7993 17.4316 17.8393 17.4321 17.8808C17.4327 17.9223 17.4497 17.9618 17.4794 17.9908L18.3764 18.8653L18.1644 20.1002C18.1595 20.1289 18.1627 20.1584 18.1736 20.1854C18.1846 20.2125 18.2029 20.2358 18.2265 20.253C18.2501 20.2701 18.278 20.2803 18.3071 20.2824C18.3362 20.2844 18.3652 20.2783 18.391 20.2647L19.4999 19.6817L20.6088 20.2647C20.6391 20.2808 20.6742 20.2862 20.7079 20.2803C20.7929 20.2657 20.85 20.1851 20.8353 20.1002L20.6234 18.8653L21.5204 17.9908C21.5448 17.9669 21.5609 17.9356 21.5658 17.9014C21.579 17.816 21.5194 17.7369 21.434 17.7242V17.7242Z" fill="#DFDBDB"/>
</svg>
