<svg width="10" height="10" viewBox="0 0 10 10" fill="none" xmlns="http://www.w3.org/2000/svg">
<g clip-path="url(#clip0)">
<path fill-rule="evenodd" clip-rule="evenodd" d="M1.41721 0.6125C1.51971 0.509988 1.64284 0.430443 1.77842 0.379142C1.91401 0.327841 2.05895 0.305956 2.20364 0.31494C2.34832 0.323924 2.48945 0.363571 2.61764 0.43125C2.74584 0.49893 2.85818 0.593096 2.94721 0.7075L3.99784 2.05875C4.19096 2.30625 4.25909 2.62937 4.18284 2.93375L3.86221 4.21688C3.84554 4.28346 3.84639 4.35322 3.86468 4.41937C3.88297 4.48553 3.91808 4.54582 3.96659 4.59437L5.40659 6.03375C5.45514 6.08226 5.51544 6.11737 5.58159 6.13566C5.64774 6.15395 5.71751 6.1548 5.78409 6.13812L7.06659 5.8175C7.21701 5.77993 7.37402 5.77706 7.52571 5.80911C7.67741 5.84116 7.81984 5.90729 7.94221 6.0025L9.29346 7.05312C9.77909 7.43062 9.82409 8.14875 9.38909 8.58313L8.78284 9.18937C8.34971 9.6225 7.70159 9.81312 7.09721 9.60063C5.55123 9.05645 4.14757 8.17123 2.99034 7.01062C1.82949 5.85347 0.944053 4.4498 0.399712 2.90375C0.187212 2.29938 0.377837 1.65125 0.810962 1.2175L1.41721 0.611875V0.6125ZM6.87534 0.3125C6.87534 0.22962 6.90826 0.150134 6.96687 0.0915291C7.02547 0.032924 7.10496 0 7.18784 0H9.68784C9.77072 0 9.8502 0.032924 9.90881 0.0915291C9.96741 0.150134 10.0003 0.22962 10.0003 0.3125V2.8125C10.0003 2.89538 9.96741 2.97487 9.90881 3.03347C9.8502 3.09208 9.77072 3.125 9.68784 3.125C9.60496 3.125 9.52547 3.09208 9.46687 3.03347C9.40826 2.97487 9.37534 2.89538 9.37534 2.8125V1.06687L6.78409 3.65875C6.72541 3.71743 6.64582 3.75039 6.56284 3.75039C6.47985 3.75039 6.40027 3.71743 6.34159 3.65875C6.28291 3.60007 6.24994 3.52048 6.24994 3.4375C6.24994 3.35452 6.28291 3.27493 6.34159 3.21625L8.93346 0.625H7.18784C7.10496 0.625 7.02547 0.592076 6.96687 0.533471C6.90826 0.474866 6.87534 0.39538 6.87534 0.3125Z" fill="#EF679E"/>
</g>
<defs>
<clipPath id="clip0">
<rect width="10" height="10" fill="white"/>
</clipPath>
</defs>
</svg>
