<svg width="20" height="20" viewBox="0 0 20 20" fill="none" xmlns="http://www.w3.org/2000/svg">
<g clip-path="url(#clip0)">
<path d="M17.7845 0H15.8797V6.2149C15.8797 6.36584 15.79 6.50251 15.6513 6.56242C15.603 6.58328 15.5518 6.59348 15.5012 6.59348C15.4066 6.59348 15.3134 6.558 15.2417 6.4906L14.0623 5.38099L12.8828 6.4906C12.7729 6.59409 12.6118 6.62233 12.4733 6.56242C12.3346 6.50251 12.2449 6.36584 12.2449 6.2149V0H3.91198C3.35682 0 2.90672 0.450054 2.90672 1.00526V3.46593H2.16544C1.63884 3.46593 1.21045 3.89427 1.21045 4.42087C1.21045 4.92717 1.60682 5.34149 2.10538 5.37275H4.56856C4.83184 5.37275 5.04606 5.58692 5.04606 5.8502C5.04606 6.11347 4.83184 6.32769 4.56856 6.32769H2.90672V8.49216H2.16544C1.63884 8.49216 1.21045 8.9205 1.21045 9.44711C1.21045 9.96718 1.62849 10.3906 2.14604 10.401H4.55806C4.82133 10.401 5.03555 10.6153 5.03555 10.8784C5.03555 11.1417 4.82133 11.3559 4.55806 11.3559H2.90672V13.5184H2.16544C1.63884 13.5184 1.21045 13.9466 1.21045 14.4733C1.21045 14.9999 1.63884 15.4282 2.16544 15.4282H2.90672V15.4289H4.55806C4.82133 15.4289 5.03555 15.6431 5.03555 15.9064C5.03555 16.1697 4.82133 16.3839 4.55806 16.3839H2.90672V18.9947C2.90672 19.5499 3.35682 20 3.91198 20H17.7845C18.3398 20 18.7898 19.5499 18.7898 18.9947V1.00526C18.7898 0.450054 18.3398 0 17.7845 0Z" fill="#FFCF5A"/>
<rect x="10.0024" width="6.68496" height="11.9626" fill="#FFCF5A"/>
<g clip-path="url(#clip1)">
<path d="M12.7368 13.6376L12.7264 12.4891C12.7235 12.1827 12.4537 11.9172 12.1467 11.92L11.9552 11.9218L11.9764 14.2189L12.1678 14.2171C12.4858 14.2142 12.7399 13.9543 12.7368 13.6376Z" fill="white"/>
<path d="M11.5721 11.9147C11.3574 11.8894 11.1872 11.7149 11.1854 11.4938L11.1653 9.22233C11.1633 9.00101 11.3304 8.82324 11.5443 8.79435L11.5232 6.50255C10.4564 6.594 9.6179 7.4869 9.62789 8.57507L9.66009 12.1692C9.6697 13.2134 10.4642 14.1306 11.5932 14.2066L11.5721 11.9147Z" fill="white"/>
<path d="M12.6875 8.19904L12.677 7.0505C12.6742 6.74409 12.4044 6.47861 12.0974 6.48144L11.9059 6.48319L11.9271 8.78028L12.1185 8.77852C12.4365 8.7756 12.6906 8.51569 12.6875 8.19904Z" fill="white"/>
</g>
</g>
<defs>
<clipPath id="clip0">
<rect width="20" height="20" fill="white"/>
</clipPath>
<clipPath id="clip1">
<rect width="6.53417" height="6.53417" fill="white" transform="translate(11.5718 5.73755) rotate(44.4741)"/>
</clipPath>
</defs>
</svg>
