<svg width="20" height="20" viewBox="0 0 20 20" fill="none" xmlns="http://www.w3.org/2000/svg">
<g clip-path="url(#clip0)">
<path d="M19.4845 14.7572L16.9989 12.271C16.3357 11.6078 15.1769 11.6066 14.5126 12.271L14.0981 12.6854L19.0702 17.6572L19.4845 17.2429C20.1728 16.5546 20.1705 15.4419 19.4845 14.7572Z" fill="#FF8DD2"/>
<path d="M13.2467 13.491C12.7236 13.8962 11.9775 13.88 11.4995 13.4011L6.58482 8.48295C6.1058 8.00392 6.08967 7.25721 6.49486 6.73545L1.53429 1.77515C-0.599733 4.26264 -0.516297 8.0108 1.83897 10.3661L9.61642 18.1469C11.8766 20.407 15.5787 20.7068 18.2075 18.4515L13.2467 13.491Z" fill="#FF8DD2"/>
<path d="M7.71497 2.98403L5.22931 0.497826C4.56611 -0.165376 3.4074 -0.166508 2.7431 0.497826L2.32861 0.912318L7.30064 5.88407L7.71497 5.46969C8.40317 4.78149 8.40091 3.66884 7.71497 2.98403Z" fill="#FF8DD2"/>
</g>
<defs>
<clipPath id="clip0">
<rect width="20" height="20" fill="white"/>
</clipPath>
</defs>
</svg>
