<svg width="30" height="30" viewBox="0 0 30 30" fill="none" xmlns="http://www.w3.org/2000/svg">
<path fill-rule="evenodd" clip-rule="evenodd" d="M0 15C0 6.71573 6.71573 0 15 0C23.2843 0 30 6.71573 30 15C30 23.2843 23.2843 30 15 30C6.71573 30 0 23.2843 0 15ZM12.4981 10.1351C12.8064 9.95617 13.1866 9.9549 13.4961 10.1318L20.4961 14.1318C20.8077 14.3098 21 14.6411 21 15C21 15.3589 20.8077 15.6902 20.4961 15.8682L13.4961 19.8682C13.1866 20.0451 12.8064 20.0438 12.4981 19.8649C12.1898 19.686 12 19.3565 12 19V11C12 10.6435 12.1898 10.314 12.4981 10.1351Z" fill="#30C0A6"/>
</svg>
