<svg width="30" height="30" viewBox="0 0 30 30" fill="none" xmlns="http://www.w3.org/2000/svg">
<path fill-rule="evenodd" clip-rule="evenodd" d="M30 15C30 6.71573 23.2843 0 15 0C6.71573 0 0 6.71573 0 15C0 23.2843 6.71573 30 15 30C23.2843 30 30 23.2843 30 15ZM21.5019 10.1351C21.1936 9.95617 20.8134 9.9549 20.5039 10.1318L14 13.8482V11C14 10.6435 13.8102 10.314 13.5019 10.1351C13.1936 9.95617 12.8134 9.9549 12.5039 10.1318L5.50386 14.1318C5.19229 14.3098 5 14.6411 5 15C5 15.3589 5.19229 15.6902 5.50386 15.8682L12.5039 19.8682C12.8134 20.0451 13.1936 20.0438 13.5019 19.8649C13.8102 19.686 14 19.3565 14 19V16.1518L20.5039 19.8682C20.8134 20.0451 21.1936 20.0438 21.5019 19.8649C21.8102 19.686 22 19.3565 22 19V11C22 10.6435 21.8102 10.314 21.5019 10.1351Z" fill="#448AFF"/>
</svg>
