<svg width="50" height="50" viewBox="0 0 50 50" fill="none" xmlns="http://www.w3.org/2000/svg">
<path d="M25 11.5298C24.4302 11.5298 23.8837 11.3034 23.4808 10.9005C23.0779 10.4976 22.8516 9.95115 22.8516 9.38135V4.69385C22.8516 4.12405 23.0779 3.57758 23.4808 3.17467C23.8837 2.77176 24.4302 2.54541 25 2.54541C25.5698 2.54541 26.1163 2.77176 26.5192 3.17467C26.9221 3.57758 27.1484 4.12405 27.1484 4.69385V9.38135C27.1484 9.95115 26.9221 10.4976 26.5192 10.9005C26.1163 11.3034 25.5698 11.5298 25 11.5298Z" fill="#9CAEC0"/>
<path d="M25 47.4639C24.4302 47.4639 23.8837 47.2375 23.4808 46.8346C23.0779 46.4317 22.8516 45.8852 22.8516 45.3154V40.6279C22.8516 40.0581 23.0779 39.5117 23.4808 39.1088C23.8837 38.7058 24.4302 38.4795 25 38.4795C25.5698 38.4795 26.1163 38.7058 26.5192 39.1088C26.9221 39.5117 27.1484 40.0581 27.1484 40.6279V45.3154C27.1484 45.8852 26.9221 46.4317 26.5192 46.8346C26.1163 47.2375 25.5698 47.4639 25 47.4639Z" fill="#9CAEC0"/>
<path d="M36.0485 16.106C35.6237 16.1059 35.2084 15.9799 34.8552 15.7439C34.5019 15.5079 34.2266 15.1724 34.064 14.78C33.9014 14.3875 33.8587 13.9557 33.9415 13.539C34.0243 13.1223 34.2287 12.7395 34.529 12.439L37.8434 9.12452C38.2481 8.73037 38.7917 8.51146 39.3566 8.51518C39.9215 8.5189 40.4622 8.74496 40.8616 9.1444C41.2611 9.54384 41.4871 10.0845 41.4909 10.6494C41.4946 11.2143 41.2757 11.7579 40.8815 12.1626L37.5671 15.4771C37.3678 15.6767 37.1311 15.8351 36.8705 15.943C36.6099 16.0509 36.3306 16.1063 36.0485 16.106V16.106Z" fill="#9CAEC0"/>
<path d="M10.6366 41.5166C10.2117 41.5165 9.79632 41.3905 9.44303 41.1543C9.08974 40.9182 8.81441 40.5826 8.65186 40.19C8.48931 39.7973 8.44685 39.3653 8.52983 38.9486C8.61282 38.5318 8.81754 38.149 9.11809 37.8486L12.4325 34.5342C12.6311 34.3303 12.8681 34.168 13.1298 34.0565C13.3916 33.9451 13.6729 33.8867 13.9574 33.8848C14.242 33.8829 14.524 33.9376 14.7872 34.0456C15.0504 34.1536 15.2896 34.3128 15.4908 34.514C15.6919 34.7152 15.8512 34.9544 15.9592 35.2176C16.0672 35.4808 16.1219 35.7628 16.12 36.0473C16.1181 36.3319 16.0597 36.6132 15.9483 36.8749C15.8368 37.1367 15.6744 37.3737 15.4706 37.5723L12.1562 40.8867C11.9569 41.0866 11.72 41.2452 11.4593 41.3533C11.1985 41.4614 10.9189 41.5169 10.6366 41.5166V41.5166Z" fill="#9CAEC0"/>
<path d="M45.3124 27.1543H40.6249C40.0551 27.1543 39.5087 26.9279 39.1058 26.525C38.7029 26.1221 38.4765 25.5757 38.4765 25.0059C38.4765 24.4361 38.7029 23.8896 39.1058 23.4867C39.5087 23.0838 40.0551 22.8574 40.6249 22.8574H45.3124C45.8822 22.8574 46.4287 23.0838 46.8316 23.4867C47.2345 23.8896 47.4609 24.4361 47.4609 25.0059C47.4609 25.5757 47.2345 26.1221 46.8316 26.525C46.4287 26.9279 45.8822 27.1543 45.3124 27.1543Z" fill="#9CAEC0"/>
<path d="M9.37494 27.1543H4.68744C4.11764 27.1543 3.57117 26.9279 3.16826 26.525C2.76535 26.1221 2.539 25.5757 2.539 25.0059C2.539 24.4361 2.76535 23.8896 3.16826 23.4867C3.57117 23.0838 4.11764 22.8574 4.68744 22.8574H9.37494C9.94474 22.8574 10.4912 23.0838 10.8941 23.4867C11.297 23.8896 11.5234 24.4361 11.5234 25.0059C11.5234 25.5757 11.297 26.1221 10.8941 26.525C10.4912 26.9279 9.94474 27.1543 9.37494 27.1543Z" fill="#9CAEC0"/>
<path d="M39.363 41.5166C39.0808 41.5169 38.8012 41.4614 38.5404 41.3533C38.2797 41.2452 38.0428 41.0866 37.8435 40.8867L34.5291 37.5723C34.1349 37.1676 33.916 36.624 33.9197 36.0591C33.9234 35.4942 34.1495 34.9535 34.5489 34.5541C34.9484 34.1546 35.4891 33.9286 36.054 33.9249C36.6189 33.9211 37.1625 34.14 37.5672 34.5342L40.8816 37.8486C41.1822 38.149 41.3869 38.5318 41.4699 38.9486C41.5528 39.3654 41.5104 39.7974 41.3478 40.19C41.1853 40.5826 40.91 40.9182 40.5567 41.1544C40.2034 41.3905 39.788 41.5166 39.363 41.5166V41.5166Z" fill="#9CAEC0"/>
<path d="M13.9512 16.106C13.6691 16.1065 13.3897 16.0512 13.129 15.9433C12.8684 15.8354 12.6317 15.6769 12.4326 15.4771L9.11818 12.1626C8.72403 11.7579 8.50512 11.2143 8.50884 10.6494C8.51256 10.0845 8.73861 9.54384 9.13805 9.1444C9.5375 8.74496 10.0782 8.5189 10.6431 8.51518C11.208 8.51146 11.7516 8.73037 12.1563 9.12452L15.4707 12.439C15.771 12.7395 15.9754 13.1223 16.0582 13.539C16.141 13.9557 16.0983 14.3875 15.9357 14.78C15.7731 15.1724 15.4977 15.5079 15.1445 15.7439C14.7913 15.9799 14.376 16.1059 13.9512 16.106V16.106Z" fill="#9CAEC0"/>
<path d="M24.9998 34.9683C23.0297 34.9683 21.1039 34.3841 19.4658 33.2895C17.8278 32.195 16.551 30.6393 15.7971 28.8192C15.0432 26.9991 14.8459 24.9963 15.2303 23.064C15.6146 21.1318 16.5633 19.3569 17.9564 17.9639C19.3494 16.5708 21.1243 15.6221 23.0565 15.2378C24.9888 14.8534 26.9916 15.0507 28.8117 15.8046C30.6318 16.5585 32.1875 17.8353 33.282 19.4733C34.3766 21.1114 34.9608 23.0372 34.9608 25.0073C34.9577 27.6482 33.9072 30.18 32.0398 32.0473C30.1725 33.9147 27.6407 34.9652 24.9998 34.9683V34.9683Z" fill="#9CAEC0"/>
</svg>
