<svg width="50" height="50" viewBox="0 0 50 50" fill="none" xmlns="http://www.w3.org/2000/svg">
<path d="M25 11.5298C24.4302 11.5298 23.8837 11.3034 23.4808 10.9005C23.0779 10.4976 22.8516 9.95115 22.8516 9.38135V4.69385C22.8516 4.12405 23.0779 3.57758 23.4808 3.17467C23.8837 2.77176 24.4302 2.54541 25 2.54541C25.5698 2.54541 26.1163 2.77176 26.5192 3.17467C26.9221 3.57758 27.1484 4.12405 27.1484 4.69385V9.38135C27.1484 9.95115 26.9221 10.4976 26.5192 10.9005C26.1163 11.3034 25.5698 11.5298 25 11.5298Z" fill="#ECC663"/>
<path d="M25 47.4639C24.4302 47.4639 23.8837 47.2375 23.4808 46.8346C23.0779 46.4317 22.8516 45.8852 22.8516 45.3154V40.6279C22.8516 40.0581 23.0779 39.5117 23.4808 39.1088C23.8837 38.7058 24.4302 38.4795 25 38.4795C25.5698 38.4795 26.1163 38.7058 26.5192 39.1088C26.9221 39.5117 27.1484 40.0581 27.1484 40.6279V45.3154C27.1484 45.8852 26.9221 46.4317 26.5192 46.8346C26.1163 47.2375 25.5698 47.4639 25 47.4639Z" fill="#ECC663"/>
<path d="M36.0484 16.106C35.6236 16.1059 35.2083 15.9799 34.8551 15.7439C34.5018 15.5079 34.2265 15.1724 34.0639 14.78C33.9013 14.3875 33.8586 13.9557 33.9414 13.539C34.0242 13.1223 34.2286 12.7395 34.5289 12.439L37.8433 9.12452C38.248 8.73037 38.7916 8.51146 39.3565 8.51518C39.9214 8.5189 40.4621 8.74496 40.8615 9.1444C41.261 9.54384 41.487 10.0845 41.4908 10.6494C41.4945 11.2143 41.2756 11.7579 40.8814 12.1626L37.567 15.4771C37.3677 15.6767 37.131 15.8351 36.8704 15.943C36.6098 16.0509 36.3305 16.1063 36.0484 16.106Z" fill="#ECC663"/>
<path d="M10.6367 41.5166C10.2118 41.5165 9.79638 41.3905 9.44309 41.1543C9.0898 40.9182 8.81447 40.5826 8.65192 40.19C8.48937 39.7973 8.44691 39.3653 8.52989 38.9486C8.61288 38.5318 8.8176 38.149 9.11815 37.8486L12.4326 34.5342C12.6312 34.3303 12.8682 34.168 13.1299 34.0565C13.3917 33.9451 13.673 33.8867 13.9575 33.8848C14.2421 33.8829 14.5241 33.9376 14.7873 34.0456C15.0505 34.1536 15.2897 34.3128 15.4909 34.514C15.692 34.7152 15.8513 34.9544 15.9593 35.2176C16.0673 35.4808 16.122 35.7628 16.1201 36.0473C16.1182 36.3319 16.0598 36.6132 15.9484 36.8749C15.8369 37.1367 15.6745 37.3737 15.4707 37.5723L12.1563 40.8867C11.957 41.0866 11.7201 41.2452 11.4594 41.3533C11.1986 41.4614 10.919 41.5169 10.6367 41.5166Z" fill="#ECC663"/>
<path d="M45.3125 27.1543H40.625C40.0552 27.1543 39.5088 26.9279 39.1059 26.525C38.703 26.1221 38.4766 25.5757 38.4766 25.0059C38.4766 24.4361 38.703 23.8896 39.1059 23.4867C39.5088 23.0838 40.0552 22.8574 40.625 22.8574H45.3125C45.8823 22.8574 46.4288 23.0838 46.8317 23.4867C47.2346 23.8896 47.461 24.4361 47.461 25.0059C47.461 25.5757 47.2346 26.1221 46.8317 26.525C46.4288 26.9279 45.8823 27.1543 45.3125 27.1543Z" fill="#ECC663"/>
<path d="M9.37488 27.1543H4.68738C4.11758 27.1543 3.57111 26.9279 3.1682 26.525C2.76529 26.1221 2.53894 25.5757 2.53894 25.0059C2.53894 24.4361 2.76529 23.8896 3.1682 23.4867C3.57111 23.0838 4.11758 22.8574 4.68738 22.8574H9.37488C9.94468 22.8574 10.4911 23.0838 10.894 23.4867C11.2969 23.8896 11.5233 24.4361 11.5233 25.0059C11.5233 25.5757 11.2969 26.1221 10.894 26.525C10.4911 26.9279 9.94468 27.1543 9.37488 27.1543Z" fill="#ECC663"/>
<path d="M39.363 41.5166C39.0808 41.5169 38.8012 41.4614 38.5404 41.3533C38.2797 41.2452 38.0428 41.0866 37.8435 40.8867L34.5291 37.5723C34.1349 37.1676 33.916 36.624 33.9197 36.0591C33.9234 35.4942 34.1495 34.9535 34.5489 34.5541C34.9484 34.1546 35.4891 33.9286 36.054 33.9249C36.6189 33.9211 37.1625 34.14 37.5672 34.5342L40.8816 37.8486C41.1822 38.149 41.3869 38.5318 41.4699 38.9486C41.5528 39.3654 41.5104 39.7974 41.3478 40.19C41.1853 40.5826 40.91 40.9182 40.5567 41.1544C40.2034 41.3905 39.788 41.5166 39.363 41.5166Z" fill="#ECC663"/>
<path d="M13.9512 16.106C13.6691 16.1065 13.3897 16.0512 13.129 15.9433C12.8684 15.8354 12.6317 15.6769 12.4326 15.4771L9.11818 12.1626C8.72403 11.7579 8.50512 11.2143 8.50884 10.6494C8.51256 10.0845 8.73861 9.54384 9.13805 9.1444C9.5375 8.74496 10.0782 8.5189 10.6431 8.51518C11.208 8.51146 11.7516 8.73037 12.1563 9.12452L15.4707 12.439C15.771 12.7395 15.9754 13.1223 16.0582 13.539C16.141 13.9557 16.0983 14.3875 15.9357 14.78C15.7731 15.1724 15.4977 15.5079 15.1445 15.7439C14.7913 15.9799 14.376 16.1059 13.9512 16.106Z" fill="#ECC663"/>
<path d="M24.9997 34.9683C23.0296 34.9683 21.1038 34.3841 19.4657 33.2895C17.8277 32.195 16.5509 30.6393 15.797 28.8192C15.0431 26.9991 14.8458 24.9963 15.2302 23.064C15.6145 21.1318 16.5632 19.3569 17.9563 17.9639C19.3493 16.5708 21.1242 15.6221 23.0564 15.2378C24.9887 14.8534 26.9915 15.0507 28.8116 15.8046C30.6317 16.5585 32.1875 17.8353 33.2819 19.4733C34.3765 21.1114 34.9607 23.0372 34.9607 25.0073C34.9576 27.6482 33.9071 30.18 32.0397 32.0473C30.1724 33.9147 27.6406 34.9652 24.9997 34.9683Z" fill="#ECC663"/>
</svg>
