<svg width="20" height="21" viewBox="0 0 20 21" fill="none" xmlns="http://www.w3.org/2000/svg">
<g clip-path="url(#clip0)">
<path d="M5.79723 2.62505L10.2466 18.8902C10.5456 19.9833 11.6739 20.6269 12.7664 20.3277C13.8596 20.0283 14.5027 18.8996 14.2035 17.8066L9.75332 1.54099C9.4541 0.448257 8.32598 -0.195571 7.23348 0.10396C6.14129 0.402788 5.49801 1.53185 5.79723 2.6249V2.62505V2.62505Z" fill="#FF79F4"/>
<path d="M14.036 2.56336L2.89416 15.145C2.14252 15.9934 2.22103 17.2906 3.06861 18.0424C3.91627 18.794 5.2122 18.7156 5.96384 17.8676L17.1057 5.28617C17.8574 4.43774 17.7788 3.14094 16.9313 2.38906C16.0833 1.63672 14.787 1.71531 14.036 2.56328V2.56336Z" fill="#FF79F4"/>
<path d="M1.41151 9.53533L17.3011 14.7926C18.3765 15.1482 19.5367 14.5645 19.8923 13.4882C20.2487 12.4121 19.6649 11.2515 18.5891 10.8953L2.69987 5.63853C1.62409 5.28267 0.464402 5.86634 0.108543 6.94259C-0.246926 8.01876 0.336981 9.1797 1.41182 9.53533H1.41151V9.53533Z" fill="#FF79F4"/>
</g>
<defs>
<clipPath id="clip0">
<rect width="20" height="20.4688" fill="white"/>
</clipPath>
</defs>
</svg>
