<svg width="33" height="27" viewBox="0 0 33 27" fill="none" xmlns="http://www.w3.org/2000/svg">
<path d="M7.7037 5.81482C4.99643 5.81482 2.80135 8.00781 2.80135 10.7144C2.80135 13.4211 4.99643 15.614 7.7037 15.614C10.411 15.614 12.6061 13.4211 12.6061 10.7144C12.6061 8.00781 10.411 5.81482 7.7037 5.81482Z" fill="#0382F8"/>
<path d="M4.90236 18.4127C2.19502 18.4127 0 20.6067 0 23.3143V26.8121H15.4074V23.3143C15.4074 20.6067 13.2124 18.4127 10.5051 18.4127H4.90236Z" fill="#0382F8"/>
<path d="M16.3704 11.5926C16.3704 10.3463 15.8871 9.14847 15.0222 8.25111C14.8447 8.06723 14.6014 7.96139 14.3459 7.95687C14.0904 7.95236 13.8435 8.04954 13.6596 8.22704C13.4757 8.40454 13.3699 8.64781 13.3654 8.90335C13.3609 9.15888 13.4581 9.40575 13.6356 9.58963C14.1363 10.1365 14.4141 10.8511 14.4141 11.5926C14.4141 12.3341 14.1363 13.0487 13.6356 13.5956C13.4581 13.7794 13.3609 14.0263 13.3654 14.2818C13.3699 14.5374 13.4757 14.7807 13.6596 14.9581C13.8435 15.1356 14.0904 15.2328 14.3459 15.2283C14.6014 15.2238 14.8447 15.118 15.0222 14.9341C15.8871 14.0367 16.3704 12.8389 16.3704 11.5926V11.5926ZM21.1852 11.5926C21.1844 10.4295 20.9496 9.27853 20.4946 8.20815C20.0397 7.13776 19.3739 6.1699 18.537 5.36222C18.4441 5.27434 18.3347 5.20561 18.2152 5.15999C18.0957 5.11436 17.9684 5.09271 17.8405 5.09629C17.7127 5.09987 17.5868 5.12859 17.47 5.18083C17.3532 5.23307 17.2479 5.3078 17.16 5.40074C16.9825 5.58846 16.8868 5.83899 16.8941 6.09724C16.8976 6.22511 16.9264 6.35102 16.9786 6.46779C17.0308 6.58456 17.1056 6.68989 17.1985 6.77778C17.8509 7.40658 18.3698 8.16046 18.7243 8.99435C19.0787 9.82824 19.2614 10.725 19.2614 11.6311C19.2614 12.5372 19.0787 13.434 18.7243 14.2679C18.3698 15.1018 17.8509 15.8556 17.1985 16.4844C17.1075 16.5736 17.0351 16.68 16.9856 16.7973C16.936 16.9147 16.9102 17.0407 16.9096 17.1681C16.9103 17.3563 16.9662 17.5402 17.0702 17.697C17.1743 17.8538 17.322 17.9766 17.4952 18.0504C17.6683 18.1242 17.8592 18.1456 18.0444 18.112C18.2296 18.0784 18.4008 17.9913 18.537 17.8615C19.3786 17.0493 20.047 16.0752 20.5022 14.9978C20.9573 13.9205 21.1896 12.7621 21.1852 11.5926Z" fill="#0382F8"/>
<path d="M22.2156 20.9526C24.6397 18.4397 25.9944 15.0842 25.9944 11.5926C25.9944 8.10096 24.6397 4.74552 22.2156 2.23259C22.0349 2.07008 21.7994 1.98191 21.5564 1.98576C21.3134 1.98961 21.0808 2.0852 20.9054 2.25335C20.7299 2.42151 20.6245 2.64979 20.6103 2.8924C20.5961 3.13502 20.6742 3.37403 20.8289 3.56148C22.9117 5.71621 24.0759 8.5958 24.0759 11.5926C24.0759 14.5894 22.9117 17.469 20.8289 19.6237C20.6568 19.8022 20.5602 20.0402 20.5593 20.2881C20.5598 20.4179 20.5865 20.5461 20.6378 20.6653C20.689 20.7844 20.7639 20.892 20.8578 20.9815C21.042 21.157 21.2882 21.2526 21.5426 21.2471C21.797 21.2417 22.039 21.1358 22.2156 20.9526V20.9526Z" fill="#0382F8"/>
</svg>
