<svg width="14" height="14" viewBox="0 0 14 14" fill="none" xmlns="http://www.w3.org/2000/svg">
<path fill-rule="evenodd" clip-rule="evenodd" d="M7.00002 12.8334C3.78002 12.8334 1.16669 10.2259 1.16669 7.00005C1.16669 3.78005 3.78002 1.16672 7.00002 1.16672C10.2259 1.16672 12.8334 3.78005 12.8334 7.00005C12.8334 10.2259 10.2259 12.8334 7.00002 12.8334ZM8.86084 9.16422C8.93084 9.20505 9.00668 9.22839 9.08834 9.22839C9.23418 9.22839 9.38001 9.15255 9.46168 9.01255C9.58418 8.80839 9.52001 8.54005 9.31001 8.41172L7.23334 7.17505V4.48005C7.23334 4.23505 7.03501 4.04255 6.79584 4.04255C6.55668 4.04255 6.35834 4.23505 6.35834 4.48005V7.42589C6.35834 7.57755 6.44001 7.71755 6.57418 7.79922L8.86084 9.16422Z" fill="#0070E0"/>
</svg>
