<svg width="23" height="23" viewBox="0 0 23 23" fill="none" xmlns="http://www.w3.org/2000/svg">
<path fill-rule="evenodd" clip-rule="evenodd" d="M18.4 3.06667H20.7C21.9703 3.06667 23 4.09641 23 5.36667V20.7C23 21.9703 21.9703 23 20.7 23H2.3C1.02975 23 0 21.9703 0 20.7V5.36667C0 4.09641 1.02975 3.06667 2.3 3.06667H4.6V0H6.13333V3.06667H16.8667V0H18.4V3.06667ZM9.2 12.2667H4.6V10.7333H9.2V12.2667ZM18.4 10.7333H13.8V12.2667H18.4V10.7333ZM9.2 16.8667H4.6V15.3333H9.2V16.8667ZM13.8 16.8667H18.4V15.3333H13.8V16.8667Z" fill="#EC0055"/>
</svg>
