<svg width="40" height="40" viewBox="0 0 40 40" fill="none" xmlns="http://www.w3.org/2000/svg">
<path d="M29.6551 39.9997V29.31C29.6551 22.2638 23.9427 16.5514 16.8965 16.5514H16.2068C9.16066 16.5514 3.44824 22.2638 3.44824 29.31V39.9997" fill="#90BAE1"/>
<path d="M26.2068 9.65516C26.2068 14.9876 21.8841 19.3103 16.5516 19.3103C11.2192 19.3103 6.89648 14.9876 6.89648 9.65516C6.89648 4.32273 11.2192 0 16.5516 0C21.8841 0 26.2068 4.32273 26.2068 9.65516Z" fill="#B0D3F0"/>
<path d="M28.9656 37.2409C33.1553 37.2409 36.5517 33.8445 36.5517 29.6548C36.5517 25.465 33.1553 22.0686 28.9656 22.0686C24.7758 22.0686 21.3794 25.465 21.3794 29.6548C21.3794 33.8445 24.7758 37.2409 28.9656 37.2409Z" fill="#285680"/>
<g clip-path="url(#clip0)">
<path d="M25.6721 30.4446L25.1443 32.7223C25.1261 32.8056 25.1267 32.8919 25.1461 32.9749C25.1655 33.0579 25.2033 33.1355 25.2565 33.202C25.3097 33.2686 25.3772 33.3224 25.4539 33.3596C25.5306 33.3967 25.6146 33.4163 25.6999 33.4168C25.7396 33.4208 25.7796 33.4208 25.8193 33.4168L28.111 32.889L32.511 28.5057L30.0554 26.0557L25.6721 30.4446Z" fill="#E9EAEC"/>
<path d="M33.8943 26.3112L32.2554 24.6723C32.1477 24.5651 32.0019 24.5049 31.8499 24.5049C31.6979 24.5049 31.5521 24.5651 31.4443 24.6723L30.5332 25.5834L32.986 28.0362L33.8971 27.125C33.9504 27.0715 33.9926 27.0079 34.0214 26.938C34.0501 26.868 34.0647 26.7931 34.0645 26.7175C34.0642 26.6419 34.0491 26.5671 34.0199 26.4974C33.9907 26.4277 33.948 26.3644 33.8943 26.3112V26.3112Z" fill="#E9EAEC"/>
</g>
<defs>
<clipPath id="clip0">
<rect width="10" height="10" fill="white" transform="translate(24.5 24)"/>
</clipPath>
</defs>
</svg>
