<svg width="14" height="14" viewBox="0 0 14 14" fill="none" xmlns="http://www.w3.org/2000/svg">
<path fill-rule="evenodd" clip-rule="evenodd" d="M10.0881 4.2531C10.0881 5.96637 8.71446 7.34013 6.99999 7.34013C5.2861 7.34013 3.91183 5.96637 3.91183 4.2531C3.91183 2.53984 5.2861 1.16666 6.99999 1.16666C8.71446 1.16666 10.0881 2.53984 10.0881 4.2531ZM6.99998 12.8333C4.4697 12.8333 2.33331 12.4221 2.33331 10.8354C2.33331 9.24814 4.48312 8.85147 6.99998 8.85147C9.53084 8.85147 11.6666 9.26272 11.6666 10.8494C11.6666 12.4367 9.51684 12.8333 6.99998 12.8333Z" fill="#A6A9CA"/>
<path d="M9.03537 7.64747C8.97687 7.67903 8.9404 7.73904 8.9404 7.80432V8.82068H6.93357C6.83224 8.82068 6.75 8.90101 6.75 8.99999C6.75 9.09898 6.83224 9.17931 6.93357 9.17931H8.9404V10.1957C8.9404 10.2612 8.97687 10.3212 9.03537 10.3525C9.09387 10.3843 9.16534 10.3822 9.22188 10.3475L11.1643 9.15181C11.2177 9.11882 11.25 9.06168 11.25 8.99999C11.25 8.93831 11.2177 8.88117 11.1643 8.84817L9.22188 7.6525C9.19202 7.63432 9.158 7.625 9.12397 7.625C9.09362 7.625 9.06303 7.63265 9.03537 7.64747" fill="#03E277"/>
<path d="M9.03537 7.64747C8.97687 7.67903 8.9404 7.73904 8.9404 7.80432V8.82068H6.93357C6.83224 8.82068 6.75 8.90101 6.75 8.99999C6.75 9.09898 6.83224 9.17931 6.93357 9.17931H8.9404V10.1957C8.9404 10.2612 8.97687 10.3212 9.03537 10.3525C9.09387 10.3843 9.16534 10.3822 9.22188 10.3475L11.1643 9.15181C11.2177 9.11882 11.25 9.06168 11.25 8.99999C11.25 8.93831 11.2177 8.88117 11.1643 8.84817L9.22188 7.6525C9.19202 7.63432 9.158 7.625 9.12397 7.625C9.09362 7.625 9.06303 7.63265 9.03537 7.64747" stroke="#009950" stroke-width="0.2"/>
</svg>
