<svg width="14" height="14" viewBox="0 0 14 14" fill="none" xmlns="http://www.w3.org/2000/svg">
<path fill-rule="evenodd" clip-rule="evenodd" d="M10.0881 4.2531C10.0881 5.96637 8.71446 7.34013 6.99999 7.34013C5.2861 7.34013 3.91183 5.96637 3.91183 4.2531C3.91183 2.53984 5.2861 1.16666 6.99999 1.16666C8.71446 1.16666 10.0881 2.53984 10.0881 4.2531ZM6.99998 12.8333C4.4697 12.8333 2.33331 12.4221 2.33331 10.8354C2.33331 9.24814 4.48312 8.85147 6.99998 8.85147C9.53084 8.85147 11.6666 9.26272 11.6666 10.8494C11.6666 12.4367 9.51684 12.8333 6.99998 12.8333Z" fill="#A6A9CA"/>
<path d="M8.96463 10.3525C9.02313 10.321 9.0596 10.261 9.0596 10.1957V9.17932H11.0664C11.1678 9.17932 11.25 9.09899 11.25 9.00001C11.25 8.90102 11.1678 8.82069 11.0664 8.82069H9.0596V7.80433C9.0596 7.73882 9.02313 7.67881 8.96463 7.64749C8.90613 7.61569 8.83466 7.61784 8.77812 7.65251L6.83567 8.84819C6.78231 8.88118 6.75 8.93832 6.75 9.00001C6.75 9.06169 6.78231 9.11883 6.83567 9.15183L8.77812 10.3475C8.80798 10.3657 8.842 10.375 8.87603 10.375C8.90638 10.375 8.93697 10.3673 8.96463 10.3525" fill="#EA0457"/>
<path d="M8.96463 10.3525C9.02313 10.321 9.0596 10.261 9.0596 10.1957V9.17932H11.0664C11.1678 9.17932 11.25 9.09899 11.25 9.00001C11.25 8.90102 11.1678 8.82069 11.0664 8.82069H9.0596V7.80433C9.0596 7.73882 9.02313 7.67881 8.96463 7.64749C8.90613 7.61569 8.83466 7.61784 8.77812 7.65251L6.83567 8.84819C6.78231 8.88118 6.75 8.93832 6.75 9.00001C6.75 9.06169 6.78231 9.11883 6.83567 9.15183L8.77812 10.3475C8.80798 10.3657 8.842 10.375 8.87603 10.375C8.90638 10.375 8.93697 10.3673 8.96463 10.3525" stroke="#920034" stroke-width="0.2"/>
</svg>
