<svg width="124" height="100" viewBox="0 0 124 100" fill="none" xmlns="http://www.w3.org/2000/svg">
<path d="M25.7808 37.8479C44.9893 13.7912 91.6387 -10.2655 105.359 11.5358C119.08 33.3372 105.359 62.2805 89.9238 80.6989C74.4884 99.1173 10.3453 108.139 2.45608 90.4719C-5.43316 72.8052 6.5722 61.9046 25.7808 37.8479Z" fill="#D7E7FF" fill-opacity="0.62"/>
<g clip-path="url(#clip0)">
<path d="M105.313 43.8383C104.467 43.8383 103.622 43.8984 102.787 44.0113L102.077 40.7437C103.135 40.5875 104.215 40.5055 105.313 40.5055C108.376 40.5055 111.34 41.1219 114.122 42.3379C114.863 42.6617 115.727 42.3234 116.051 41.5822C116.375 40.841 116.036 39.9773 115.295 39.6533C112.141 38.2748 108.782 37.5758 105.313 37.5758C104.002 37.5758 102.713 37.6791 101.453 37.8754L99.0859 26.9857L100.691 25.3809C101.799 24.2725 102.128 22.6203 101.528 21.1721C100.928 19.7238 99.5277 18.7879 97.9599 18.7879H86.525C85.716 18.7879 85.0601 19.4437 85.0601 20.2527C85.0601 21.0617 85.716 21.7176 86.525 21.7176H97.9599C98.5222 21.7176 98.7496 22.1201 98.8212 22.2932C98.8929 22.4662 99.0167 22.9117 98.6191 23.3092L96.4486 25.4797C96.096 25.8322 95.947 26.3396 96.0531 26.8266L96.591 29.3006C89.508 31.1584 83.1083 35.3125 78.4992 41.0639C75.7759 44.4619 73.7392 48.3518 72.4753 52.4851L65.6722 30.1322L68.8255 29.7818C70.8253 29.5598 72.3334 27.8748 72.3334 25.8627C72.3334 23.6883 70.5644 21.9193 68.39 21.9193H59.055C56.9916 21.9193 55.3128 23.598 55.3128 25.6617V27.1023C55.3128 28.1654 55.7671 29.1818 56.5593 29.8908C57.2484 30.5076 58.1402 30.8445 59.0562 30.8445C59.1931 30.8445 59.3308 30.8369 59.4683 30.8217L62.7101 30.4615L64.3427 35.826L60.5435 40.4393C57.0773 38.6123 53.1324 37.576 48.9494 37.576C35.1921 37.5756 23.9998 48.768 23.9998 62.5252C23.9998 63.3342 24.6556 63.99 25.4646 63.99C26.2736 63.99 26.9294 63.3342 26.9294 62.5252C26.9294 50.3834 36.8076 40.5053 48.9494 40.5053C52.4236 40.5053 55.7117 41.3152 58.6367 42.7543L56.4531 45.4059C54.0894 44.3652 51.5703 43.8383 48.9494 43.8383C38.6453 43.8383 30.2625 52.2211 30.2625 62.5252C30.2625 72.8293 38.6453 81.2123 48.9494 81.2123C58.7605 81.2123 66.8296 73.6121 67.5792 63.99H72.9144L74.8818 70.4543H73.7275C72.9185 70.4543 72.2626 71.1102 72.2626 71.9191C72.2626 72.7281 72.9185 73.384 73.7275 73.384H76.8535C76.855 73.384 76.8566 73.3844 76.8582 73.3844C76.8599 73.3844 76.8617 73.384 76.8632 73.384H79.9898C80.7988 73.384 81.4546 72.7281 81.4546 71.9191C81.4546 71.1102 80.7988 70.4543 79.9898 70.4543H77.9439L75.9765 63.99H78.8892C81.2089 63.99 83.1695 62.2236 83.4496 59.8812C84.5203 50.9269 90.8998 43.758 99.2132 41.3639L103.881 62.8363C104.03 63.5221 104.637 63.9902 105.311 63.9902C105.414 63.9902 105.519 63.9793 105.624 63.9564C106.414 63.7846 106.916 63.0045 106.744 62.2139L103.412 46.8859C104.041 46.8103 104.676 46.7678 105.312 46.7678C114.001 46.7678 121.07 53.8365 121.07 62.525C121.07 71.2137 114.001 78.2824 105.312 78.2824C96.6238 78.2824 89.555 71.2137 89.555 62.525C89.555 57.5363 91.8419 52.9488 95.8296 49.9393C96.4753 49.4519 96.6037 48.5334 96.1164 47.8877C95.6291 47.2422 94.7105 47.1137 94.0648 47.601C89.3369 51.1693 86.6253 56.609 86.6253 62.5252C86.6253 72.8293 95.0084 81.2123 105.312 81.2123C115.617 81.2123 124 72.8293 124 62.5252C124 52.2211 115.617 43.8383 105.313 43.8383ZM59.1447 27.9096C58.8306 27.9441 58.614 27.798 58.513 27.7074C58.4119 27.617 58.2423 27.418 58.2423 27.1019V25.6613C58.2423 25.2133 58.6068 24.8486 59.0548 24.8486H68.3898C68.9488 24.8486 69.4035 25.3035 69.4035 25.8623C69.4035 26.3795 69.0158 26.8127 68.5017 26.8697L59.1447 27.9096ZM65.3667 39.1906L67.3441 45.6879C66.0679 44.2949 64.6357 43.0475 63.0761 41.9721L65.3667 39.1906ZM70.9193 61.0603H67.5759C67.2775 57.2892 65.8369 53.665 63.4396 50.7246C62.9285 50.0976 62.0058 50.0037 61.3787 50.5148C60.7517 51.026 60.6578 51.9488 61.1689 52.5758C63.141 54.9945 64.3451 57.9631 64.6359 61.0601H49.9789C49.2509 61.0601 48.9382 60.5172 48.8597 60.3508C48.7812 60.1844 48.5609 59.5976 49.0236 59.0357L61.2072 44.2412C66.7099 47.9426 70.4572 54.0596 70.9193 61.0603ZM48.9494 78.2826C40.2609 78.2826 33.1921 71.2139 33.1921 62.5252C33.1921 53.8367 40.2609 46.768 48.9494 46.768C50.8767 46.768 52.7378 47.1064 54.5031 47.7738L46.7621 57.1736C45.7263 58.4312 45.5148 60.1279 46.2101 61.6014C46.9054 63.0748 48.3496 63.99 49.9789 63.99H64.6361C63.8945 71.9941 57.1439 78.2826 48.9494 78.2826ZM80.541 59.5334C80.4351 60.4182 79.7406 61.0603 78.8894 61.0603C78.8894 61.0603 73.9802 61.0578 73.9328 61.06C74.2332 54.3885 76.5863 48.1355 80.7853 42.8959C84.9765 37.666 90.7843 33.8809 97.214 32.1668L98.5898 38.4957C89.0789 41.1545 81.7625 49.3186 80.541 59.5334Z" fill="#4A72DA"/>
</g>
<defs>
<clipPath id="clip0">
<rect width="100" height="100" fill="white" transform="translate(23.9998)"/>
</clipPath>
</defs>
</svg>
