<svg width="126" height="100" viewBox="0 0 126 100" fill="none" xmlns="http://www.w3.org/2000/svg">
<path d="M25.7808 34.8479C44.9893 10.7912 91.6387 -13.2655 105.359 8.53585C119.08 30.3372 105.359 59.2805 89.9238 77.6989C74.4884 96.1173 10.3453 105.139 2.45608 87.4719C-5.43316 69.8053 6.5722 58.9046 25.7808 34.8479Z" fill="#D7E7FF" fill-opacity="0.62"/>
<path d="M31.973 62.1622H38.1622V59.4595H32.8338C31.8923 57.3313 31.4059 55.0298 31.4059 52.7027C31.4059 50.3756 31.8923 48.0741 32.8338 45.9459L89.5136 45.9459C92.2541 45.9459 106.434 47.0149 110.578 48.6243L111.295 48.9013C113.838 49.8851 120.595 52.4973 120.595 54.0541V58.1081C120.595 58.4665 120.452 58.8102 120.199 59.0637C119.945 59.3171 119.602 59.4595 119.243 59.4595H115.189V62.1622H119.243C120.319 62.1622 121.35 61.735 122.11 60.9748C122.87 60.2145 123.297 59.1833 123.297 58.1081V54.0541C123.297 50.8959 118.518 48.7959 112.269 46.3811L111.558 46.1108C106.753 44.2392 91.9028 43.2432 89.5136 43.2432L31.973 43.2432C31.7205 43.2421 31.4727 43.3118 31.2577 43.4443C31.0427 43.5769 30.8692 43.7671 30.7568 43.9932C29.4021 46.6969 28.6967 49.6793 28.6967 52.7034C28.6967 55.7275 29.4021 58.7099 30.7568 61.4135C30.8694 61.6394 31.043 61.8293 31.258 61.9616C31.4729 62.0939 31.7206 62.1634 31.973 62.1622Z" fill="#4A72DA"/>
<path d="M98.9729 59.4595H91.2837V62.1622H98.9729V59.4595Z" fill="#4A72DA"/>
<path d="M85.8784 59.4595L54.3784 59.4595V62.1622L85.8784 62.1622V59.4595Z" fill="#4A72DA"/>
<path d="M98.6026 46.5689L99.3445 43.9703C96.2364 43.0811 94.0593 41.1324 91.5418 38.8635C87.012 34.7946 81.3769 29.7297 67.8918 29.7297C54.9999 29.7297 48.2972 35.1027 43.3918 39.0257C40.4499 41.3824 38.1269 43.2432 35.4593 43.2432V45.946C39.0756 45.946 41.858 43.7176 45.081 41.1351C49.9188 37.2581 55.9485 32.4324 67.8918 32.4324C80.3418 32.4324 85.331 36.9176 89.7337 40.8757C92.3864 43.2581 94.8904 45.5095 98.6026 46.5689Z" fill="#4A72DA"/>
<path d="M46.2703 70.2703C48.1412 70.2703 49.9701 69.7155 51.5257 68.6761C53.0813 67.6367 54.2937 66.1593 55.0097 64.4308C55.7256 62.7023 55.913 60.8003 55.548 58.9654C55.183 57.1304 54.2821 55.4449 52.9591 54.122C51.6362 52.799 49.9507 51.8981 48.1157 51.5331C46.2808 51.1681 44.3788 51.3554 42.6503 52.0714C40.9218 52.7874 39.4444 53.9998 38.405 55.5554C37.3656 57.111 36.8108 58.9399 36.8108 60.8108C36.8137 63.3187 37.8112 65.7231 39.5846 67.4965C41.3579 69.2699 43.7623 70.2674 46.2703 70.2703ZM46.2703 54.0541C47.6066 54.0541 48.913 54.4503 50.0241 55.1928C51.1353 55.9352 52.0013 56.9905 52.5127 58.2251C53.0241 59.4598 53.1579 60.8183 52.8972 62.129C52.6365 63.4397 51.993 64.6436 51.048 65.5886C50.1031 66.5335 48.8991 67.177 47.5884 67.4378C46.2778 67.6985 44.9192 67.5647 43.6846 67.0533C42.4499 66.5418 41.3947 65.6758 40.6522 64.5647C39.9098 63.4535 39.5135 62.1472 39.5135 60.8108C39.5156 59.0195 40.2282 57.3021 41.4949 56.0354C42.7616 54.7688 44.4789 54.0562 46.2703 54.0541Z" fill="#4A72DA"/>
<path d="M107.081 70.2703C108.952 70.2703 110.781 69.7155 112.336 68.6761C113.892 67.6367 115.105 66.1593 115.82 64.4308C116.536 62.7023 116.724 60.8003 116.359 58.9654C115.994 57.1304 115.093 55.4449 113.77 54.122C112.447 52.799 110.761 51.8981 108.927 51.5331C107.092 51.1681 105.19 51.3554 103.461 52.0714C101.733 52.7874 100.255 53.9998 99.2158 55.5554C98.1764 57.111 97.6216 58.9399 97.6216 60.8108C97.6245 63.3187 98.622 65.7231 100.395 67.4965C102.169 69.2699 104.573 70.2674 107.081 70.2703ZM107.081 54.0541C108.417 54.0541 109.724 54.4503 110.835 55.1928C111.946 55.9352 112.812 56.9905 113.323 58.2251C113.835 59.4598 113.969 60.8183 113.708 62.129C113.447 63.4397 112.804 64.6436 111.859 65.5886C110.914 66.5335 109.71 67.177 108.399 67.4378C107.089 67.6985 105.73 67.5647 104.495 67.0533C103.261 66.5418 102.205 65.6758 101.463 64.5647C100.721 63.4535 100.324 62.1472 100.324 60.8108C100.326 59.0195 101.039 57.3021 102.306 56.0354C103.572 54.7688 105.29 54.0562 107.081 54.0541Z" fill="#4A72DA"/>
<path d="M70.5947 31.1013H67.892V44.5946H70.5947V31.1013Z" fill="#4A72DA"/>
</svg>
