<svg width="119" height="102" viewBox="0 0 119 102" fill="none" xmlns="http://www.w3.org/2000/svg">
<path d="M25.7808 39.8479C44.9893 15.7912 91.6387 -8.26554 105.359 13.5358C119.08 35.3372 105.359 64.2805 89.9237 82.6989C74.4884 101.117 10.3453 110.139 2.45608 92.4719C-5.43316 74.8053 6.5722 63.9046 25.7808 39.8479Z" fill="#D7E7FF" fill-opacity="0.62"/>
<path d="M113.16 25.3582C109.798 24.1367 106.22 23.6185 102.649 23.836C99.0779 24.0534 95.5896 25.0018 92.4 26.6223L80.4426 32.5096L58.468 24.4367C58.3026 24.3759 58.1255 24.3532 57.9501 24.3703C57.7747 24.3874 57.6054 24.4439 57.4549 24.5356L51.4154 28.209C51.2458 28.3122 51.1051 28.4568 51.0067 28.6293C50.9083 28.8017 50.8553 28.9963 50.8527 29.1949C50.8501 29.3934 50.898 29.5894 50.9919 29.7643C51.0857 29.9393 51.2226 30.0875 51.3894 30.1951L66.0068 39.617L48.9674 48.0065L39.1068 41.1901C37.2658 39.9148 35.1381 39.1142 32.913 38.8597C30.6879 38.6051 28.4344 38.9045 26.3529 39.7311L21.6937 41.5756C21.5036 41.6509 21.3364 41.7747 21.2089 41.9346C21.0814 42.0946 20.998 42.2851 20.9669 42.4873C20.9359 42.6895 20.9583 42.8962 21.032 43.0871C21.1056 43.2779 21.2279 43.4461 21.3867 43.575L39.583 58.3475C42.0243 60.351 45.0802 61.4543 48.2383 61.4725C48.3698 61.4725 48.5014 61.4705 48.633 61.4664C49.5224 61.4612 50.4039 61.2986 51.2367 60.9862L67.1455 54.8594L59.6687 74.6324C59.6017 74.8098 59.5787 75.0008 59.6017 75.189C59.6247 75.3772 59.693 75.5571 59.8008 75.7131C59.9086 75.8691 60.0526 75.9966 60.2205 76.0847C60.3884 76.1727 60.5752 76.2188 60.7648 76.2188H70.5096C70.715 76.2188 70.9168 76.1648 71.0948 76.0622C71.2728 75.9596 71.4207 75.812 71.5236 75.6342L88.5625 46.2086L113.311 36.4104C114.426 35.9689 115.38 35.1991 116.047 34.2028C116.714 33.2066 117.063 32.0311 117.046 30.8322C117.03 29.6334 116.649 28.4679 115.955 27.4902C115.261 26.5126 114.286 25.769 113.16 25.3582H113.16ZM54.2322 29.2383L58.19 26.8309L77.5381 33.9389L68.4594 38.4088L54.2322 29.2383ZM69.834 73.875H62.4609L71.633 49.6196L87.5084 43.3518L69.834 73.875ZM112.448 34.2313L90.4559 42.9381L91.2234 41.6127C91.3456 41.4021 91.3991 41.1586 91.3765 40.9162C91.3539 40.6738 91.2564 40.4444 91.0974 40.2599C90.9385 40.0755 90.726 39.9451 90.4896 39.887C90.2532 39.8288 90.0045 39.8457 89.7781 39.9354L70.2889 47.6307C70.1369 47.6906 69.9992 47.7817 69.8846 47.898C69.7699 48.0143 69.6808 48.1533 69.623 48.3061L68.2559 51.9205L50.383 58.8035C49.7995 59.0176 49.1826 59.1263 48.5611 59.1244C45.83 59.1868 43.1673 58.2659 41.0582 56.5295L24.4176 43.0192L27.2146 41.9117C28.9379 41.2275 30.8036 40.9797 32.6458 41.1904C34.4879 41.4012 36.2494 42.0639 37.7736 43.1197L48.2004 50.3268C48.372 50.4454 48.5723 50.5161 48.7804 50.5315C48.9885 50.5469 49.1969 50.5064 49.3842 50.4143L93.4502 28.7174C96.3544 27.2402 99.531 26.3752 102.783 26.1761C106.035 25.977 109.294 26.448 112.356 27.56C113.036 27.8079 113.625 28.2567 114.044 28.8468C114.463 29.437 114.693 30.1405 114.702 30.8642C114.712 31.5878 114.502 32.2974 114.099 32.8988C113.697 33.5001 113.121 33.9648 112.448 34.2313H112.448Z" fill="white"/>
</svg>
