<svg width="12" height="12" viewBox="0 0 12 12" fill="none" xmlns="http://www.w3.org/2000/svg">
<path d="M5.99999 0C2.68629 0 0 2.68629 0 5.99999C0 9.31369 2.68629 12 5.99999 12C9.31369 12 12 9.31369 12 5.99999C11.9965 2.68777 9.31223 0.00354073 5.99999 0ZM5.99999 11.1428C3.15967 11.1428 0.857134 8.84031 0.857134 5.99999C0.857134 3.15967 3.15967 0.857134 5.99999 0.857134C8.84031 0.857134 11.1428 3.15967 11.1428 5.99999C11.1398 8.83905 8.83905 11.1398 5.99999 11.1428Z" fill="white"/>
<path d="M9.29245 3.55415C9.12637 3.39373 8.86307 3.39373 8.69701 3.55415L4.71428 7.53686L3.30299 6.12556C3.13856 5.9553 2.86723 5.95061 2.697 6.11504C2.52674 6.27947 2.52204 6.5508 2.68647 6.72103C2.68991 6.7246 2.69343 6.72811 2.697 6.73155L4.41129 8.44585C4.57863 8.61317 4.84994 8.61317 5.01728 8.44585L9.303 4.16012C9.46743 3.98989 9.46271 3.71858 9.29245 3.55415Z" fill="white"/>
</svg>
