<svg width="19" height="18" viewBox="0 0 19 18" fill="none" xmlns="http://www.w3.org/2000/svg">
<g clip-path="url(#clip0)">
<path d="M4.27477 18V5.85544H0.238158V18H4.27477ZM2.25698 4.1963C3.66462 4.1963 4.54081 3.26374 4.54081 2.09835C4.51458 0.906678 3.66467 0 2.2837 0C0.902934 0 0 0.906696 0 2.09835C0 3.2638 0.87597 4.1963 2.23063 4.1963H2.25686H2.25698ZM6.50902 18H10.5456V11.2179C10.5456 10.8549 10.5719 10.4923 10.6784 10.2329C10.9703 9.50765 11.6344 8.75655 12.7495 8.75655C14.2102 8.75655 14.7946 9.87025 14.7946 11.5028V17.9999H18.8309V11.0363C18.8309 7.306 16.8395 5.57032 14.1836 5.57032C12.006 5.57032 11.0499 6.78751 10.5188 7.61654H10.5457V5.85518H6.50911C6.56208 6.99476 6.50911 17.9998 6.50911 17.9998L6.50902 18Z" fill="#1A94CF"/>
</g>
<defs>
<clipPath id="clip0">
<rect width="18.8311" height="18" fill="white"/>
</clipPath>
</defs>
</svg>
