<svg width="36" height="36" viewBox="0 0 36 36" fill="none" xmlns="http://www.w3.org/2000/svg">
<g filter="url(#filter0_d)">
<rect x="4" width="28" height="28" rx="14" fill="#FF6E89" fill-opacity="0.37"/>
<path fill-rule="evenodd" clip-rule="evenodd" d="M24.031 17.8521C23.603 17.3131 22.908 16.5321 22.313 16.4581C21.951 16.4131 21.535 16.7131 21.125 16.9961C21.045 17.0361 20.427 17.4041 20.352 17.4261C19.956 17.5391 19.111 17.5721 18.6 17.1061C18.108 16.6561 17.33 15.8231 16.702 15.0601C16.102 14.2741 15.473 13.3291 15.151 12.7491C14.815 12.1481 15.057 11.3531 15.265 11.0031C15.303 10.9401 15.763 10.4671 15.866 10.3571L15.881 10.3751C16.262 10.0551 16.661 9.73006 16.706 9.37806C16.78 8.79206 16.181 7.93906 15.753 7.39906C15.325 6.85806 14.662 5.91106 13.759 6.04506C13.419 6.09506 13.126 6.21406 12.837 6.38506L12.829 6.37606C12.8128 6.38813 12.7968 6.40046 12.781 6.41306L12.756 6.42606L12.759 6.43006C12.593 6.55806 12.119 6.91206 12.065 6.96006C11.479 7.48106 10.597 8.70806 11.279 10.9151C11.785 12.5551 12.864 14.4811 14.334 16.4291L14.326 16.4361C14.398 16.5301 14.472 16.6151 14.547 16.7061C14.617 16.7991 14.686 16.8911 14.758 16.9831L14.768 16.9761C16.328 18.8551 17.964 20.3571 19.457 21.2431C21.467 22.4351 22.896 21.8981 23.556 21.4711C23.618 21.4301 24.09 21.0631 24.25 20.9421L24.254 20.9461C24.26 20.9401 24.264 20.9321 24.272 20.9261C24.2864 20.9152 24.3008 20.9042 24.315 20.8931L24.309 20.8851C24.551 20.6511 24.745 20.4011 24.879 20.0861C25.23 19.2571 24.459 18.3931 24.031 17.8521Z" fill="#FF6F89"/>
</g>
<defs>
<filter id="filter0_d" x="0" y="0" width="36" height="36" filterUnits="userSpaceOnUse" color-interpolation-filters="sRGB">
<feFlood flood-opacity="0" result="BackgroundImageFix"/>
<feColorMatrix in="SourceAlpha" type="matrix" values="0 0 0 0 0 0 0 0 0 0 0 0 0 0 0 0 0 0 127 0"/>
<feOffset dy="4"/>
<feGaussianBlur stdDeviation="2"/>
<feColorMatrix type="matrix" values="0 0 0 0 0 0 0 0 0 0 0 0 0 0 0 0 0 0 0.08 0"/>
<feBlend mode="normal" in2="BackgroundImageFix" result="effect1_dropShadow"/>
<feBlend mode="normal" in="SourceGraphic" in2="effect1_dropShadow" result="shape"/>
</filter>
</defs>
</svg>
