<svg width="200" height="200" viewBox="0 0 200 200" fill="none" xmlns="http://www.w3.org/2000/svg">
<circle cx="100" cy="100" r="100" fill="#E62465"/>
<path d="M74.1592 142H101.279C118.559 142 131.399 134.68 131.399 118.96C131.399 108.4 125.039 102.28 116.399 100.36V99.88C123.239 97.48 127.319 90.28 127.319 82.84C127.319 68.44 115.439 63.52 99.2392 63.52H74.1592V142ZM88.0792 95.92V74.32H98.2792C108.479 74.32 113.639 77.2 113.639 84.88C113.639 91.6 108.959 95.92 98.0392 95.92H88.0792ZM88.0792 131.2V106.36H99.8392C111.599 106.36 117.839 109.96 117.839 118.24C117.839 127 111.359 131.2 99.8392 131.2H88.0792Z" fill="white"/>
</svg>
