<svg width="200" height="200" viewBox="0 0 200 200" fill="none" xmlns="http://www.w3.org/2000/svg">
<circle cx="100" cy="100" r="100" fill="#673FB4"/>
<path d="M95.6697 169.96C109.47 169.36 117.39 165.76 117.39 158.2C117.39 153.28 114.15 150.88 108.39 149.44L111.15 143.2C119.31 142.12 126.03 138.28 131.43 132.04L123.99 123.28C119.55 128.08 114.15 131.32 107.19 131.32C93.9897 131.32 85.5897 120.52 85.5897 102.64C85.5897 85 94.7097 74.2 107.55 74.2C113.67 74.2 118.35 76.96 122.43 81.04L129.87 72.04C124.95 66.76 117.03 62.08 107.19 62.08C87.3897 62.08 71.3097 77.32 71.3097 103C71.3097 127.24 84.8697 141.4 102.63 143.2L97.9497 152.92C105.03 153.88 107.19 155.56 107.19 158.32C107.19 161.8 104.19 163.36 94.4697 163.96L95.6697 169.96Z" fill="white"/>
</svg>
