<svg width="200" height="200" viewBox="0 0 200 200" fill="none" xmlns="http://www.w3.org/2000/svg">
<circle cx="100" cy="100" r="100" fill="#1EBCD2"/>
<path d="M105.164 143.44C115.844 143.44 124.964 139.36 130.244 134.08V99.52H102.884V110.92H117.764V127.84C115.244 130.12 110.924 131.32 106.484 131.32C90.7642 131.32 82.4842 120.52 82.4842 102.64C82.4842 85 91.8442 74.2 105.764 74.2C113.084 74.2 117.644 77.2 121.604 81.04L129.044 72.04C124.124 67 116.444 62.08 105.284 62.08C84.4042 62.08 68.2042 77.32 68.2042 103C68.2042 129.04 83.9242 143.44 105.164 143.44Z" fill="white"/>
</svg>
