<svg width="200" height="200" viewBox="0 0 200 200" fill="none" xmlns="http://www.w3.org/2000/svg">
<circle cx="100" cy="100" r="100" fill="#E62465"/>
<path d="M100.51 143.44C121.03 143.44 135.19 127.84 135.19 102.4C135.19 77.08 121.03 62.08 100.51 62.08C80.1103 62.08 65.9503 77.08 65.9503 102.4C65.9503 127.84 80.1103 143.44 100.51 143.44ZM100.51 131.32C88.1503 131.32 80.2303 120.04 80.2303 102.4C80.2303 84.88 88.1503 74.2 100.51 74.2C112.87 74.2 120.79 84.88 120.79 102.4C120.79 120.04 112.87 131.32 100.51 131.32ZM87.6703 57.04C91.8703 57.04 94.8703 54.04 94.8703 49.96C94.8703 45.76 91.8703 42.76 87.6703 42.76C83.4703 42.76 80.5903 45.76 80.5903 49.96C80.5903 54.04 83.4703 57.04 87.6703 57.04ZM113.35 57.04C117.55 57.04 120.43 54.04 120.43 49.96C120.43 45.76 117.55 42.76 113.35 42.76C109.15 42.76 106.15 45.76 106.15 49.96C106.15 54.04 109.15 57.04 113.35 57.04Z" fill="white"/>
</svg>
