<svg width="200" height="200" viewBox="0 0 200 200" fill="none" xmlns="http://www.w3.org/2000/svg">
<circle cx="100" cy="100" r="100" fill="#3980FB"/>
<path d="M89.1447 169.96C102.945 169.36 110.865 165.76 110.865 158.2C110.865 153.28 107.625 150.88 101.865 149.44L104.625 143.2C119.625 141.52 128.385 131.8 128.385 120.16C128.385 108.76 121.785 102.88 112.545 98.92L101.865 94.48C95.3847 91.84 89.3847 89.56 89.3847 83.44C89.3847 77.68 94.3047 74.2 101.745 74.2C108.465 74.2 113.745 76.72 118.785 80.92L125.865 72.04C119.745 65.92 110.865 62.08 101.745 62.08C86.3847 62.08 75.3447 71.68 75.3447 84.16C75.3447 95.68 83.5047 101.8 91.1847 105.04L101.985 109.72C109.065 112.72 114.105 114.76 114.105 121.24C114.105 127.36 109.305 131.32 100.425 131.32C93.2247 131.32 85.6647 127.72 80.0247 122.44L71.8647 131.92C78.3447 138.28 86.9847 142.36 96.1047 143.2L91.4247 152.92C98.5047 153.88 100.665 155.56 100.665 158.32C100.665 161.8 97.6647 163.36 87.9447 163.96L89.1447 169.96Z" fill="white"/>
</svg>
