<svg width="200" height="200" viewBox="0 0 200 200" fill="none" xmlns="http://www.w3.org/2000/svg">
<circle cx="100" cy="100" r="100" fill="#159588"/>
<path d="M100.544 143.44C118.784 143.44 130.184 133.36 130.184 107.56V63.52H116.864V108.64C116.864 125.68 110.144 131.32 100.544 131.32C91.0636 131.32 84.7036 125.68 84.7036 108.64V63.52H70.7836V107.56C70.7836 133.36 82.4236 143.44 100.544 143.44ZM87.7036 57.04C91.9036 57.04 94.9036 54.04 94.9036 49.96C94.9036 45.76 91.9036 42.76 87.7036 42.76C83.5036 42.76 80.6236 45.76 80.6236 49.96C80.6236 54.04 83.5036 57.04 87.7036 57.04ZM113.384 57.04C117.584 57.04 120.464 54.04 120.464 49.96C120.464 45.76 117.584 42.76 113.384 42.76C109.184 42.76 106.184 45.76 106.184 49.96C106.184 54.04 109.184 57.04 113.384 57.04Z" fill="white"/>
</svg>
