<svg width="200" height="200" viewBox="0 0 200 200" fill="none" xmlns="http://www.w3.org/2000/svg">
<circle cx="100" cy="100" r="100" fill="#8CC152"/>
<path d="M69.7717 142H86.6917L96.1717 100.72C97.4917 94.6 98.6917 88.6 99.7717 82.6H100.252C101.212 88.6 102.412 94.6 103.732 100.72L113.452 142H130.732L145.732 63.52H132.412L125.572 103.12C124.372 111.4 123.052 119.8 121.852 128.2H121.372C119.572 119.8 117.892 111.28 116.092 103.12L106.492 63.52H94.3717L84.7717 103.12C82.9717 111.4 81.2917 119.92 79.6117 128.2H79.1317C77.9317 119.92 76.6117 111.52 75.2917 103.12L68.4517 63.52H54.1717L69.7717 142Z" fill="white"/>
</svg>
