<svg width="46" height="42" viewBox="0 0 46 42" fill="none" xmlns="http://www.w3.org/2000/svg">
<rect width="46" height="42" rx="4" fill="#FD864C"/>
<path d="M32 17V21C32 21.5304 31.7893 22.0391 31.4142 22.4142C31.0391 22.7893 30.5304 23 30 23H16C15.4696 23 14.9609 22.7893 14.5858 22.4142C14.2107 22.0391 14 21.5304 14 21V17" stroke="white" stroke-width="2" stroke-linecap="round" stroke-linejoin="round"/>
<path d="M28 10L23 5L18 10" stroke="white" stroke-width="2" stroke-linecap="round" stroke-linejoin="round"/>
<path d="M23 5V17" stroke="white" stroke-width="2" stroke-linecap="round" stroke-linejoin="round"/>
<path d="M14.6172 36.5C14.8828 36.5 15.0879 36.5762 15.2324 36.7285C15.377 36.877 15.4492 37.0645 15.4492 37.291C15.4492 37.5137 15.377 37.6992 15.2324 37.8477C15.0879 37.9922 14.8828 38.0645 14.6172 38.0645C14.3633 38.0645 14.1621 37.9922 14.0137 37.8477C13.8652 37.7031 13.791 37.5176 13.791 37.291C13.791 37.0645 13.8633 36.877 14.0078 36.7285C14.1523 36.5762 14.3555 36.5 14.6172 36.5ZM19.3574 33.7461L20.5645 31.6602H22.1465L20.207 34.7832L22.2109 38H20.6406L19.375 35.832L18.1152 38H16.5332L18.5371 34.7832L16.6035 31.6602H18.1738L19.3574 33.7461ZM24.6309 38H23.207V29H24.6309V38ZM29.7402 36.2773C29.7402 36.0234 29.6348 35.8301 29.4238 35.6973C29.2168 35.5645 28.8711 35.4473 28.3867 35.3457C27.9023 35.2441 27.498 35.1152 27.1738 34.959C26.4629 34.6152 26.1074 34.1172 26.1074 33.4648C26.1074 32.918 26.3379 32.4609 26.7988 32.0938C27.2598 31.7266 27.8457 31.543 28.5566 31.543C29.3145 31.543 29.9258 31.7305 30.3906 32.1055C30.8594 32.4805 31.0938 32.9668 31.0938 33.5645H29.6699C29.6699 33.291 29.5684 33.0645 29.3652 32.8848C29.1621 32.7012 28.8926 32.6094 28.5566 32.6094C28.2441 32.6094 27.9883 32.6816 27.7891 32.8262C27.5938 32.9707 27.4961 33.1641 27.4961 33.4062C27.4961 33.625 27.5879 33.7949 27.7715 33.916C27.9551 34.0371 28.3262 34.1602 28.8848 34.2852C29.4434 34.4062 29.8809 34.5527 30.1973 34.7246C30.5176 34.8926 30.7539 35.0957 30.9062 35.334C31.0625 35.5723 31.1406 35.8613 31.1406 36.2012C31.1406 36.7715 30.9043 37.2344 30.4316 37.5898C29.959 37.9414 29.3398 38.1172 28.5742 38.1172C28.0547 38.1172 27.5918 38.0234 27.1855 37.8359C26.7793 37.6484 26.4629 37.3906 26.2363 37.0625C26.0098 36.7344 25.8965 36.3809 25.8965 36.002H27.2793C27.2988 36.3379 27.4258 36.5977 27.6602 36.7812C27.8945 36.9609 28.2051 37.0508 28.5918 37.0508C28.9668 37.0508 29.252 36.9805 29.4473 36.8398C29.6426 36.6953 29.7402 36.5078 29.7402 36.2773Z" fill="white"/>
</svg>
