<svg width="512" height="512" viewBox="0 0 512 512" fill="none" xmlns="http://www.w3.org/2000/svg">
<path d="M392 488H120C107.27 488 95.0606 482.943 86.0589 473.941C77.0571 464.939 72 452.73 72 440V72C72 59.2696 77.0571 47.0606 86.0589 38.0589C95.0606 29.0571 107.27 24 120 24H344L440 120V440C440 452.73 434.943 464.939 425.941 473.941C416.939 482.943 404.73 488 392 488Z" fill="#CFFCEF"/>
<path d="M72 360H440V440C440 452.73 434.943 464.939 425.941 473.941C416.939 482.943 404.73 488 392 488H120C107.27 488 95.0606 482.943 86.0589 473.941C77.0571 464.939 72 452.73 72 440V360Z" fill="#1DB691"/>
<path d="M440 120H392C379.27 120 367.061 114.943 358.059 105.941C349.057 96.9394 344 84.7304 344 72V24L440 120Z" fill="#1DB691"/>
<path d="M240 448H216V392C216 389.878 215.157 387.843 213.657 386.343C212.157 384.843 210.122 384 208 384C205.878 384 203.843 384.843 202.343 386.343C200.843 387.843 200 389.878 200 392V456C200 458.122 200.843 460.157 202.343 461.657C203.843 463.157 205.878 464 208 464H240C242.122 464 244.157 463.157 245.657 461.657C247.157 460.157 248 458.122 248 456C248 453.878 247.157 451.843 245.657 450.343C244.157 448.843 242.122 448 240 448Z" fill="white"/>
<path d="M179.578 384.845C177.68 383.896 175.483 383.74 173.471 384.411C171.458 385.081 169.794 386.524 168.845 388.422L160 406.111L151.155 388.422C150.196 386.541 148.533 385.116 146.528 384.456C144.522 383.797 142.338 383.956 140.45 384.901C138.562 385.845 137.123 387.497 136.448 389.497C135.773 391.497 135.916 393.683 136.845 395.578L151.056 424L136.845 452.422C136.365 453.363 136.077 454.389 135.996 455.442C135.915 456.494 136.043 457.553 136.373 458.556C136.703 459.558 137.228 460.486 137.918 461.285C138.608 462.084 139.45 462.739 140.394 463.211C141.338 463.683 142.367 463.964 143.42 464.037C144.473 464.109 145.531 463.973 146.531 463.635C147.531 463.298 148.455 462.765 149.249 462.069C150.042 461.373 150.69 460.526 151.155 459.578L160 441.889L168.845 459.578C169.31 460.526 169.958 461.373 170.751 462.069C171.545 462.765 172.469 463.298 173.469 463.635C174.469 463.973 175.527 464.109 176.58 464.037C177.633 463.964 178.662 463.683 179.606 463.211C180.55 462.739 181.392 462.084 182.082 461.285C182.772 460.486 183.297 459.558 183.627 458.556C183.957 457.553 184.085 456.494 184.004 455.442C183.923 454.389 183.635 453.363 183.155 452.422L168.944 424L183.155 395.578C184.104 393.68 184.26 391.483 183.589 389.471C182.918 387.458 181.476 385.794 179.578 384.845Z" fill="white"/>
<path d="M371.578 384.845C369.68 383.896 367.483 383.74 365.471 384.411C363.458 385.081 361.794 386.524 360.845 388.422L352 406.111L343.155 388.422C342.196 386.541 340.533 385.116 338.528 384.456C336.522 383.797 334.338 383.956 332.45 384.901C330.562 385.845 329.123 387.497 328.448 389.497C327.773 391.497 327.916 393.683 328.845 395.578L343.056 424L328.845 452.422C328.365 453.363 328.077 454.389 327.996 455.442C327.915 456.494 328.043 457.553 328.373 458.556C328.703 459.558 329.228 460.486 329.918 461.285C330.608 462.084 331.45 462.739 332.394 463.211C333.338 463.683 334.367 463.964 335.42 464.037C336.473 464.109 337.531 463.973 338.531 463.635C339.531 463.298 340.455 462.765 341.249 462.069C342.042 461.373 342.69 460.526 343.155 459.578L352 441.889L360.845 459.578C361.31 460.526 361.958 461.373 362.751 462.069C363.545 462.765 364.469 463.298 365.469 463.635C366.469 463.973 367.527 464.109 368.58 464.037C369.633 463.964 370.662 463.683 371.606 463.211C372.55 462.739 373.392 462.084 374.082 461.285C374.772 460.486 375.297 459.558 375.627 458.556C375.957 457.553 376.085 456.494 376.004 455.442C375.923 454.389 375.635 453.363 375.155 452.422L360.944 424L375.155 395.578C376.104 393.68 376.26 391.483 375.589 389.471C374.918 387.458 373.476 385.794 371.578 384.845Z" fill="white"/>
<path d="M288 400H304C306.122 400 308.157 399.157 309.657 397.657C311.157 396.157 312 394.122 312 392C312 389.878 311.157 387.843 309.657 386.343C308.157 384.843 306.122 384 304 384H288C281.635 384 275.53 386.529 271.029 391.029C266.529 395.53 264 401.635 264 408C264 414.365 266.529 420.47 271.029 424.971C275.53 429.471 281.635 432 288 432C290.122 432 292.157 432.843 293.657 434.343C295.157 435.843 296 437.878 296 440C296 442.122 295.157 444.157 293.657 445.657C292.157 447.157 290.122 448 288 448H272C269.878 448 267.843 448.843 266.343 450.343C264.843 451.843 264 453.878 264 456C264 458.122 264.843 460.157 266.343 461.657C267.843 463.157 269.878 464 272 464H288C294.365 464 300.47 461.471 304.971 456.971C309.471 452.47 312 446.365 312 440C312 433.635 309.471 427.53 304.971 423.029C300.47 418.529 294.365 416 288 416C285.878 416 283.843 415.157 282.343 413.657C280.843 412.157 280 410.122 280 408C280 405.878 280.843 403.843 282.343 402.343C283.843 400.843 285.878 400 288 400Z" fill="white"/>
<path d="M333.167 145.176H294.983V167.835H333.167C344.527 167.835 353.337 173.632 353.337 178.625V279.106C353.337 284.095 344.527 289.899 333.167 289.899H188.825C177.47 289.899 168.659 284.095 168.659 279.106V178.636C168.659 173.643 177.47 167.843 188.825 167.843H227.006V145.184H188.825C164.811 145.184 146 159.878 146 178.636V279.11C146 297.871 164.811 312.558 188.825 312.558H333.175C357.182 312.558 376 297.864 376 279.11V178.636C375.996 159.871 357.185 145.176 333.167 145.176Z" fill="#1DB691"/>
<path d="M295.281 192.534C292.381 192.534 289.484 193.644 287.271 195.857L273.087 210.038V160.841V138.182V94.7714C273.087 88.5175 268.015 83.4419 261.757 83.4419C255.5 83.4419 250.428 88.5175 250.428 94.7714V138.178V160.837V210.8L235.477 195.853C233.264 193.64 230.363 192.53 227.467 192.53C224.57 192.53 221.67 193.64 219.457 195.853C215.031 200.272 215.031 207.447 219.457 211.869L253.283 245.695C255.496 247.908 258.396 249.007 261.289 249.007C261.319 249.007 261.349 249.007 261.376 249.007C261.402 249.007 261.432 249.007 261.459 249.007C264.359 249.007 267.252 247.908 269.465 245.695L303.291 211.869C307.717 207.447 307.717 200.272 303.291 195.853C301.078 193.644 298.185 192.534 295.281 192.534Z" fill="#3F5DFF"/>
</svg>
