<svg width="23" height="24" viewBox="0 0 23 24" fill="none" xmlns="http://www.w3.org/2000/svg">
<g clip-path="url(#clip0)">
<path d="M8.57143 9.61228V4.4082H0.918367C0.409439 4.4082 0 4.81764 0 5.32657V23.0817C0 23.5906 0.409439 24 0.918367 24H13.7755C14.2844 24 14.6939 23.5906 14.6939 23.0817V10.5307H9.4898C8.98469 10.5307 8.57143 10.1174 8.57143 9.61228ZM10.8712 13.6875L8.57143 17.2653L10.8712 20.8432C11.0663 21.1493 10.8482 21.5511 10.4847 21.5511H9.14924C8.98087 21.5511 8.82398 21.4592 8.74362 21.31C7.99362 19.9248 7.34694 18.6812 7.34694 18.6812C7.10204 19.2475 6.96429 19.4465 5.94643 21.3138C5.86607 21.463 5.71301 21.5549 5.54464 21.5549H4.20918C3.84566 21.5549 3.62755 21.1531 3.8227 20.847L6.1301 17.2692L3.8227 13.6914C3.62372 13.3852 3.84566 12.9835 4.20918 12.9835H5.54082C5.70918 12.9835 5.86607 13.0753 5.94643 13.2245C6.94515 15.0919 6.71174 14.5102 7.34694 15.8457C7.34694 15.8457 7.58036 15.398 8.74745 13.2245C8.82781 13.0753 8.98469 12.9835 9.15306 12.9835H10.4847C10.8482 12.9796 11.0663 13.3814 10.8712 13.6875V13.6875ZM14.6939 9.07274V9.30616H9.79592V4.4082H10.0293C10.2742 4.4082 10.5077 4.50387 10.6798 4.67606L14.426 8.42606C14.5982 8.59825 14.6939 8.83167 14.6939 9.07274Z" fill="#38C89D"/>
</g>
<path d="M13.9813 3.08467C14.1745 2.90024 14.4786 2.90024 14.6718 3.08467L16.3626 4.69864C16.6889 5.0101 16.4684 5.56032 16.0174 5.56032H15.8952C15.619 5.56032 15.3952 5.78418 15.3952 6.06032V12.0065C15.3952 12.2827 15.1713 12.5065 14.8952 12.5065H13.7579C13.4817 12.5065 13.2579 12.2827 13.2579 12.0065V6.06032C13.2579 5.78418 13.034 5.56032 12.7579 5.56032H12.6357C12.1846 5.56032 11.9642 5.0101 12.2905 4.69864L13.9813 3.08467Z" fill="#FF2F61"/>
<defs>
<clipPath id="clip0">
<rect width="14.6939" height="19.5918" fill="white" transform="translate(0 4.4082)"/>
</clipPath>
</defs>
</svg>
