<svg width="46" height="42" viewBox="0 0 46 42" fill="none" xmlns="http://www.w3.org/2000/svg">
<rect width="46" height="42" rx="4" fill="#389CEE"/>
<path d="M32 17V21C32 21.5304 31.7893 22.0391 31.4142 22.4142C31.0391 22.7893 30.5304 23 30 23H16C15.4696 23 14.9609 22.7893 14.5858 22.4142C14.2107 22.0391 14 21.5304 14 21V17" stroke="white" stroke-width="2" stroke-linecap="round" stroke-linejoin="round"/>
<path d="M18 12L23 17L28 12" stroke="white" stroke-width="2" stroke-linecap="round" stroke-linejoin="round"/>
<path d="M23 17V5" stroke="white" stroke-width="2" stroke-linecap="round" stroke-linejoin="round"/>
<path d="M15.6172 36.5C15.8828 36.5 16.0879 36.5762 16.2324 36.7285C16.377 36.877 16.4492 37.0645 16.4492 37.291C16.4492 37.5137 16.377 37.6992 16.2324 37.8477C16.0879 37.9922 15.8828 38.0645 15.6172 38.0645C15.3633 38.0645 15.1621 37.9922 15.0137 37.8477C14.8652 37.7031 14.791 37.5176 14.791 37.291C14.791 37.0645 14.8633 36.877 15.0078 36.7285C15.1523 36.5762 15.3555 36.5 15.6172 36.5ZM20.3574 33.7461L21.5645 31.6602H23.1465L21.207 34.7832L23.2109 38H21.6406L20.375 35.832L19.1152 38H17.5332L19.5371 34.7832L17.6035 31.6602H19.1738L20.3574 33.7461ZM25.6309 38H24.207V29H25.6309V38ZM30.7402 36.2773C30.7402 36.0234 30.6348 35.8301 30.4238 35.6973C30.2168 35.5645 29.8711 35.4473 29.3867 35.3457C28.9023 35.2441 28.498 35.1152 28.1738 34.959C27.4629 34.6152 27.1074 34.1172 27.1074 33.4648C27.1074 32.918 27.3379 32.4609 27.7988 32.0938C28.2598 31.7266 28.8457 31.543 29.5566 31.543C30.3145 31.543 30.9258 31.7305 31.3906 32.1055C31.8594 32.4805 32.0938 32.9668 32.0938 33.5645H30.6699C30.6699 33.291 30.5684 33.0645 30.3652 32.8848C30.1621 32.7012 29.8926 32.6094 29.5566 32.6094C29.2441 32.6094 28.9883 32.6816 28.7891 32.8262C28.5938 32.9707 28.4961 33.1641 28.4961 33.4062C28.4961 33.625 28.5879 33.7949 28.7715 33.916C28.9551 34.0371 29.3262 34.1602 29.8848 34.2852C30.4434 34.4062 30.8809 34.5527 31.1973 34.7246C31.5176 34.8926 31.7539 35.0957 31.9062 35.334C32.0625 35.5723 32.1406 35.8613 32.1406 36.2012C32.1406 36.7715 31.9043 37.2344 31.4316 37.5898C30.959 37.9414 30.3398 38.1172 29.5742 38.1172C29.0547 38.1172 28.5918 38.0234 28.1855 37.8359C27.7793 37.6484 27.4629 37.3906 27.2363 37.0625C27.0098 36.7344 26.8965 36.3809 26.8965 36.002H28.2793C28.2988 36.3379 28.4258 36.5977 28.6602 36.7812C28.8945 36.9609 29.2051 37.0508 29.5918 37.0508C29.9668 37.0508 30.252 36.9805 30.4473 36.8398C30.6426 36.6953 30.7402 36.5078 30.7402 36.2773Z" fill="white"/>
</svg>
