<svg id="Capa_1" enable-background="new 0 0 512 512" height="512" viewBox="0 0 512 512" width="512" xmlns="http://www.w3.org/2000/svg"><g><path d="m486.245 94.711 25.755 21.184-27.753 33.59z" fill="#fa6f7c"/><path d="m259.606 94.711-25.755 21.184 30.712 39.495z" fill="#fa6f7c"/><path d="m440.918 488.821h-425.465c-8.535 0-15.453-6.918-15.453-15.453v-10.302c0-2.845 2.306-5.151 5.151-5.151h20.604l228.179-14.993h159.921l37.365 14.993c2.845 0 5.151 2.306 5.151 5.151v10.302c-.001 8.535-6.919 15.453-15.453 15.453z" fill="#cdf2f9"/><path d="m484.185 463.066v10.302c0 8.53-6.923 15.453-15.453 15.453h-30.905c8.53 0 15.453-6.923 15.453-15.453v-10.302c0-2.843-2.308-5.151-5.151-5.151l3.284-6.253 7.018 6.253h20.604c2.843.001 5.15 2.308 5.15 5.151z" fill="#a4e8f9"/><path d="m251.308 146.801h-210.101c-8.534 0-15.453 6.918-15.453 15.453v295.662h405.891v-195.535z" fill="#6f6571"/><path d="m458.431 262.377v195.539h-30.906v-33.996l-176.212-277.119z" fill="#5d5360"/><path d="m427.525 271.194v152.726c0 1.707-1.384 3.091-3.091 3.091h-364.683c-1.707 0-3.091-1.384-3.091-3.091v-215.308l205.738-30.905z" fill="#fff"/><path d="m249.304 156.325v-127.995c0-2.845 2.306-5.151 5.151-5.151h208.097c2.845 0 5.151 2.306 5.151 5.151v127.523l-89.596 87.411z" fill="#fcf1f2"/><path d="m496.547 28.33v127.526h-30.905v-127.526c0-2.843-2.308-5.151-5.151-5.151h30.905c2.844 0 5.151 2.308 5.151 5.151z" fill="#f4e5e0"/><path d="m505.271 197.795-24.175-40.463-50.8 19.085-45.106 33.412c-7.285 5.397-17.242 5.397-24.528 0l-45.106-33.412-62.567-11.762-19.137 58.379v36.056c0 11.379 9.225 20.604 20.604 20.604h208.097c11.379 0 20.604-9.225 20.604-20.604z" fill="#fc8d94"/><path d="m512 223.034v36.056c0 11.383-9.22 20.604-20.604 20.604h-30.905c11.383 0 20.604-9.22 20.604-20.604v-53.689l15.453-6.022z" fill="#fa6f7c"/><path d="m430.296 176.419 50.799 28.982 15.452-37.439-15.451-29.174z" fill="#faa4aa"/><path d="m512 115.895v107.139l-30.905-17.636v-66.612z" fill="#fc8d94"/><path d="m233.851 177.706v30.905h-177.191v-27.815c0-1.707 1.384-3.091 3.091-3.091h174.1z" fill="#c3aff0"/><g fill="#ffe07d"><path d="m329.658 396.105h-20.604c-2.845 0-5.151-2.306-5.151-5.151v-20.604c0-2.845 2.306-5.151 5.151-5.151h20.604c2.845 0 5.151 2.306 5.151 5.151v20.604c0 2.845-2.306 5.151-5.151 5.151z"/><path d="m252.394 396.105h-20.604c-2.845 0-5.151-2.306-5.151-5.151v-20.604c0-2.845 2.306-5.151 5.151-5.151h20.604c2.845 0 5.151 2.306 5.151 5.151v20.604c0 2.845-2.306 5.151-5.151 5.151z"/><path d="m175.131 396.105h-20.604c-2.845 0-5.151-2.306-5.151-5.151v-20.604c0-2.845 2.306-5.151 5.151-5.151h20.604c2.845 0 5.151 2.306 5.151 5.151v20.604c0 2.845-2.306 5.151-5.151 5.151z"/></g><path d="m315.555 176.419-81.704 46.615v-107.139z" fill="#faa4aa"/><path d="m408.985 148.346h-72.115c-4.267 0-7.726-3.459-7.726-7.726s3.459-7.726 7.726-7.726h72.115c4.267 0 7.726 3.459 7.726 7.726s-3.458 7.726-7.726 7.726z" fill="#e6d6d1"/><path d="m429.589 117.441h-113.322c-4.267 0-7.726-3.459-7.726-7.726s3.459-7.726 7.726-7.726h113.322c4.267 0 7.726 3.459 7.726 7.726s-3.459 7.726-7.726 7.726z" fill="#e6d6d1"/><path d="m450.193 87.565h-154.53c-4.267 0-7.726-3.459-7.726-7.726 0-4.268 3.459-7.726 7.726-7.726h154.53c4.267 0 7.726 3.459 7.726 7.726 0 4.268-3.459 7.726-7.726 7.726z" fill="#e6d6d1"/></g></svg>