<svg width="16" height="16" viewBox="0 0 16 16" fill="none" xmlns="http://www.w3.org/2000/svg">
<path d="M10.1655 8L14.3577 3.80788C14.9557 3.20988 14.9557 2.24035 14.3577 1.64235C13.7596 1.04435 12.7902 1.04435 12.1921 1.64235L8 5.83447L3.80788 1.64235C3.20988 1.04435 2.24035 1.04435 1.64235 1.64235C1.04435 2.24035 1.04435 3.20988 1.64235 3.80788L5.83447 8L1.64235 12.1921C1.04435 12.7901 1.04435 13.7597 1.64235 14.3577C1.94135 14.6566 2.33322 14.8062 2.7251 14.8062C3.11697 14.8062 3.50888 14.6567 3.80785 14.3577L8 10.1655L12.1921 14.3577C12.4911 14.6566 12.883 14.8062 13.2749 14.8062C13.6668 14.8062 14.0586 14.6567 14.3576 14.3577C14.9556 13.7597 14.9556 12.7901 14.3576 12.1921L10.1655 8Z" fill="#777777"/>
</svg>
