<svg width="512" height="512" viewBox="0 0 512 512" fill="none" xmlns="http://www.w3.org/2000/svg">
<path d="M255.999 227.198L135.466 106.664L277.333 18.1309L408.533 106.664L255.999 227.198Z" fill="#38C89D"/>
<path d="M255.999 227.198L135.466 106.664L181.333 50.1309L408.533 106.664L255.999 227.198Z" fill="#37A48A"/>
<path d="M326.4 469.335H185.6C164.267 469.335 146.133 454.402 142.933 433.068L96 117.335H416L368 433.068C364.8 454.402 346.667 469.335 326.4 469.335Z" fill="#FF7697"/>
<path d="M405.332 138.667H106.666C94.9325 138.667 85.3325 129.067 85.3325 117.333C85.3325 105.6 94.9325 96 106.666 96H405.332C417.066 96 426.666 105.6 426.666 117.333C426.666 129.067 417.066 138.667 405.332 138.667Z" fill="#FF2F61"/>
</svg>
